<?xml version="1.0" standalone="no"?>
<!DOCTYPE svg PUBLIC "-//W3C//DTD SVG 1.1//EN" "http://www.w3.org/Graphics/SVG/1.1/DTD/svg11.dtd" >
<svg xmlns="http://www.w3.org/2000/svg" xmlns:xlink="http://www.w3.org/1999/xlink" version="1.1">
<metadata>
Created by FontForge 20200427 at Mon Nov  3 02:16:49 2014
 By www
Copyright (c) 2011 by Ryoichi Tsunekawa. All rights reserved.
</metadata>
<defs>
<font id="RamaGothicMW03-Light" horiz-adv-x="253" >
  <font-face 
    font-family="RamaGothicMW03-Light"
    font-weight="300"
    font-stretch="normal"
    units-per-em="1000"
    panose-1="4 5 4 2 2 11 2 2 2 2"
    ascent="800"
    descent="-200"
    x-height="541"
    cap-height="700"
    bbox="-20 -176 1000 830"
    underline-thickness="50"
    underline-position="-125"
    unicode-range="U+0020-FB02"
  />
<missing-glyph horiz-adv-x="350" 
d="M42 -2v700h266v-700h-266zM287 16v663h-224v-663h224z" />
    <glyph glyph-name="uniFB01" unicode="fi" horiz-adv-x="282" 
d="M90 541h80v-34h-80v-507h-40v507h-33v34h33v86q0 43 18.5 62t58.5 19q25 0 43 -8v-34q-9 4 -17.5 6t-20.5 2q-23 0 -32.5 -11t-9.5 -41v-81zM203 0v541h40v-541h-40zM203 612v68h40v-68h-40z" />
    <glyph glyph-name="uniFB02" unicode="fl" horiz-adv-x="282" 
d="M90 541h80v-34h-80v-507h-40v507h-33v34h33v86q0 43 18.5 62t58.5 19q25 0 43 -8v-34q-9 4 -17.5 6t-20.5 2q-23 0 -32.5 -11t-9.5 -41v-81zM203 0v700h40v-700h-40z" />
    <glyph glyph-name=".notdef" horiz-adv-x="350" 
d="M42 -2v700h266v-700h-266zM287 16v663h-224v-663h224z" />
    <glyph glyph-name=".null" horiz-adv-x="0" 
 />
    <glyph glyph-name="nonmarkingreturn" horiz-adv-x="333" 
 />
    <glyph glyph-name="space" unicode=" " horiz-adv-x="129" 
 />
    <glyph glyph-name="exclam" unicode="!" horiz-adv-x="131" 
d="M44 72h43v-72h-43v72zM75 123h-19l-13 296v281h44v-281z" />
    <glyph glyph-name="quotedbl" unicode="&#x22;" horiz-adv-x="228" 
d="M177 392h-25l-8 208v100h41v-100zM76 392h-25l-8 208v100h41v-100z" />
    <glyph glyph-name="numbersign" unicode="#" 
d="M29 508h40l15 192h33l-15 -192h73l15 192h34l-15 -192h39l-3 -33h-39l-19 -250h39l-2 -33h-40l-15 -192h-34l16 192h-73l-16 -192h-33l15 192h-39l2 33h40l18 250h-38zM80 225h73l19 250h-73z" />
    <glyph glyph-name="dollar" unicode="$" 
d="M113 0q-41 4 -63.5 29.5t-22.5 80.5v143h41v-147q0 -34 13.5 -51t43.5 -17t43.5 17t13.5 51v61q0 44 -11.5 76t-28.5 57.5t-37.5 49t-37.5 51.5t-28.5 64t-11.5 88v39q0 53 22.5 78.5t63.5 28.5v40h25v-40q41 -3 64 -28.5t23 -80.5v-133h-41v137q0 34 -13.5 51t-43.5 17
q-31 0 -44 -17t-13 -51v-45q0 -44 11.5 -76t28.5 -57.5t37.5 -49t37.5 -51.5t28.5 -64.5t11.5 -88.5v-54q0 -54 -23 -79.5t-64 -28.5v-39h-25v39z" />
    <glyph glyph-name="percent" unicode="%" horiz-adv-x="428" 
d="M299 700h32l-200 -700h-32zM403 67q0 -40 -18 -57.5t-50 -17.5t-50.5 17.5t-18.5 57.5v281q0 40 18.5 57t50.5 17t50 -17t18 -57v-281zM369 349q0 42 -34 42q-19 0 -26.5 -10.5t-7.5 -31.5v-284q0 -20 7.5 -30.5t26.5 -10.5q34 0 34 41v284zM162 353q0 -40 -18 -57.5
t-50 -17.5t-50.5 17.5t-18.5 57.5v281q0 40 18.5 57t50.5 17t50 -17t18 -57v-281zM128 635q0 42 -34 42q-19 0 -26.5 -10.5t-7.5 -31.5v-284q0 -20 7.5 -30.5t26.5 -10.5q34 0 34 41v284z" />
    <glyph glyph-name="ampersand" unicode="&#x26;" horiz-adv-x="324" 
d="M145 435q25 -89 41.5 -148.5t27 -97.5t15.5 -60t7 -37q11 27 18 70t7 108v138h36v-135q0 -81 -11.5 -134.5t-29.5 -85.5q11 -23 31 -23q18 0 26 5v-36q-5 -2 -13 -4t-19 -2q-16 0 -30 5t-25 19q-16 -14 -32.5 -19.5t-33.5 -5.5q-15 0 -28.5 2.5t-26 11.5t-23 26.5
t-19.5 47.5l-26 84q-19 63 -19 111q0 41 12.5 69.5t35.5 52.5l34 37q-17 61 -22.5 99t-5.5 66q0 52 20 80.5t58 28.5q39 0 57 -25.5t18 -78.5q0 -50 -20.5 -88.5t-59.5 -80.5zM163 30q11 0 23 4t24 16l-100 347l-22 -25q-14 -15 -21.5 -35.5t-6.5 -48.5q0 -20 4.5 -44
t12.5 -53l28 -95q11 -41 25 -53.5t33 -12.5zM114 600q0 -45 7 -76.5t11 -54.5q31 33 44.5 65.5t13.5 69.5q0 41 -10.5 55t-27.5 14q-19 0 -28.5 -16.5t-9.5 -56.5z" />
    <glyph glyph-name="quotesingle" unicode="'" horiz-adv-x="127" 
d="M76 392h-25l-8 208v100h41v-100z" />
    <glyph glyph-name="parenleft" unicode="(" horiz-adv-x="155" 
d="M31 588q0 62 28 87t73 25h22v-33h-19q-34 0 -48.5 -17.5t-14.5 -59.5v-560q0 -42 14.5 -59t48.5 -17h19v-33h-22q-45 0 -73 25t-28 87v555v0z" />
    <glyph glyph-name="parenright" unicode=")" horiz-adv-x="155" 
d="M124 33q0 -62 -28 -87t-73 -25h-22v33h19q34 0 48.5 17t14.5 59v560q0 42 -14.5 59.5t-48.5 17.5h-19v33h22q45 0 73 -25t28 -87v-555z" />
    <glyph glyph-name="asterisk" unicode="*" horiz-adv-x="269" 
d="M112 555l-111 59l16 28l105 -68l-4 126h33l-6 -126l106 68l17 -28l-112 -59l112 -58l-17 -28l-106 66l6 -125h-33l4 125l-105 -66l-16 28z" />
    <glyph glyph-name="plus" unicode="+" 
d="M108 242v89h-77v37h77v89h37v-89h77v-37h-77v-89h-37z" />
    <glyph glyph-name="comma" unicode="," horiz-adv-x="127" 
d="M43 81h40v-81l-44 -71l-6 3l29 68h-19v81z" />
    <glyph glyph-name="hyphen" unicode="-" horiz-adv-x="205" 
d="M178 252h-151v37h151v-37z" />
    <glyph glyph-name="period" unicode="." horiz-adv-x="127" 
d="M43 81h40v-81h-40v81z" />
    <glyph glyph-name="slash" unicode="/" horiz-adv-x="221" 
d="M172 700h41l-164 -700h-41z" />
    <glyph glyph-name="zero" unicode="0" 
d="M222 96q0 -55 -25 -79.5t-71 -24.5q-45 0 -70 24.5t-25 79.5v508q0 55 25 79.5t70 24.5q46 0 71 -24.5t25 -79.5v-508zM181 608q0 32 -12.5 48.5t-42.5 16.5q-29 0 -42 -16.5t-13 -48.5v-516q0 -32 13 -48.5t42 -16.5q30 0 42.5 16.5t12.5 48.5v516z" />
    <glyph glyph-name="one" unicode="1" horiz-adv-x="154" 
d="M20 674h32q16 0 22 7.5t7 18.5h26v-700h-41v640h-46v34z" />
    <glyph glyph-name="two" unicode="2" horiz-adv-x="243" 
d="M30 440v161q0 56 24.5 81.5t69.5 25.5t70 -25.5t25 -81.5v-81q0 -47 -11 -84.5t-28 -70t-36.5 -63.5t-36.5 -64.5t-28 -72t-11 -86.5v-38h149v-41h-190v75q0 53 11 94.5t28 76.5t36.5 66t36.5 62.5t28 66t11 77.5v87q0 32 -12.5 50t-42.5 18t-42.5 -18t-12.5 -50v-165
h-38z" />
    <glyph glyph-name="three" unicode="3" horiz-adv-x="244" 
d="M66 268v-173q0 -32 12.5 -50t42.5 -18q29 0 42 18t13 50v185q0 33 -12 50t-43 17h-32v36h32q31 0 43 17t12 50v155q0 32 -13 50t-42 18q-30 0 -42.5 -18t-12.5 -50v-143h-39v140q0 56 25 81t70 25t69.5 -25t24.5 -81v-142q0 -45 -12.5 -66t-34.5 -29q22 -8 34.5 -29.5
t12.5 -65.5v-171q0 -56 -24.5 -81.5t-69.5 -25.5t-70 25.5t-25 81.5v169h39z" />
    <glyph glyph-name="four" unicode="4" horiz-adv-x="248" 
d="M229 165h-33v-165h-41v165h-135v34l129 501h47v-496h33v-39zM58 204h97v241q0 54 1.5 102.5t4.5 86.5q-7 -37 -17 -85.5t-23 -97.5z" />
    <glyph glyph-name="five" unicode="5" horiz-adv-x="255" 
d="M74 258v-163q0 -32 12.5 -50t42.5 -18q29 0 42 18t13 50v334q0 38 -12.5 51.5t-36.5 13.5q-26 0 -43.5 -22t-17.5 -51v-71h-39v350h187v-41h-148v-179q9 21 28.5 35t45.5 14q16 0 30 -4.5t24 -16t16 -30.5t6 -48v-331q0 -56 -24.5 -81.5t-69.5 -25.5t-70 25.5t-25 81.5
v159h39z" />
    <glyph glyph-name="six" unicode="6" horiz-adv-x="249" 
d="M71 428q9 22 28.5 36.5t46.5 14.5q32 0 54 -20.5t22 -78.5v-284q0 -55 -25 -79.5t-71 -24.5q-45 0 -70 24.5t-25 79.5v505q0 56 24.5 81.5t69.5 25.5t70 -25.5t25 -81.5v-59h-39v63q0 32 -12.5 50t-42.5 18q-29 0 -42 -18t-13 -50v-177zM71 92q0 -32 13 -48.5t42 -16.5
q30 0 42.5 16.5t12.5 48.5v287q0 38 -12 51t-36 13q-26 0 -44 -21.5t-18 -50.5v-279z" />
    <glyph glyph-name="seven" unicode="7" horiz-adv-x="233" 
d="M28 700h189v-35l-144 -665h-45l150 659h-150v41z" />
    <glyph glyph-name="eight" unicode="8" horiz-adv-x="246" 
d="M218 460q0 -37 -10.5 -60.5t-36.5 -34.5q26 -11 36.5 -35t10.5 -60v-174q0 -56 -25 -80t-70 -24t-70.5 24t-25.5 80v174q0 36 10.5 60t36.5 35q-26 11 -36.5 34.5t-10.5 60.5v144q0 56 25.5 80t70.5 24q46 0 70.5 -24t24.5 -80v-144zM123 347q-35 0 -45 -17.5t-10 -54.5
v-183q0 -32 12.5 -48.5t42.5 -16.5t42.5 16.5t12.5 48.5v183q0 37 -11 54.5t-44 17.5zM123 383q33 0 44 17.5t11 54.5v152q0 32 -12.5 49t-42.5 17t-42.5 -17t-12.5 -49v-152q0 -37 10.5 -54.5t44.5 -17.5z" />
    <glyph glyph-name="nine" unicode="9" horiz-adv-x="249" 
d="M27 604q0 55 25.5 79.5t70.5 24.5t70.5 -24.5t25.5 -79.5v-505q0 -56 -25 -81.5t-70 -25.5t-69.5 25.5t-24.5 81.5v74h38v-78q0 -32 12.5 -50t42.5 -18t42.5 18t12.5 50v189q-10 -20 -29 -34t-45 -14q-16 0 -30 4.5t-24.5 16t-16.5 30.5t-6 48v269zM117 272
q26 0 43.5 21.5t17.5 50.5v264q0 32 -12.5 48.5t-42.5 16.5t-42.5 -16.5t-12.5 -48.5v-272q0 -38 12.5 -51t36.5 -13z" />
    <glyph glyph-name="colon" unicode=":" horiz-adv-x="127" 
d="M43 444h40v-81h-40v81zM43 81h40v-81h-40v81z" />
    <glyph glyph-name="semicolon" unicode=";" horiz-adv-x="127" 
d="M43 81h40v-81l-44 -71l-6 3l29 68h-19v81zM43 444h40v-81h-40v81z" />
    <glyph glyph-name="less" unicode="&#x3c;" 
d="M222 278v-38l-191 92v35l191 92v-36l-150 -73z" />
    <glyph glyph-name="equal" unicode="=" 
d="M222 274h-191v36h191v-36zM222 389h-191v36h191v-36z" />
    <glyph glyph-name="greater" unicode="&#x3e;" 
d="M181 350l-150 73v36l191 -92v-35l-191 -92v38z" />
    <glyph glyph-name="question" unicode="?" horiz-adv-x="221" 
d="M16 440v161q0 56 24.5 81.5t69.5 25.5t70 -25.5t25 -81.5v-75q0 -45 -6.5 -76.5t-17 -55.5t-22 -44.5t-22 -43.5t-17 -52.5t-6.5 -71.5v-44h-23v57q0 44 5.5 74t13.5 53t17.5 42.5t17.5 42t13.5 52t5.5 72.5v74q0 32 -12.5 50t-42.5 18t-42.5 -18t-12.5 -50v-165h-38z
M82 95h40v-95h-40v95z" />
    <glyph glyph-name="at" unicode="@" horiz-adv-x="439" 
d="M31 350q0 87 7 153.5t27.5 112t57.5 69t97 23.5q59 0 96 -23.5t57.5 -69t27.5 -112t7 -153.5t-7 -153.5t-27.5 -112t-57.5 -69t-96 -23.5q-60 0 -97 23.5t-57.5 69t-27.5 112t-7 153.5zM62 350q0 -78 5.5 -139t22 -103t47.5 -64.5t83 -22.5q51 0 82 22.5t47.5 64.5
t22 103t5.5 139t-5.5 139t-22 103t-47.5 64.5t-82 22.5q-52 0 -83 -22.5t-47.5 -64.5t-22 -103t-5.5 -139zM285 201q0 -15 0.5 -25.5t1 -19t2 -16.5t3.5 -18h-30q-6 10 -7 35q-5 -17 -19.5 -29t-34.5 -12q-23 0 -38.5 16t-15.5 58v78q0 43 16 65.5t35.5 37.5t36 29t16.5 38
v70q0 23 -7 33t-26 10q-34 0 -34 -43v-97h-32v97q0 40 17.5 57.5t49.5 17.5q33 0 49.5 -18t16.5 -57v-307zM251 381q-10 -11 -22 -20.5t-22.5 -20.5t-18 -26.5t-7.5 -39.5v-83q0 -27 9 -35t23 -8q16 0 27 13t11 30v190z" />
    <glyph glyph-name="A" unicode="A" horiz-adv-x="252" 
d="M182 106h-119l-13 -106h-40l88 700h55l88 -700h-45zM68 144h109l-31 248q-6 51 -12 109.5t-11 129.5q-5 -71 -11 -129.5t-12 -109.5z" />
    <glyph glyph-name="B" unicode="B" horiz-adv-x="276" 
d="M135 700q21 0 41 -4t35 -16t24 -33.5t9 -55.5v-133q0 -43 -14.5 -64.5t-39.5 -29.5q25 -8 40.5 -29t15.5 -64v-162q0 -35 -9.5 -56t-25 -33t-35.5 -16t-41 -4h-93v700h93zM86 346v-307h43q41 0 56.5 15t15.5 55v168q0 40 -15.5 54.5t-56.5 14.5h-43zM129 384
q40 0 56 14.5t16 54.5v138q0 40 -15.5 55t-56.5 15h-43v-277h43z" />
    <glyph glyph-name="C" unicode="C" horiz-adv-x="266" 
d="M75 102q0 -35 14 -53t46 -18t46 18t14 53v174h42v-170q0 -61 -27.5 -87.5t-75.5 -26.5t-75.5 26.5t-27.5 87.5v488q0 61 27.5 87.5t75.5 26.5t75.5 -26.5t27.5 -87.5v-151h-42v155q0 35 -14 53t-46 18t-46 -18t-14 -53v-496v0z" />
    <glyph glyph-name="D" unicode="D" horiz-adv-x="282" 
d="M42 700h89q21 0 41.5 -4.5t36.5 -17t25.5 -34.5t9.5 -56v-476q0 -35 -9.5 -56.5t-25.5 -34t-36.5 -17t-41.5 -4.5h-89v700zM86 661v-622h40q41 0 57.5 16t16.5 56v478q0 40 -16.5 56t-57.5 16h-40z" />
    <glyph glyph-name="E" unicode="E" horiz-adv-x="230" 
d="M86 39h124v-39h-168v700h165v-39h-121v-277h109v-39h-109v-306z" />
    <glyph glyph-name="F" unicode="F" horiz-adv-x="211" 
d="M86 0h-44v700h161v-39h-117v-288h106v-38h-106v-335z" />
    <glyph glyph-name="G" unicode="G" horiz-adv-x="269" 
d="M195 340h-60v38h103v-378h-23l-4 43q-11 -27 -33 -39t-52 -12q-43 0 -69 25.5t-26 88.5v488q0 61 27.5 87.5t75.5 26.5t75.5 -26.5t27.5 -87.5v-145h-42v149q0 35 -14 53t-46 18t-46 -18t-14 -53v-496q0 -35 14 -53t46 -18t46 18t14 53v238z" />
    <glyph glyph-name="H" unicode="H" horiz-adv-x="293" 
d="M86 0h-44v700h44v-316h120v316h45v-700h-45v345h-120v-345z" />
    <glyph glyph-name="I" unicode="I" horiz-adv-x="126" 
d="M41 700h44v-700h-44v700z" />
    <glyph glyph-name="J" unicode="J" horiz-adv-x="252" 
d="M215 101q0 -58 -27.5 -83.5t-76.5 -25.5q-48 0 -75 25.5t-27 83.5v173h41v-176q0 -34 14 -50.5t46 -16.5t46 16.5t14 50.5v602h45v-599v0z" />
    <glyph glyph-name="K" unicode="K" horiz-adv-x="273" 
d="M86 318q8 29 22.5 67t34.5 95l78 220h42l-100 -281l104 -419h-46l-87 358l-48 -129v-229h-45v700h45v-382z" />
    <glyph glyph-name="L" unicode="L" horiz-adv-x="204" 
d="M42 700h44v-661h117v-39h-161v700z" />
    <glyph glyph-name="M" unicode="M" horiz-adv-x="387" 
d="M192 90q4 50 11 102t15 101l64 407h63v-700h-43v440q0 21 0.5 47t1 52.5t1 52.5t1.5 48q-3 -22 -6 -48t-6.5 -52t-7 -51.5t-6.5 -46.5l-70 -442h-40l-70 442q-3 21 -7 46.5t-7.5 51.5t-6.5 52t-5 48q1 -22 1.5 -48t1 -52.5t1 -52.5t0.5 -47v-440h-37v700h62l64 -407
q8 -49 14.5 -101t10.5 -102z" />
    <glyph glyph-name="N" unicode="N" horiz-adv-x="293" 
d="M252 700v-700h-44l-104 478q-3 16 -7 35.5t-7.5 40.5t-7.5 42.5t-8 40.5q1 -19 2 -41t1.5 -44t1 -42t0.5 -35v-475h-38v700h59l89 -408q3 -15 7 -35.5t7.5 -42.5t7.5 -44t8 -41q-1 19 -2 41.5t-1.5 45t-1 43t-0.5 35.5v406h38z" />
    <glyph glyph-name="O" unicode="O" horiz-adv-x="270" 
d="M31 594q0 61 27.5 87.5t76.5 26.5t77 -26.5t28 -87.5v-488q0 -61 -28 -87.5t-77 -26.5t-76.5 26.5t-27.5 87.5v488zM75 102q0 -35 14 -53t46 -18t46 18t14 53v496q0 35 -14 53t-46 18t-46 -18t-14 -53v-496z" />
    <glyph glyph-name="P" unicode="P" horiz-adv-x="258" 
d="M86 0h-44v700h86q22 0 42.5 -4.5t36.5 -17t25.5 -34.5t9.5 -56v-190q0 -35 -9.5 -57t-25.5 -34.5t-36.5 -17t-42.5 -4.5h-42v-285zM86 661v-337h38q40 0 57 16t17 56v193q0 40 -17 56t-57 16h-38z" />
    <glyph glyph-name="Q" unicode="Q" horiz-adv-x="278" 
d="M255 32h6.5t7.5 1v-37q-7 -4 -20 -4q-34 0 -40 32q-26 -32 -78 -32q-44 0 -72 26t-28 88v488q0 61 27.5 87.5t76.5 26.5t77 -26.5t28 -87.5v-538q0 -14 3.5 -19t11.5 -5zM75 102q0 -35 14 -53t46 -18t46 18t14 53v496q0 35 -14 53t-46 18t-46 -18t-14 -53v-496z" />
    <glyph glyph-name="R" unicode="R" horiz-adv-x="279" 
d="M86 329v-329h-44v700h93q21 0 41 -4t35.5 -16t25 -33.5t9.5 -55.5v-148q0 -44 -15.5 -65.5t-40.5 -29.5q25 -8 40.5 -29.5t15.5 -65.5v-116q0 -35 1 -57.5t3 -37.5t5 -24l6 -18h-49q-3 12 -7 33.5t-4 68.5v142q0 48 -17.5 66.5t-66.5 18.5h-31zM129 368q41 0 56.5 14
t15.5 55v154q0 40 -15.5 55t-56.5 15h-43v-293h43z" />
    <glyph glyph-name="S" unicode="S" horiz-adv-x="254" 
d="M69 102q0 -35 12.5 -53t44.5 -18t44.5 18t12.5 53v60q0 46 -11.5 78.5t-29 59t-37.5 50t-37.5 52t-29 66t-11.5 91.5v37q0 60 26 86t74 26t74 -26.5t26 -87.5v-120h-42v124q0 35 -12.5 53t-44.5 18t-44 -18t-12 -53v-44q0 -46 11.5 -78.5t28.5 -59t37.5 -50t37.5 -52
t28.5 -66t11.5 -91.5v-53q0 -60 -26 -86t-74 -26t-74 26.5t-26 87.5v140h42v-144z" />
    <glyph glyph-name="T" unicode="T" horiz-adv-x="203" 
d="M203 661h-79v-661h-45v661h-78v39h202v-39z" />
    <glyph glyph-name="U" unicode="U" horiz-adv-x="279" 
d="M81 98q0 -34 14 -50.5t46 -16.5t46 16.5t14 50.5v602h42v-599q0 -58 -27.5 -83.5t-75.5 -25.5t-75.5 25.5t-27.5 83.5v599h44v-602v0z" />
    <glyph glyph-name="V" unicode="V" horiz-adv-x="251" 
d="M106 308q6 -49 12 -106t11 -126q5 69 11 126t12 106l49 392h41l-89 -700h-53l-89 700h45z" />
    <glyph glyph-name="W" unicode="W" horiz-adv-x="400" 
d="M261 0l-43 385q-5 47 -9.5 104t-8.5 120q-4 -63 -8 -120t-9 -104l-42 -385h-53l-77 700h45l43 -388q5 -49 10 -107.5t9 -123.5q4 65 9 123.5t10 107.5l43 388h47l43 -388q5 -49 9.5 -107.5t8.5 -123.5q4 65 8.5 123.5t9.5 107.5l44 388h40l-77 -700h-52z" />
    <glyph glyph-name="X" unicode="X" horiz-adv-x="248" 
d="M17 700h45l38 -168q10 -39 16 -71.5t10 -58.5q9 51 27 130l38 168h40l-78 -338l84 -362h-45l-43 193q-10 39 -16 71t-11 59q-4 -27 -10 -59t-16 -71l-43 -193h-41l84 362z" />
    <glyph glyph-name="Y" unicode="Y" horiz-adv-x="255" 
d="M205 700h40l-94 -455v-245h-45v241l-95 459h45l48 -241q7 -35 14.5 -77.5t12.5 -85.5q5 43 12 85.5t14 77.5z" />
    <glyph glyph-name="Z" unicode="Z" horiz-adv-x="219" 
d="M20 700h183v-30l-139 -631h139v-39h-186v30l138 631h-135v39z" />
    <glyph glyph-name="bracketleft" unicode="[" horiz-adv-x="166" 
d="M83 -46h83v-33h-124v798h124v-33h-83v-732z" />
    <glyph glyph-name="backslash" unicode="\" horiz-adv-x="221" 
d="M213 0h-41l-164 700h41z" />
    <glyph glyph-name="bracketright" unicode="]" horiz-adv-x="166" 
d="M83 686h-83v33h124v-798h-124v33h83v732z" />
    <glyph glyph-name="asciicircum" unicode="^" 
d="M60 472h-38l89 228h31l89 -228h-38l-67 179z" />
    <glyph glyph-name="underscore" unicode="_" horiz-adv-x="500" 
d="M500 -78h-500v31h500v-31z" />
    <glyph glyph-name="grave" unicode="`" horiz-adv-x="205" 
d="M148 582h-26l-65 91h43z" />
    <glyph glyph-name="a" unicode="a" 
d="M186 0q-3 10 -4.5 21.5t-2.5 24.5q-8 -23 -28 -38.5t-48 -15.5q-16 0 -30 4t-24 15t-16 29t-6 47v70q0 40 11 66.5t28 44.5t36 31t36 26t28 28.5t11 40.5v55q0 32 -11.5 48.5t-40.5 16.5t-40.5 -16.5t-11.5 -48.5v-97h-38v93q0 56 23.5 80t67.5 24q45 0 68.5 -24
t23.5 -80v-322v-43t1 -32t2.5 -25t3.5 -23h-39zM177 315q-14 -17 -33 -29.5t-36 -28t-29 -37.5t-12 -59v-72q0 -38 12.5 -50t36.5 -12q26 0 43.5 21.5t17.5 50.5v216z" />
    <glyph glyph-name="b" unicode="b" horiz-adv-x="261" 
d="M79 99q0 -29 18 -50.5t44 -21.5q24 0 36 13t12 52v357q0 39 -12 52t-36 13q-26 0 -44 -21.5t-18 -50.5v-343zM79 700v-202q9 22 28.5 36.5t46.5 14.5q16 0 30 -4.5t24 -15.5t16 -30t6 -48v-361q0 -29 -6 -48t-16 -30t-24 -15.5t-30 -4.5q-29 0 -49 16.5t-28 39.5l-11 -48
h-27v700h40z" />
    <glyph glyph-name="c" unicode="c" horiz-adv-x="247" 
d="M181 344v105q0 32 -12.5 48.5t-42.5 16.5q-29 0 -42 -16.5t-13 -48.5v-357q0 -32 13 -48.5t42 -16.5q30 0 42.5 16.5t12.5 48.5v114h39v-110q0 -55 -25 -79.5t-70 -24.5t-69.5 24.5t-24.5 79.5v349q0 55 24.5 79.5t69.5 24.5t70 -24.5t25 -79.5v-101h-39z" />
    <glyph glyph-name="d" unicode="d" horiz-adv-x="261" 
d="M182 442q0 29 -18 50.5t-44 21.5q-24 0 -36 -13t-12 -52v-357q0 -39 12 -52t36 -13q26 0 44 21.5t18 50.5v343zM190 0q-3 10 -4.5 21.5t-2.5 24.5q-8 -23 -28 -38.5t-48 -15.5q-16 0 -30 4.5t-24 15.5t-16 30t-6 48v361q0 29 6 48t16 30t24 15.5t30 4.5q26 0 46 -14.5
t29 -36.5v202h40v-577q0 -50 1.5 -75t6.5 -48h-40z" />
    <glyph glyph-name="e" unicode="e" horiz-adv-x="249" 
d="M71 266v-174q0 -32 13 -48.5t42 -16.5q30 0 42.5 16.5t12.5 48.5v108h39v-104q0 -55 -25 -79.5t-70 -24.5t-69.5 24.5t-24.5 79.5v349q0 55 24.5 79.5t69.5 24.5t70 -24.5t25 -79.5v-179h-149zM71 301h110v148q0 32 -12.5 48.5t-42.5 16.5q-29 0 -42 -16.5t-13 -48.5
v-148z" />
    <glyph glyph-name="f" unicode="f" horiz-adv-x="164" 
d="M90 541h80v-34h-80v-507h-40v507h-33v34h33v86q0 43 18.5 62t58.5 19q25 0 43 -8v-34q-9 4 -17.5 6t-20.5 2q-23 0 -32.5 -11t-9.5 -41v-81z" />
    <glyph glyph-name="g" unicode="g" horiz-adv-x="258" 
d="M30 -46q0 44 31 61q-22 15 -22 47q0 19 8 32t19 19q-38 23 -38 90v244q0 55 24.5 78.5t69.5 23.5q59 0 80 -40q2 14 9 23t22 9q11 0 16 -2v-34q-10 2 -16 2q-14 0 -14 -25v-279q0 -56 -25 -79.5t-70 -23.5q-19 0 -32 3q-9 -3 -13.5 -11.5t-4.5 -17.5q0 -11 7 -20t22 -9
h59q43 0 65 -18t22 -64q0 -43 -23.5 -62.5t-65.5 -19.5h-48q-45 0 -63.5 20t-18.5 53zM179 450q0 32 -13 48.5t-42 16.5q-30 0 -42.5 -16.5t-12.5 -48.5v-251q0 -32 12.5 -48.5t42.5 -16.5q29 0 42 16.5t13 48.5v251zM158 -88q24 0 38 10.5t14 36.5q0 29 -12.5 37.5
t-36.5 8.5h-56q-24 0 -33 -14t-9 -31q0 -23 11.5 -35.5t43.5 -12.5h40z" />
    <glyph glyph-name="h" unicode="h" horiz-adv-x="265" 
d="M189 0v449q0 39 -12 52t-36 13q-26 0 -44 -21.5t-18 -50.5v-442h-40v700h40v-202q9 22 28.5 36.5t46.5 14.5q16 0 30 -4.5t24 -15.5t16 -30t6 -48v-451h-41z" />
    <glyph glyph-name="i" unicode="i" horiz-adv-x="118" 
d="M39 0v541h40v-541h-40zM39 612v68h40v-68h-40z" />
    <glyph glyph-name="j" unicode="j" horiz-adv-x="118" 
d="M39 612v68h40v-68h-40zM19 -119q-19 0 -29 5v34q8 -4 23 -4q26 0 26 35v590h40v-592q0 -36 -14 -52t-46 -16z" />
    <glyph glyph-name="k" unicode="k" horiz-adv-x="258" 
d="M79 247q9 27 22 54.5t30 67.5l74 172h38l-95 -217l103 -324h-42l-86 274l-44 -95v-179h-40v700h40v-453z" />
    <glyph glyph-name="l" unicode="l" horiz-adv-x="118" 
d="M39 0v700h40v-700h-40z" />
    <glyph glyph-name="m" unicode="m" horiz-adv-x="400" 
d="M39 0v541h38v-47q8 23 26 39t47 16q25 0 42 -11t25 -41q9 22 29 37t47 15q32 0 52 -20t20 -78v-451h-41v449q0 39 -10 52t-34 13q-26 0 -42 -21.5t-16 -50.5v-442h-41v449q0 39 -10 52t-34 13q-26 0 -42 -21.5t-16 -50.5v-442h-40z" />
    <glyph glyph-name="n" unicode="n" horiz-adv-x="265" 
d="M39 0v541h38v-49q8 24 28 40.5t49 16.5q16 0 30 -4.5t24 -15.5t16 -30t6 -48v-451h-41v449q0 39 -12 52t-36 13q-26 0 -44 -21.5t-18 -50.5v-442h-40z" />
    <glyph glyph-name="o" unicode="o" 
d="M222 96q0 -55 -25 -79.5t-71 -24.5q-45 0 -70 24.5t-25 79.5v349q0 55 25 79.5t70 24.5q46 0 71 -24.5t25 -79.5v-349zM181 449q0 32 -12.5 48.5t-42.5 16.5q-29 0 -42 -16.5t-13 -48.5v-357q0 -32 13 -48.5t42 -16.5q30 0 42.5 16.5t12.5 48.5v357z" />
    <glyph glyph-name="p" unicode="p" horiz-adv-x="261" 
d="M79 99q0 -29 18 -50.5t44 -21.5q24 0 36 13t12 52v357q0 39 -12 52t-36 13q-26 0 -44 -21.5t-18 -50.5v-343zM39 -111v652h38v-49q8 24 28 40.5t49 16.5q16 0 30 -4.5t24 -15.5t16 -30t6 -48v-361q0 -29 -6 -48t-16 -30t-24 -15.5t-30 -4.5q-27 0 -46.5 14.5t-28.5 35.5
v-153h-40z" />
    <glyph glyph-name="q" unicode="q" horiz-adv-x="261" 
d="M182 442q0 29 -18 50.5t-44 21.5q-24 0 -36 -13t-12 -52v-357q0 -39 12 -52t36 -13q26 0 44 21.5t18 50.5v343zM182 -111v153q-9 -21 -29 -35.5t-46 -14.5q-16 0 -30 4.5t-24 15.5t-16 30t-6 48v361q0 29 6 48t16 30t24 15.5t30 4.5q29 0 49 -16.5t28 -39.5l11 48h27
v-652h-40z" />
    <glyph glyph-name="r" unicode="r" horiz-adv-x="239" 
d="M39 0v541h38v-47q8 23 27 39t47 16q32 0 52 -20t20 -78v-186h-38v184q0 39 -11 52t-35 13q-26 0 -43 -21.5t-17 -50.5v-442h-40z" />
    <glyph glyph-name="s" unicode="s" horiz-adv-x="238" 
d="M170 130q0 32 -10.5 55t-26.5 41.5t-34.5 35.5t-34.5 38t-26.5 49t-10.5 68v33q0 52 24 75.5t69 23.5t68 -24t23 -79v-82h-38v85q0 32 -11.5 49t-41.5 17q-29 0 -40.5 -16t-11.5 -47v-38q0 -32 10.5 -55t26.5 -41.5t34.5 -35.5t34.5 -38.5t26.5 -49t10.5 -67.5v-35
q0 -53 -24 -76.5t-69 -23.5t-68 24t-23 79v93h38v-96q0 -32 11.5 -49t41.5 -17q29 0 40.5 16t11.5 47v41z" />
    <glyph glyph-name="t" unicode="t" horiz-adv-x="160" 
d="M114 -5q-33 0 -48.5 15t-15.5 53v444h-33v34h33v99h40v-99h59v-34h-59v-442q0 -20 7 -27.5t24 -7.5t28 3v-33q-7 -3 -17 -4t-18 -1z" />
    <glyph glyph-name="u" unicode="u" horiz-adv-x="265" 
d="M186 541h41v-418v-43t1 -32t2.5 -25t3.5 -23h-39q-3 10 -4.5 21.5t-2.5 24.5q-8 -23 -28 -38.5t-48 -15.5q-16 0 -30 4.5t-24.5 15.5t-16.5 30t-6 48v451h41v-449q0 -39 12.5 -52t36.5 -13q26 0 43.5 21.5t17.5 50.5v442z" />
    <glyph glyph-name="v" unicode="v" horiz-adv-x="241" 
d="M194 541h37l-85 -541h-50l-86 541h41l52 -332q7 -40 11.5 -82t7.5 -77q4 35 9 77t11 82z" />
    <glyph glyph-name="w" unicode="w" horiz-adv-x="378" 
d="M259 209q5 -41 8 -80.5t5 -72.5q2 33 5 72.5t9 80.5l46 332h37l-76 -541h-45l-46 328q-5 34 -7.5 73t-5.5 71q-2 -32 -5 -71t-8 -73l-45 -328h-46l-75 541h41l46 -332q5 -41 8 -80.5t5 -72.5q2 33 5.5 72.5t8.5 80.5l45 332h43z" />
    <glyph glyph-name="x" unicode="x" horiz-adv-x="241" 
d="M185 541h38l-78 -256l86 -285h-42l-41 138q-11 39 -18 66t-12 50q-5 -23 -12 -50t-18 -66l-41 -138h-37l86 285l-78 256h42l32 -109q11 -39 18.5 -66.5t12.5 -50.5q5 23 12 50.5t18 66.5z" />
    <glyph glyph-name="y" unicode="y" horiz-adv-x="241" 
d="M36 -80q12 -5 26 -5q17 0 25.5 7.5t11.5 25.5q2 12 1 25.5t-3 27.5l-87 540h41l52 -332q7 -40 11.5 -81.5t7.5 -77.5q4 35 9 77t11 82l52 332h37l-93 -590q-5 -32 -20 -51t-50 -19q-11 0 -19 1.5t-13 3.5v34z" />
    <glyph glyph-name="z" unicode="z" horiz-adv-x="211" 
d="M21 541h174v-30l-138 -477h138v-34h-180v30l137 477h-131v34z" />
    <glyph glyph-name="braceleft" unicode="{" horiz-adv-x="167" 
d="M62 235q0 32 -9 44.5t-36 12.5h-16v36h16q27 0 36 12.5t9 45.5q0 18 -2 46.5t-5 59t-5 58.5t-2 46q0 31 7.5 51t20.5 32t31.5 17t41.5 5h18v-33h-15q-34 0 -48.5 -15.5t-14.5 -55.5q0 -17 2 -45t5 -58t5 -58t2 -44q0 -38 -10.5 -56t-27.5 -26q17 -8 27.5 -26t10.5 -55
q0 -17 -2 -45t-5 -58t-5 -58t-2 -44q0 -41 14.5 -56.5t48.5 -15.5h15v-33h-18q-23 0 -41.5 5t-31.5 17t-20.5 32t-7.5 51q0 18 2 46.5t5 59t5 59t2 46.5z" />
    <glyph glyph-name="bar" unicode="|" horiz-adv-x="205" 
d="M83 700h38v-811h-38v811z" />
    <glyph glyph-name="braceright" unicode="}" horiz-adv-x="167" 
d="M105 235q0 -18 2 -46.5t5 -59t5 -59t2 -46.5q0 -31 -7.5 -51t-20.5 -32t-32 -17t-41 -5h-18v33h15q34 0 48.5 15.5t14.5 56.5q0 16 -2 44t-5 58t-5 58t-2 45q0 37 10.5 55t27.5 26q-17 8 -27.5 26t-10.5 56q0 16 2 44t5 58t5 58t2 45q0 40 -14.5 55.5t-48.5 15.5h-15v33
h18q22 0 41 -5t32 -17t20.5 -32t7.5 -51q0 -18 -2 -46t-5 -58.5t-5 -59t-2 -46.5q0 -33 9 -45.5t36 -12.5h16v-36h-16q-27 0 -36 -12.5t-9 -44.5z" />
    <glyph glyph-name="asciitilde" unicode="~" 
d="M222 342q-13 -14 -25 -19t-24 -5q-13 0 -25.5 4t-24.5 9.5t-23.5 9.5t-23.5 4q-11 0 -22.5 -5t-22.5 -19v37q13 13 25 18t24 5t24.5 -4t24.5 -9.5t23.5 -9.5t23.5 -4q11 0 22.5 5.5t23.5 19.5v-37z" />
    <glyph glyph-name="uni00A0" unicode="&#xa0;" horiz-adv-x="129" 
 />
    <glyph glyph-name="exclamdown" unicode="&#xa1;" horiz-adv-x="131" 
d="M86 509h-43v72h43v-72zM55 458h19l13 -296v-281h-44v281z" />
    <glyph glyph-name="cent" unicode="&#xa2;" 
d="M182 427v112q0 32 -12.5 48.5t-42.5 16.5q-29 0 -42 -16.5t-13 -48.5v-371q0 -32 13 -48.5t42 -16.5q30 0 42.5 16.5t12.5 48.5v121h39v-117q0 -52 -21.5 -76.5t-60.5 -28.5v-51h-24v51q-41 3 -62 28t-21 77v363q0 52 21 76.5t62 27.5v53h24v-53q39 -3 60.5 -28t21.5 -76
v-108h-39z" />
    <glyph glyph-name="sterling" unicode="&#xa3;" 
d="M129 186q-2 -52 -17.5 -88.5t-38.5 -56.5h152v-41h-199v33q64 30 67 153h-57v31h56q-2 36 -12.5 71.5t-22 73t-20.5 78.5t-9 88v73q0 57 26 82t73 25q46 0 72 -25.5t26 -83.5v-169h-40v173q0 33 -13.5 50.5t-43.5 17.5t-43.5 -17.5t-13.5 -50.5v-76q0 -45 8.5 -83t19 -75
t19.5 -73.5t11 -78.5h75v-31h-75z" />
    <glyph glyph-name="currency" unicode="&#xa4;" 
d="M73 350q0 -24 15 -39t38 -15q24 0 38.5 15t14.5 39t-14.5 38.5t-38.5 14.5q-23 0 -38 -14.5t-15 -38.5zM47 350q0 25 15 45l-41 39l20 21l39 -42q20 17 46 17q27 0 47 -17l38 42l21 -21l-41 -39q7 -10 11 -21t4 -24q0 -23 -15 -46l41 -38l-21 -21l-38 42q-20 -17 -47 -17
q-26 0 -46 17l-39 -42l-20 21l41 38q-15 21 -15 46z" />
    <glyph glyph-name="yen" unicode="&#xa5;" 
d="M200 700h36l-88 -452h76v-26h-77v-65h77v-27h-77v-130h-41v130h-77v27h77v65h-77v26h75l-87 452h41l45 -241q7 -35 14 -77.5t12 -85.5q5 43 11.5 85.5t13.5 77.5z" />
    <glyph glyph-name="brokenbar" unicode="&#xa6;" horiz-adv-x="205" 
d="M83 700h38v-352h-38v352zM83 241h38v-352h-38v352z" />
    <glyph glyph-name="section" unicode="&#xa7;" horiz-adv-x="254" 
d="M68 39q0 -33 14 -51t44 -18q31 0 44 17t13 46v22q0 30 -11.5 52t-29 40t-37.5 35t-37.5 37.5t-29 47t-11.5 63.5v34q0 76 59 95q-24 23 -41.5 53.5t-17.5 77.5v17q0 51 27 76t73 25q45 0 72 -25.5t27 -81.5v-85h-41v88q0 33 -13.5 50.5t-43.5 17.5q-31 0 -44 -16.5
t-13 -45.5v-22q0 -31 11.5 -52.5t29 -40t37.5 -35.5t37.5 -37.5t29 -47t11.5 -63.5v-33q0 -38 -15.5 -62.5t-44.5 -33.5q24 -23 42 -53.5t18 -76.5v-17q0 -52 -27 -77t-73 -25t-72.5 25.5t-26.5 82.5v84h40v-87zM187 311q0 22 -6.5 40t-18 33t-25.5 28t-29 26
q-20 -5 -31 -23.5t-11 -46.5v-37q0 -23 6.5 -40.5t17.5 -32.5t25 -28t29 -26q23 5 33 25.5t10 45.5v36z" />
    <glyph glyph-name="dieresis" unicode="&#xa8;" horiz-adv-x="205" 
d="M39 592v58h39v-58h-39zM127 592v58h39v-58h-39z" />
    <glyph glyph-name="copyright" unicode="&#xa9;" horiz-adv-x="439" 
d="M31 350q0 87 7 153.5t27.5 112t57.5 69t97 23.5q59 0 96 -23.5t57.5 -69t27.5 -112t7 -153.5t-7 -153.5t-27.5 -112t-57.5 -69t-96 -23.5q-60 0 -97 23.5t-57.5 69t-27.5 112t-7 153.5zM62 350q0 -78 5.5 -139t22 -103t47.5 -64.5t83 -22.5q51 0 82 22.5t47.5 64.5
t22 103t5.5 139t-5.5 139t-22 103t-47.5 64.5t-82 22.5q-52 0 -83 -22.5t-47.5 -64.5t-22 -103t-5.5 -139zM188 191q0 -23 7 -33.5t25 -10.5t25.5 10.5t7.5 33.5v104h32v-104q0 -40 -17 -57.5t-49 -17.5t-49 17.5t-17 57.5v317q0 40 17 57t49 17t49 -17t17 -57v-104h-32v104
q0 22 -7.5 33t-25.5 11t-25 -11t-7 -33v-317z" />
    <glyph glyph-name="ordfeminine" unicode="&#xaa;" horiz-adv-x="186" 
d="M125 633q0 22 -7.5 33t-26.5 11q-18 0 -25.5 -11t-7.5 -33v-63h-32v63q0 40 17 57.5t50 17.5q32 0 49 -17.5t17 -57.5v-234q0 -15 0.5 -25.5t1 -19t2 -16.5t3.5 -18h-30q-5 8 -7 35q-5 -17 -19.5 -29t-34.5 -12q-23 0 -38.5 15.5t-15.5 57.5v48q0 40 16 61t35.5 34.5
t36 26t16.5 34.5v42zM125 539q-9 -11 -21 -19t-22.5 -18.5t-18 -25t-7.5 -36.5v-51q0 -27 9 -35t23 -8q15 0 26 12.5t11 30.5v150zM22 269h141v-36h-141v36z" />
    <glyph glyph-name="guillemotleft" unicode="&#xab;" horiz-adv-x="262" 
d="M209 541h40l-88 -271l88 -270h-40l-88 270zM101 541h40l-88 -271l88 -270h-40l-88 270z" />
    <glyph glyph-name="logicalnot" unicode="&#xac;" 
d="M222 242h-37v89h-154v37h191v-126z" />
    <glyph glyph-name="uni00AD" unicode="&#xad;" horiz-adv-x="205" 
d="M178 252h-151v37h151v-37z" />
    <glyph glyph-name="registered" unicode="&#xae;" horiz-adv-x="439" 
d="M31 350q0 87 7 153.5t27.5 112t57.5 69t97 23.5q59 0 96 -23.5t57.5 -69t27.5 -112t7 -153.5t-7 -153.5t-27.5 -112t-57.5 -69t-96 -23.5q-60 0 -97 23.5t-57.5 69t-27.5 112t-7 153.5zM62 350q0 -78 5.5 -139t22 -103t47.5 -64.5t83 -22.5q51 0 82 22.5t47.5 64.5
t22 103t5.5 139t-5.5 139t-22 103t-47.5 64.5t-82 22.5q-52 0 -83 -22.5t-47.5 -64.5t-22 -103t-5.5 -139zM222 578q29 0 48.5 -15.5t19.5 -53.5v-100q0 -29 -10.5 -42.5t-26.5 -18.5q16 -5 26.5 -18t10.5 -42v-67q0 -29 1 -46.5t2.5 -27t4 -15t6.5 -10.5h-41q-3 8 -5 23
t-2 46v98q0 20 -10.5 32t-28.5 12h-31v-211h-34v456h70zM186 364h34q36 0 36 40v107q0 36 -36 36h-34v-183z" />
    <glyph glyph-name="macron" unicode="&#xaf;" horiz-adv-x="205" 
d="M28 602v28h149v-28h-149z" />
    <glyph glyph-name="degree" unicode="&#xb0;" horiz-adv-x="189" 
d="M95 690q32 0 55 -22t23 -55q0 -32 -23 -54.5t-55 -22.5q-33 0 -55.5 22.5t-22.5 54.5q0 33 22.5 55t55.5 22zM95 658q-20 0 -33 -12.5t-13 -32.5t13 -32.5t33 -12.5q19 0 32 12.5t13 32.5t-13 32.5t-32 12.5z" />
    <glyph glyph-name="plusminus" unicode="&#xb1;" 
d="M222 230h-191v37h77v75h-77v37h77v89h37v-89h77v-37h-77v-75h77v-37z" />
    <glyph glyph-name="uni00B2" unicode="&#xb2;" horiz-adv-x="188" 
d="M60 630h-32v74q0 40 17 57t49 17t49.5 -17t17.5 -57v-37q0 -45 -15.5 -77t-33.5 -61t-33.5 -59.5t-15.5 -71.5v-10h98v-32h-133v41q0 45 15.5 77.5t34 61.5t34 59.5t15.5 71.5v37q0 43 -34 43q-19 0 -26 -10.5t-7 -32.5v-74z" />
    <glyph glyph-name="uni00B3" unicode="&#xb3;" horiz-adv-x="188" 
d="M69 586h24q19 0 26 9t7 30v79q0 22 -7.5 32.5t-25.5 10.5q-19 0 -26.5 -10.5t-7.5 -32.5v-63h-32v63q0 40 17.5 57t49.5 17t49.5 -17t17.5 -57v-73q0 -29 -10.5 -42.5t-25.5 -18.5q15 -5 25.5 -19.5t10.5 -43.5v-84q0 -41 -17.5 -58t-49.5 -17t-49.5 17t-17.5 58v71h32
v-71q0 -23 7.5 -33.5t26.5 -10.5q18 0 25.5 10.5t7.5 33.5v91q0 22 -7 31.5t-26 9.5h-24v31z" />
    <glyph glyph-name="acute" unicode="&#xb4;" horiz-adv-x="205" 
d="M104 673h44l-65 -91h-26z" />
    <glyph glyph-name="uni00B5" unicode="&#xb5;" horiz-adv-x="269" 
d="M39 541h40v-449q0 -39 12.5 -52t36.5 -13q26 0 43.5 21.5t17.5 50.5v442h41v-418v-43t1 -32t2.5 -25t3.5 -23h-39q-3 10 -4.5 21.5t-2.5 24.5q-8 -23 -28 -38.5t-48 -15.5q-22 0 -36 7v-110h-40v652z" />
    <glyph glyph-name="paragraph" unicode="&#xb6;" horiz-adv-x="309" 
d="M267 -58h-37v723h-58v-723h-37v313h-5q-21 0 -41.5 4.5t-36.5 17t-26 34t-10 55.5v223q0 34 10 55.5t26 34t36.5 17t41.5 4.5h137v-758z" />
    <glyph glyph-name="periodcentered" unicode="&#xb7;" horiz-adv-x="127" 
d="M43 391h40v-81h-40v81z" />
    <glyph glyph-name="cedilla" unicode="&#xb8;" horiz-adv-x="205" 
d="M134 -75q0 14 -9.5 21t-34.5 6v48h17v-34q28 0 44 -9t16 -32q0 -20 -18 -32t-50 -12q-27 0 -44.5 10.5t-15.5 37.5h27q-2 -17 7 -24t27 -7q34 0 34 27z" />
    <glyph glyph-name="uni00B9" unicode="&#xb9;" horiz-adv-x="188" 
d="M80 746q25 0 28 24h19v-414h-35v358h-32v32h20z" />
    <glyph glyph-name="ordmasculine" unicode="&#xba;" horiz-adv-x="186" 
d="M161 390q0 -40 -17 -58t-51 -18t-51 18t-17 58v243q0 40 17 57.5t51 17.5t51 -17.5t17 -57.5v-243zM25 269h136v-36h-136v36zM127 633q0 23 -7.5 33.5t-26.5 10.5t-26.5 -10.5t-7.5 -33.5v-244q0 -22 7.5 -32.5t26.5 -10.5t26.5 10.5t7.5 32.5v244z" />
    <glyph glyph-name="guillemotright" unicode="&#xbb;" horiz-adv-x="262" 
d="M249 270l-88 -270h-40l88 270l-88 271h40zM141 270l-88 -270h-40l88 270l-88 271h40z" />
    <glyph glyph-name="onequarter" unicode="&#xbc;" horiz-adv-x="368" 
d="M269 700h32l-200 -700h-32zM50 676q25 0 28 24h19v-414h-35v358h-32v32h20zM330 132h20v-32h-20v-100h-34v100h-95v27l88 287h41v-282zM233 132h63v95q0 22 1 44.5t2 42.5t2 36.5t2 27.5q-2 -10 -6 -26t-9 -35t-11 -40t-12 -40z" />
    <glyph glyph-name="onehalf" unicode="&#xbd;" horiz-adv-x="398" 
d="M269 700h32l-200 -700h-32zM50 676q25 0 28 24h19v-414h-35v358h-32v32h20zM271 274h-32v74q0 40 17 57t49 17t49.5 -17t17.5 -57v-37q0 -45 -15.5 -77t-33.5 -61t-33.5 -59.5t-15.5 -71.5v-10h98v-32h-133v41q0 45 15.5 77.5t34 61.5t34 59.5t15.5 71.5v37q0 43 -34 43
q-19 0 -26 -10.5t-7 -32.5v-74z" />
    <glyph glyph-name="threequarters" unicode="&#xbe;" horiz-adv-x="398" 
d="M299 700h32l-200 -700h-32zM360 132h20v-32h-20v-100h-34v100h-95v27l88 287h41v-282zM263 132h63v95q0 22 1 44.5t2 42.5t2 36.5t2 27.5q-2 -10 -6 -26t-9 -35t-11 -40t-12 -40zM69 516h24q19 0 26 9t7 30v79q0 22 -7.5 32.5t-25.5 10.5q-19 0 -26.5 -10.5t-7.5 -32.5
v-63h-32v63q0 40 17.5 57t49.5 17t49.5 -17t17.5 -57v-73q0 -29 -10.5 -42.5t-25.5 -18.5q15 -5 25.5 -19.5t10.5 -43.5v-84q0 -41 -17.5 -58t-49.5 -17t-49.5 17t-17.5 58v71h32v-71q0 -23 7.5 -33.5t26.5 -10.5q18 0 25.5 10.5t7.5 33.5v91q0 22 -7 31.5t-26 9.5h-24v31z
" />
    <glyph glyph-name="questiondown" unicode="&#xbf;" horiz-adv-x="221" 
d="M205 141v-161q0 -56 -24.5 -81.5t-69.5 -25.5t-70 25.5t-25 81.5v75q0 45 6.5 76.5t17 55.5t22 44.5t22 43.5t17 52.5t6.5 71.5v44h23v-57q0 -44 -5.5 -74t-13.5 -53t-17.5 -42.5t-17.5 -42t-13.5 -52t-5.5 -72.5v-74q0 -32 12.5 -50t42.5 -18t42.5 18t12.5 50v165h38z
M139 486h-40v95h40v-95z" />
    <glyph glyph-name="Agrave" unicode="&#xc0;" horiz-adv-x="252" 
d="M182 106h-119l-13 -106h-40l88 700h55l88 -700h-45zM68 144h109l-31 248q-6 51 -12 109.5t-11 129.5q-5 -71 -11 -129.5t-12 -109.5zM156 730h-26l-65 91h43z" />
    <glyph glyph-name="Aacute" unicode="&#xc1;" horiz-adv-x="252" 
d="M182 106h-119l-13 -106h-40l88 700h55l88 -700h-45zM68 144h109l-31 248q-6 51 -12 109.5t-11 129.5q-5 -71 -11 -129.5t-12 -109.5zM143 821h44l-65 -91h-26z" />
    <glyph glyph-name="Acircumflex" unicode="&#xc2;" horiz-adv-x="252" 
d="M182 106h-119l-13 -106h-40l88 700h55l88 -700h-45zM68 144h109l-31 248q-6 51 -12 109.5t-11 129.5q-5 -71 -11 -129.5t-12 -109.5zM125 790l-47 -60h-26l57 91h32l58 -91h-27z" />
    <glyph glyph-name="Atilde" unicode="&#xc3;" horiz-adv-x="252" 
d="M182 106h-119l-13 -106h-40l88 700h55l88 -700h-45zM68 144h109l-31 248q-6 51 -12 109.5t-11 129.5q-5 -71 -11 -129.5t-12 -109.5zM204 799q-3 -56 -47 -56q-11 0 -19.5 3.5t-16.5 8t-15.5 8.5t-16.5 4q-11 0 -14.5 -8t-4.5 -18h-23q3 56 46 56q11 0 20 -4t17 -8.5
t15.5 -8.5t15.5 -4q11 0 14.5 8.5t5.5 18.5h23z" />
    <glyph glyph-name="Adieresis" unicode="&#xc4;" horiz-adv-x="252" 
d="M182 106h-119l-13 -106h-40l88 700h55l88 -700h-45zM68 144h109l-31 248q-6 51 -12 109.5t-11 129.5q-5 -71 -11 -129.5t-12 -109.5zM62 740v58h39v-58h-39zM150 740v58h39v-58h-39z" />
    <glyph glyph-name="Aring" unicode="&#xc5;" horiz-adv-x="252" 
d="M182 106h-119l-13 -106h-40l88 700h55l88 -700h-45zM68 144h109l-31 248q-6 51 -12 109.5t-11 129.5q-5 -71 -11 -129.5t-12 -109.5zM76 780q0 21 14.5 35.5t34.5 14.5q21 0 35.5 -14.5t14.5 -35.5t-14.5 -35.5t-35.5 -14.5q-20 0 -34.5 14.5t-14.5 35.5zM98 780
q0 -13 7.5 -20.5t19.5 -7.5t19.5 7.5t7.5 20.5t-7.5 20.5t-19.5 7.5t-19.5 -7.5t-7.5 -20.5z" />
    <glyph glyph-name="AE" unicode="&#xc6;" horiz-adv-x="337" 
d="M149 106h-84l-19 -106h-40l129 700h179v-39h-120v-277h108v-39h-108v-306h123v-39h-168v106zM72 144h77v208q0 63 1.5 132.5t3.5 136.5q-9 -66 -18.5 -125.5t-19.5 -113.5z" />
    <glyph glyph-name="Ccedilla" unicode="&#xc7;" horiz-adv-x="266" 
d="M163 -75q0 14 -9.5 21t-34.5 6v41q-42 4 -65 30t-23 83v488q0 61 27.5 87.5t75.5 26.5t75.5 -26.5t27.5 -87.5v-151h-42v155q0 35 -14 53t-46 18t-46 -18t-14 -53v-496q0 -35 14 -53t46 -18t46 18t14 53v174h42v-170q0 -60 -26.5 -86.5t-74.5 -27.5v-26q28 0 44 -9
t16 -32q0 -20 -18 -32t-50 -12q-27 0 -44.5 10.5t-15.5 37.5h27q-2 -17 7 -24t27 -7q34 0 34 27z" />
    <glyph glyph-name="Egrave" unicode="&#xc8;" horiz-adv-x="230" 
d="M86 39h124v-39h-168v700h165v-39h-121v-277h109v-39h-109v-306zM155 730h-26l-65 91h43z" />
    <glyph glyph-name="Eacute" unicode="&#xc9;" horiz-adv-x="230" 
d="M86 39h124v-39h-168v700h165v-39h-121v-277h109v-39h-109v-306zM143 821h44l-65 -91h-26z" />
    <glyph glyph-name="Ecircumflex" unicode="&#xca;" horiz-adv-x="230" 
d="M86 39h124v-39h-168v700h165v-39h-121v-277h109v-39h-109v-306zM124 790l-47 -60h-26l57 91h32l58 -91h-27z" />
    <glyph glyph-name="Edieresis" unicode="&#xcb;" horiz-adv-x="230" 
d="M86 39h124v-39h-168v700h165v-39h-121v-277h109v-39h-109v-306zM61 740v58h39v-58h-39zM149 740v58h39v-58h-39z" />
    <glyph glyph-name="Igrave" unicode="&#xcc;" horiz-adv-x="126" 
d="M41 700h44v-700h-44v700zM93 730h-26l-65 91h43z" />
    <glyph glyph-name="Iacute" unicode="&#xcd;" horiz-adv-x="126" 
d="M41 700h44v-700h-44v700zM81 821h44l-65 -91h-26z" />
    <glyph glyph-name="Icircumflex" unicode="&#xce;" horiz-adv-x="126" 
d="M41 700h44v-700h-44v700zM63 790l-47 -60h-26l57 91h32l58 -91h-27z" />
    <glyph glyph-name="Idieresis" unicode="&#xcf;" horiz-adv-x="126" 
d="M41 700h44v-700h-44v700zM0 740v58h39v-58h-39zM88 740v58h39v-58h-39z" />
    <glyph glyph-name="Eth" unicode="&#xd0;" horiz-adv-x="282" 
d="M42 348h-27v34h27v318h89q21 0 41.5 -4.5t36.5 -17t25.5 -34.5t9.5 -56v-476q0 -35 -9.5 -56.5t-25.5 -34t-36.5 -17t-41.5 -4.5h-89v348zM87 348v-309h39q41 0 57.5 16t16.5 56v478q0 40 -16.5 56t-57.5 16h-39v-279h61v-34h-61z" />
    <glyph glyph-name="Ntilde" unicode="&#xd1;" horiz-adv-x="293" 
d="M252 700v-700h-44l-104 478q-3 16 -7 35.5t-7.5 40.5t-7.5 42.5t-8 40.5q1 -19 2 -41t1.5 -44t1 -42t0.5 -35v-475h-38v700h59l89 -408q3 -15 7 -35.5t7.5 -42.5t7.5 -44t8 -41q-1 19 -2 41.5t-1.5 45t-1 43t-0.5 35.5v406h38zM224 799q-3 -56 -47 -56q-11 0 -19.5 3.5
t-16.5 8t-15.5 8.5t-16.5 4q-11 0 -14.5 -8t-4.5 -18h-23q3 56 46 56q11 0 20 -4t17 -8.5t15.5 -8.5t15.5 -4q11 0 14.5 8.5t5.5 18.5h23z" />
    <glyph glyph-name="Ograve" unicode="&#xd2;" horiz-adv-x="270" 
d="M31 594q0 61 27.5 87.5t76.5 26.5t77 -26.5t28 -87.5v-488q0 -61 -28 -87.5t-77 -26.5t-76.5 26.5t-27.5 87.5v488zM75 102q0 -35 14 -53t46 -18t46 18t14 53v496q0 35 -14 53t-46 18t-46 -18t-14 -53v-496zM164 730h-26l-65 91h43z" />
    <glyph glyph-name="Oacute" unicode="&#xd3;" horiz-adv-x="270" 
d="M31 594q0 61 27.5 87.5t76.5 26.5t77 -26.5t28 -87.5v-488q0 -61 -28 -87.5t-77 -26.5t-76.5 26.5t-27.5 87.5v488zM75 102q0 -35 14 -53t46 -18t46 18t14 53v496q0 35 -14 53t-46 18t-46 -18t-14 -53v-496zM152 821h44l-65 -91h-26z" />
    <glyph glyph-name="Ocircumflex" unicode="&#xd4;" horiz-adv-x="270" 
d="M31 594q0 61 27.5 87.5t76.5 26.5t77 -26.5t28 -87.5v-488q0 -61 -28 -87.5t-77 -26.5t-76.5 26.5t-27.5 87.5v488zM75 102q0 -35 14 -53t46 -18t46 18t14 53v496q0 35 -14 53t-46 18t-46 -18t-14 -53v-496zM135 790l-47 -60h-26l57 91h32l58 -91h-27z" />
    <glyph glyph-name="Otilde" unicode="&#xd5;" horiz-adv-x="270" 
d="M31 594q0 61 27.5 87.5t76.5 26.5t77 -26.5t28 -87.5v-488q0 -61 -28 -87.5t-77 -26.5t-76.5 26.5t-27.5 87.5v488zM75 102q0 -35 14 -53t46 -18t46 18t14 53v496q0 35 -14 53t-46 18t-46 -18t-14 -53v-496zM213 799q-3 -56 -47 -56q-11 0 -19.5 3.5t-16.5 8t-15.5 8.5
t-16.5 4q-11 0 -14.5 -8t-4.5 -18h-23q3 56 46 56q11 0 20 -4t17 -8.5t15.5 -8.5t15.5 -4q11 0 14.5 8.5t5.5 18.5h23z" />
    <glyph glyph-name="Odieresis" unicode="&#xd6;" horiz-adv-x="270" 
d="M31 594q0 61 27.5 87.5t76.5 26.5t77 -26.5t28 -87.5v-488q0 -61 -28 -87.5t-77 -26.5t-76.5 26.5t-27.5 87.5v488zM75 102q0 -35 14 -53t46 -18t46 18t14 53v496q0 35 -14 53t-46 18t-46 -18t-14 -53v-496zM72 740v58h39v-58h-39zM160 740v58h39v-58h-39z" />
    <glyph glyph-name="multiply" unicode="&#xd7;" 
d="M221 418l-70 -69l70 -68l-26 -27l-69 70l-68 -68l-26 25l69 68l-69 69l26 25l68 -69l69 70z" />
    <glyph glyph-name="Oslash" unicode="&#xd8;" horiz-adv-x="270" 
d="M31 594q0 61 27.5 87.5t76.5 26.5q18 0 33.5 -3t27.5 -11l10 42l32 -8l-14 -63q16 -27 16 -71v-488q0 -61 -28 -87.5t-77 -26.5q-37 0 -60 13l-9 -41l-33 8l14 62q-16 26 -16 72v488zM75 153l110 492q-14 24 -50 24q-32 0 -46 -18t-14 -53v-445zM135 31q32 0 46 18t14 53
v440l-109 -489q13 -22 49 -22z" />
    <glyph glyph-name="Ugrave" unicode="&#xd9;" horiz-adv-x="279" 
d="M81 98q0 -34 14 -50.5t46 -16.5t46 16.5t14 50.5v602h42v-599q0 -58 -27.5 -83.5t-75.5 -25.5t-75.5 25.5t-27.5 83.5v599h44v-602zM169 730h-26l-65 91h43z" />
    <glyph glyph-name="Uacute" unicode="&#xda;" horiz-adv-x="279" 
d="M81 98q0 -34 14 -50.5t46 -16.5t46 16.5t14 50.5v602h42v-599q0 -58 -27.5 -83.5t-75.5 -25.5t-75.5 25.5t-27.5 83.5v599h44v-602zM157 821h44l-65 -91h-26z" />
    <glyph glyph-name="Ucircumflex" unicode="&#xdb;" horiz-adv-x="279" 
d="M81 98q0 -34 14 -50.5t46 -16.5t46 16.5t14 50.5v602h42v-599q0 -58 -27.5 -83.5t-75.5 -25.5t-75.5 25.5t-27.5 83.5v599h44v-602zM139 790l-47 -60h-26l57 91h32l58 -91h-27z" />
    <glyph glyph-name="Udieresis" unicode="&#xdc;" horiz-adv-x="279" 
d="M81 98q0 -34 14 -50.5t46 -16.5t46 16.5t14 50.5v602h42v-599q0 -58 -27.5 -83.5t-75.5 -25.5t-75.5 25.5t-27.5 83.5v599h44v-602zM76 740v58h39v-58h-39zM164 740v58h39v-58h-39z" />
    <glyph glyph-name="Yacute" unicode="&#xdd;" horiz-adv-x="255" 
d="M205 700h40l-94 -455v-245h-45v241l-95 459h45l48 -241q7 -35 14.5 -77.5t12.5 -85.5q5 43 12 85.5t14 77.5zM145 821h44l-65 -91h-26z" />
    <glyph glyph-name="Thorn" unicode="&#xde;" horiz-adv-x="258" 
d="M86 700v-58h42q22 0 42.5 -4.5t36.5 -17.5t25.5 -35t9.5 -56v-190q0 -35 -9.5 -56.5t-25.5 -34t-36.5 -17t-42.5 -4.5h-42v-227h-44v700h44zM86 266h38q40 0 57 16t17 56v192q0 41 -17 57t-57 16h-38v-337z" />
    <glyph glyph-name="germandbls" unicode="&#xdf;" horiz-adv-x="258" 
d="M230 512q0 -79 -61 -94q61 -13 61 -92v-247q0 -43 -18.5 -64t-62.5 -21q-9 0 -19 1.5t-18 4.5v34q10 -3 16.5 -4t14.5 -1q28 0 37 12.5t9 42.5v253q0 64 -64 64h-13v34h13q64 0 64 64v109q0 32 -12.5 48.5t-42.5 16.5q-29 0 -42 -16.5t-13 -48.5v-608h-40v605
q0 56 25 79.5t70 23.5q46 0 71 -23.5t25 -79.5v-93z" />
    <glyph glyph-name="agrave" unicode="&#xe0;" 
d="M186 0q-3 10 -4.5 21.5t-2.5 24.5q-8 -23 -28 -38.5t-48 -15.5q-16 0 -30 4t-24 15t-16 29t-6 47v70q0 40 11 66.5t28 44.5t36 31t36 26t28 28.5t11 40.5v55q0 32 -11.5 48.5t-40.5 16.5t-40.5 -16.5t-11.5 -48.5v-97h-38v93q0 56 23.5 80t67.5 24q45 0 68.5 -24
t23.5 -80v-322v-43t1 -32t2.5 -25t3.5 -23h-39zM177 315q-14 -17 -33 -29.5t-36 -28t-29 -37.5t-12 -59v-72q0 -38 12.5 -50t36.5 -12q26 0 43.5 21.5t17.5 50.5v216zM156 582h-26l-65 91h43z" />
    <glyph glyph-name="aacute" unicode="&#xe1;" 
d="M186 0q-3 10 -4.5 21.5t-2.5 24.5q-8 -23 -28 -38.5t-48 -15.5q-16 0 -30 4t-24 15t-16 29t-6 47v70q0 40 11 66.5t28 44.5t36 31t36 26t28 28.5t11 40.5v55q0 32 -11.5 48.5t-40.5 16.5t-40.5 -16.5t-11.5 -48.5v-97h-38v93q0 56 23.5 80t67.5 24q45 0 68.5 -24
t23.5 -80v-322v-43t1 -32t2.5 -25t3.5 -23h-39zM177 315q-14 -17 -33 -29.5t-36 -28t-29 -37.5t-12 -59v-72q0 -38 12.5 -50t36.5 -12q26 0 43.5 21.5t17.5 50.5v216zM144 673h44l-65 -91h-26z" />
    <glyph glyph-name="acircumflex" unicode="&#xe2;" 
d="M186 0q-3 10 -4.5 21.5t-2.5 24.5q-8 -23 -28 -38.5t-48 -15.5q-16 0 -30 4t-24 15t-16 29t-6 47v70q0 40 11 66.5t28 44.5t36 31t36 26t28 28.5t11 40.5v55q0 32 -11.5 48.5t-40.5 16.5t-40.5 -16.5t-11.5 -48.5v-97h-38v93q0 56 23.5 80t67.5 24q45 0 68.5 -24
t23.5 -80v-322v-43t1 -32t2.5 -25t3.5 -23h-39zM177 315q-14 -17 -33 -29.5t-36 -28t-29 -37.5t-12 -59v-72q0 -38 12.5 -50t36.5 -12q26 0 43.5 21.5t17.5 50.5v216zM126 642l-47 -60h-26l57 91h32l58 -91h-27z" />
    <glyph glyph-name="atilde" unicode="&#xe3;" 
d="M186 0q-3 10 -4.5 21.5t-2.5 24.5q-8 -23 -28 -38.5t-48 -15.5q-16 0 -30 4t-24 15t-16 29t-6 47v70q0 40 11 66.5t28 44.5t36 31t36 26t28 28.5t11 40.5v55q0 32 -11.5 48.5t-40.5 16.5t-40.5 -16.5t-11.5 -48.5v-97h-38v93q0 56 23.5 80t67.5 24q45 0 68.5 -24
t23.5 -80v-322v-43t1 -32t2.5 -25t3.5 -23h-39zM177 315q-14 -17 -33 -29.5t-36 -28t-29 -37.5t-12 -59v-72q0 -38 12.5 -50t36.5 -12q26 0 43.5 21.5t17.5 50.5v216zM205 651q-3 -56 -47 -56q-11 0 -19.5 3.5t-16.5 8t-15.5 8.5t-16.5 4q-11 0 -14.5 -8t-4.5 -18h-23
q3 56 46 56q11 0 20 -4t17 -8.5t15.5 -8.5t15.5 -4q11 0 14.5 8.5t5.5 18.5h23z" />
    <glyph glyph-name="adieresis" unicode="&#xe4;" 
d="M186 0q-3 10 -4.5 21.5t-2.5 24.5q-8 -23 -28 -38.5t-48 -15.5q-16 0 -30 4t-24 15t-16 29t-6 47v70q0 40 11 66.5t28 44.5t36 31t36 26t28 28.5t11 40.5v55q0 32 -11.5 48.5t-40.5 16.5t-40.5 -16.5t-11.5 -48.5v-97h-38v93q0 56 23.5 80t67.5 24q45 0 68.5 -24
t23.5 -80v-322v-43t1 -32t2.5 -25t3.5 -23h-39zM177 315q-14 -17 -33 -29.5t-36 -28t-29 -37.5t-12 -59v-72q0 -38 12.5 -50t36.5 -12q26 0 43.5 21.5t17.5 50.5v216zM63 592v58h39v-58h-39zM151 592v58h39v-58h-39z" />
    <glyph glyph-name="aring" unicode="&#xe5;" 
d="M186 0q-3 10 -4.5 21.5t-2.5 24.5q-8 -23 -28 -38.5t-48 -15.5q-16 0 -30 4t-24 15t-16 29t-6 47v70q0 40 11 66.5t28 44.5t36 31t36 26t28 28.5t11 40.5v55q0 32 -11.5 48.5t-40.5 16.5t-40.5 -16.5t-11.5 -48.5v-97h-38v93q0 56 23.5 80t67.5 24q45 0 68.5 -24
t23.5 -80v-322v-43t1 -32t2.5 -25t3.5 -23h-39zM177 315q-14 -17 -33 -29.5t-36 -28t-29 -37.5t-12 -59v-72q0 -38 12.5 -50t36.5 -12q26 0 43.5 21.5t17.5 50.5v216zM77 632q0 21 14.5 35.5t34.5 14.5q21 0 35.5 -14.5t14.5 -35.5t-14.5 -35.5t-35.5 -14.5
q-20 0 -34.5 14.5t-14.5 35.5zM99 632q0 -13 7.5 -20.5t19.5 -7.5t19.5 7.5t7.5 20.5t-7.5 20.5t-19.5 7.5t-19.5 -7.5t-7.5 -20.5z" />
    <glyph glyph-name="ae" unicode="&#xe6;" horiz-adv-x="395" 
d="M116 27q26 0 43.5 21.5t17.5 50.5v216q-14 -17 -33 -29.5t-36 -28t-29 -37.5t-12 -59v-72q0 -38 12.5 -50t36.5 -12zM218 266v-173q0 -32 12.5 -49t42.5 -17t42.5 17t12.5 49v107h38v-103q0 -56 -24.5 -80.5t-69.5 -24.5q-35 0 -58.5 15t-31.5 47q-7 -26 -28 -44t-51 -18
q-16 0 -30 4t-24 15t-16 29t-6 47v70q0 40 11 66.5t28 44.5t36 31t36 26t28 28.5t11 40.5v55q0 32 -11.5 48.5t-40.5 16.5q-30 0 -41 -16.5t-11 -48.5v-97h-38v92q0 56 21.5 80.5t66.5 24.5q56 0 75 -43q19 43 78 43q45 0 67.5 -24.5t22.5 -80.5v-178h-148zM218 301h110v149
q0 32 -12.5 48t-42.5 16q-29 0 -42 -16t-13 -48v-149z" />
    <glyph glyph-name="ccedilla" unicode="&#xe7;" horiz-adv-x="247" 
d="M155 -75q0 14 -9.5 21t-34.5 6v41q-38 3 -59 27.5t-21 75.5v349q0 55 24.5 79.5t69.5 24.5t70 -24.5t25 -79.5v-101h-39v105q0 32 -12.5 48.5t-42.5 16.5q-29 0 -42 -16.5t-13 -48.5v-357q0 -32 13 -48.5t42 -16.5q30 0 42.5 16.5t12.5 48.5v114h39v-110q0 -54 -24 -78.5
t-68 -25.5v-26q28 0 44 -9t16 -32q0 -20 -18 -32t-50 -12q-27 0 -44.5 10.5t-15.5 37.5h27q-2 -17 7 -24t27 -7q34 0 34 27z" />
    <glyph glyph-name="egrave" unicode="&#xe8;" horiz-adv-x="249" 
d="M71 266v-174q0 -32 13 -48.5t42 -16.5q30 0 42.5 16.5t12.5 48.5v108h39v-104q0 -55 -25 -79.5t-70 -24.5t-69.5 24.5t-24.5 79.5v349q0 55 24.5 79.5t69.5 24.5t70 -24.5t25 -79.5v-179h-149zM71 301h110v148q0 32 -12.5 48.5t-42.5 16.5q-29 0 -42 -16.5t-13 -48.5
v-148zM156 582h-26l-65 91h43z" />
    <glyph glyph-name="eacute" unicode="&#xe9;" horiz-adv-x="249" 
d="M71 266v-174q0 -32 13 -48.5t42 -16.5q30 0 42.5 16.5t12.5 48.5v108h39v-104q0 -55 -25 -79.5t-70 -24.5t-69.5 24.5t-24.5 79.5v349q0 55 24.5 79.5t69.5 24.5t70 -24.5t25 -79.5v-179h-149zM71 301h110v148q0 32 -12.5 48.5t-42.5 16.5q-29 0 -42 -16.5t-13 -48.5
v-148zM144 673h44l-65 -91h-26z" />
    <glyph glyph-name="ecircumflex" unicode="&#xea;" horiz-adv-x="249" 
d="M71 266v-174q0 -32 13 -48.5t42 -16.5q30 0 42.5 16.5t12.5 48.5v108h39v-104q0 -55 -25 -79.5t-70 -24.5t-69.5 24.5t-24.5 79.5v349q0 55 24.5 79.5t69.5 24.5t70 -24.5t25 -79.5v-179h-149zM71 301h110v148q0 32 -12.5 48.5t-42.5 16.5q-29 0 -42 -16.5t-13 -48.5
v-148zM126 642l-47 -60h-26l57 91h32l58 -91h-27z" />
    <glyph glyph-name="edieresis" unicode="&#xeb;" horiz-adv-x="249" 
d="M71 266v-174q0 -32 13 -48.5t42 -16.5q30 0 42.5 16.5t12.5 48.5v108h39v-104q0 -55 -25 -79.5t-70 -24.5t-69.5 24.5t-24.5 79.5v349q0 55 24.5 79.5t69.5 24.5t70 -24.5t25 -79.5v-179h-149zM71 301h110v148q0 32 -12.5 48.5t-42.5 16.5q-29 0 -42 -16.5t-13 -48.5
v-148zM63 592v58h39v-58h-39zM151 592v58h39v-58h-39z" />
    <glyph glyph-name="igrave" unicode="&#xec;" horiz-adv-x="118" 
d="M89 582h-26l-65 91h43zM39 0v541h40v-541h-40z" />
    <glyph glyph-name="iacute" unicode="&#xed;" horiz-adv-x="118" 
d="M77 673h44l-65 -91h-26zM39 0v541h40v-541h-40z" />
    <glyph glyph-name="icircumflex" unicode="&#xee;" horiz-adv-x="118" 
d="M39 0v541h40v-541h-40zM59 642l-47 -60h-26l57 91h32l58 -91h-27z" />
    <glyph glyph-name="idieresis" unicode="&#xef;" horiz-adv-x="118" 
d="M-4 592v58h39v-58h-39zM84 592v58h39v-58h-39zM39 0v541h40v-541h-40z" />
    <glyph glyph-name="eth" unicode="&#xf0;" horiz-adv-x="257" 
d="M105 607l48 49q-16 10 -44 10h-19l7 34h17q41 0 66 -17l17 17h32l-32 -32q25 -31 25 -90v-482q0 -55 -25 -79.5t-71 -24.5q-45 0 -70 24.5t-25 79.5v355q0 29 6 48t16 30t24 15.5t30 4.5q26 0 45 -14t29 -35v77q0 21 -2.5 36.5t-9.5 26.5l-49 -49zM181 442
q0 29 -17.5 50.5t-43.5 21.5q-24 0 -36.5 -13t-12.5 -52v-357q0 -32 13 -48.5t42 -16.5q30 0 42.5 16.5t12.5 48.5v350z" />
    <glyph glyph-name="ntilde" unicode="&#xf1;" horiz-adv-x="265" 
d="M39 0v541h38v-49q8 24 28 40.5t49 16.5q16 0 30 -4.5t24 -15.5t16 -30t6 -48v-451h-41v449q0 39 -12 52t-36 13q-26 0 -44 -21.5t-18 -50.5v-442h-40zM211 651q-3 -56 -47 -56q-11 0 -19.5 3.5t-16.5 8t-15.5 8.5t-16.5 4q-11 0 -14.5 -8t-4.5 -18h-23q3 56 46 56
q11 0 20 -4t17 -8.5t15.5 -8.5t15.5 -4q11 0 14.5 8.5t5.5 18.5h23z" />
    <glyph glyph-name="ograve" unicode="&#xf2;" 
d="M222 96q0 -55 -25 -79.5t-71 -24.5q-45 0 -70 24.5t-25 79.5v349q0 55 25 79.5t70 24.5q46 0 71 -24.5t25 -79.5v-349zM181 449q0 32 -12.5 48.5t-42.5 16.5q-29 0 -42 -16.5t-13 -48.5v-357q0 -32 13 -48.5t42 -16.5q30 0 42.5 16.5t12.5 48.5v357zM156 582h-26l-65 91
h43z" />
    <glyph glyph-name="oacute" unicode="&#xf3;" 
d="M222 96q0 -55 -25 -79.5t-71 -24.5q-45 0 -70 24.5t-25 79.5v349q0 55 25 79.5t70 24.5q46 0 71 -24.5t25 -79.5v-349zM181 449q0 32 -12.5 48.5t-42.5 16.5q-29 0 -42 -16.5t-13 -48.5v-357q0 -32 13 -48.5t42 -16.5q30 0 42.5 16.5t12.5 48.5v357zM143 673h44l-65 -91
h-26z" />
    <glyph glyph-name="ocircumflex" unicode="&#xf4;" 
d="M222 96q0 -55 -25 -79.5t-71 -24.5q-45 0 -70 24.5t-25 79.5v349q0 55 25 79.5t70 24.5q46 0 71 -24.5t25 -79.5v-349zM181 449q0 32 -12.5 48.5t-42.5 16.5q-29 0 -42 -16.5t-13 -48.5v-357q0 -32 13 -48.5t42 -16.5q30 0 42.5 16.5t12.5 48.5v357zM126 642l-47 -60h-26
l57 91h32l58 -91h-27z" />
    <glyph glyph-name="otilde" unicode="&#xf5;" 
d="M222 96q0 -55 -25 -79.5t-71 -24.5q-45 0 -70 24.5t-25 79.5v349q0 55 25 79.5t70 24.5q46 0 71 -24.5t25 -79.5v-349zM181 449q0 32 -12.5 48.5t-42.5 16.5q-29 0 -42 -16.5t-13 -48.5v-357q0 -32 13 -48.5t42 -16.5q30 0 42.5 16.5t12.5 48.5v357zM205 651
q-3 -56 -47 -56q-11 0 -19.5 3.5t-16.5 8t-15.5 8.5t-16.5 4q-11 0 -14.5 -8t-4.5 -18h-23q3 56 46 56q11 0 20 -4t17 -8.5t15.5 -8.5t15.5 -4q11 0 14.5 8.5t5.5 18.5h23z" />
    <glyph glyph-name="odieresis" unicode="&#xf6;" 
d="M222 96q0 -55 -25 -79.5t-71 -24.5q-45 0 -70 24.5t-25 79.5v349q0 55 25 79.5t70 24.5q46 0 71 -24.5t25 -79.5v-349zM181 449q0 32 -12.5 48.5t-42.5 16.5q-29 0 -42 -16.5t-13 -48.5v-357q0 -32 13 -48.5t42 -16.5q30 0 42.5 16.5t12.5 48.5v357zM63 592v58h39v-58
h-39zM151 592v58h39v-58h-39z" />
    <glyph glyph-name="divide" unicode="&#xf7;" 
d="M91 439q0 15 10 25t25 10t25.5 -10t10.5 -25t-10.5 -25t-25.5 -10t-25 10t-10 25zM91 255q0 15 10 25.5t25 10.5t25.5 -10.5t10.5 -25.5t-10.5 -25t-25.5 -10t-25 10t-10 25zM222 331h-191v37h191v-37z" />
    <glyph glyph-name="oslash" unicode="&#xf8;" 
d="M222 96q0 -55 -25 -79.5t-71 -24.5q-34 0 -55 12l-11 -41l-29 9l15 57q-15 24 -15 67v349q0 55 25 79.5t70 24.5q33 0 55 -13l11 42l30 -10l-16 -56q16 -27 16 -67v-349zM71 118l99 377q-14 19 -44 19q-29 0 -42 -16.5t-13 -48.5v-331zM126 27q30 0 42.5 16.5t12.5 48.5
v329l-99 -375q13 -19 44 -19z" />
    <glyph glyph-name="ugrave" unicode="&#xf9;" horiz-adv-x="265" 
d="M186 541h41v-418v-43t1 -32t2.5 -25t3.5 -23h-39q-3 10 -4.5 21.5t-2.5 24.5q-8 -23 -28 -38.5t-48 -15.5q-16 0 -30 4.5t-24.5 15.5t-16.5 30t-6 48v451h41v-449q0 -39 12.5 -52t36.5 -13q26 0 43.5 21.5t17.5 50.5v442zM162 582h-26l-65 91h43z" />
    <glyph glyph-name="uacute" unicode="&#xfa;" horiz-adv-x="265" 
d="M186 541h41v-418v-43t1 -32t2.5 -25t3.5 -23h-39q-3 10 -4.5 21.5t-2.5 24.5q-8 -23 -28 -38.5t-48 -15.5q-16 0 -30 4.5t-24.5 15.5t-16.5 30t-6 48v451h41v-449q0 -39 12.5 -52t36.5 -13q26 0 43.5 21.5t17.5 50.5v442zM150 673h44l-65 -91h-26z" />
    <glyph glyph-name="ucircumflex" unicode="&#xfb;" horiz-adv-x="265" 
d="M186 541h41v-418v-43t1 -32t2.5 -25t3.5 -23h-39q-3 10 -4.5 21.5t-2.5 24.5q-8 -23 -28 -38.5t-48 -15.5q-16 0 -30 4.5t-24.5 15.5t-16.5 30t-6 48v451h41v-449q0 -39 12.5 -52t36.5 -13q26 0 43.5 21.5t17.5 50.5v442zM132 642l-47 -60h-26l57 91h32l58 -91h-27z" />
    <glyph glyph-name="udieresis" unicode="&#xfc;" horiz-adv-x="265" 
d="M186 541h41v-418v-43t1 -32t2.5 -25t3.5 -23h-39q-3 10 -4.5 21.5t-2.5 24.5q-8 -23 -28 -38.5t-48 -15.5q-16 0 -30 4.5t-24.5 15.5t-16.5 30t-6 48v451h41v-449q0 -39 12.5 -52t36.5 -13q26 0 43.5 21.5t17.5 50.5v442zM69 592v58h39v-58h-39zM157 592v58h39v-58h-39z
" />
    <glyph glyph-name="yacute" unicode="&#xfd;" horiz-adv-x="241" 
d="M36 -80q12 -5 26 -5q17 0 25.5 7.5t11.5 25.5q2 12 1 25.5t-3 27.5l-87 540h41l52 -332q7 -40 11.5 -81.5t7.5 -77.5q4 35 9 77t11 82l52 332h37l-93 -590q-5 -32 -20 -51t-50 -19q-11 0 -19 1.5t-13 3.5v34zM136 673h44l-65 -91h-26z" />
    <glyph glyph-name="thorn" unicode="&#xfe;" horiz-adv-x="261" 
d="M79 99q0 -29 18 -50.5t44 -21.5q24 0 36 13t12 52v357q0 39 -12 52t-36 13q-26 0 -44 -21.5t-18 -50.5v-343zM230 90q0 -29 -6 -48t-16 -30t-24 -15.5t-30 -4.5q-27 0 -46.5 14.5t-28.5 35.5v-153h-40v811h40v-202q9 22 28.5 36.5t46.5 14.5q16 0 30 -4.5t24 -15.5
t16 -30t6 -48v-361z" />
    <glyph glyph-name="ydieresis" unicode="&#xff;" horiz-adv-x="241" 
d="M36 -80q12 -5 26 -5q17 0 25.5 7.5t11.5 25.5q2 12 1 25.5t-3 27.5l-87 540h41l52 -332q7 -40 11.5 -81.5t7.5 -77.5q4 35 9 77t11 82l52 332h37l-93 -590q-5 -32 -20 -51t-50 -19q-11 0 -19 1.5t-13 3.5v34zM59 592v58h39v-58h-39zM147 592v58h39v-58h-39z" />
    <glyph glyph-name="Amacron" unicode="&#x100;" horiz-adv-x="252" 
d="M182 106h-119l-13 -106h-40l88 700h55l88 -700h-45zM68 144h109l-31 248q-6 51 -12 109.5t-11 129.5q-5 -71 -11 -129.5t-12 -109.5zM51 750v28h149v-28h-149z" />
    <glyph glyph-name="amacron" unicode="&#x101;" 
d="M186 0q-3 10 -4.5 21.5t-2.5 24.5q-8 -23 -28 -38.5t-48 -15.5q-16 0 -30 4t-24 15t-16 29t-6 47v70q0 40 11 66.5t28 44.5t36 31t36 26t28 28.5t11 40.5v55q0 32 -11.5 48.5t-40.5 16.5t-40.5 -16.5t-11.5 -48.5v-97h-38v93q0 56 23.5 80t67.5 24q45 0 68.5 -24
t23.5 -80v-322v-43t1 -32t2.5 -25t3.5 -23h-39zM177 315q-14 -17 -33 -29.5t-36 -28t-29 -37.5t-12 -59v-72q0 -38 12.5 -50t36.5 -12q26 0 43.5 21.5t17.5 50.5v216zM52 602v28h149v-28h-149z" />
    <glyph glyph-name="Abreve" unicode="&#x102;" horiz-adv-x="252" 
d="M182 106h-119l-13 -106h-40l88 700h55l88 -700h-45zM68 144h109l-31 248q-6 51 -12 109.5t-11 129.5q-5 -71 -11 -129.5t-12 -109.5zM125 770q24 0 37.5 12t13.5 36h23q0 -31 -17 -54t-57 -23q-39 0 -56 23t-17 54h23q0 -24 13.5 -36t36.5 -12z" />
    <glyph glyph-name="abreve" unicode="&#x103;" 
d="M186 0q-3 10 -4.5 21.5t-2.5 24.5q-8 -23 -28 -38.5t-48 -15.5q-16 0 -30 4t-24 15t-16 29t-6 47v70q0 40 11 66.5t28 44.5t36 31t36 26t28 28.5t11 40.5v55q0 32 -11.5 48.5t-40.5 16.5t-40.5 -16.5t-11.5 -48.5v-97h-38v93q0 56 23.5 80t67.5 24q45 0 68.5 -24
t23.5 -80v-322v-43t1 -32t2.5 -25t3.5 -23h-39zM177 315q-14 -17 -33 -29.5t-36 -28t-29 -37.5t-12 -59v-72q0 -38 12.5 -50t36.5 -12q26 0 43.5 21.5t17.5 50.5v216zM126 622q24 0 37.5 12t13.5 36h23q0 -31 -17 -54t-57 -23q-39 0 -56 23t-17 54h23q0 -24 13.5 -36
t36.5 -12z" />
    <glyph glyph-name="Aogonek" unicode="&#x104;" horiz-adv-x="252" 
d="M182 106h-119l-13 -106h-40l88 700h55l88 -700h-15q-29 -16 -41 -32.5t-12 -33.5q0 -31 35 -31q16 0 33 7v-21q-21 -8 -43 -8t-39 10.5t-17 34.5q0 13 5.5 24.5t14 20.5t19 16.5t19.5 12.5h-4zM68 144h109l-31 248q-6 51 -12 109.5t-11 129.5q-5 -71 -11 -129.5
t-12 -109.5z" />
    <glyph glyph-name="aogonek" unicode="&#x105;" 
d="M227 -111q-21 -8 -43 -8t-39 10.5t-17 34.5q0 13 5.5 24.5t14 20.5t19 16.5t19.5 12.5q-3 10 -4.5 21.5t-2.5 24.5q-8 -23 -28 -38.5t-48 -15.5q-16 0 -30 4t-24 15t-16 29t-6 47v70q0 40 11 66.5t28 44.5t36 31t36 26t28 28.5t11 40.5v55q0 32 -11.5 48.5t-40.5 16.5
t-40.5 -16.5t-11.5 -48.5v-97h-38v93q0 56 23.5 80t67.5 24q45 0 68.5 -24t23.5 -80v-322v-43t1 -32t2.5 -25t3.5 -23h-13q-29 -16 -41 -32.5t-12 -33.5q0 -31 35 -31q16 0 33 7v-21zM177 315q-14 -17 -33 -29.5t-36 -28t-29 -37.5t-12 -59v-72q0 -38 12.5 -50t36.5 -12
q26 0 43.5 21.5t17.5 50.5v216z" />
    <glyph glyph-name="Cacute" unicode="&#x106;" horiz-adv-x="266" 
d="M75 102q0 -35 14 -53t46 -18t46 18t14 53v174h42v-170q0 -61 -27.5 -87.5t-75.5 -26.5t-75.5 26.5t-27.5 87.5v488q0 61 27.5 87.5t75.5 26.5t75.5 -26.5t27.5 -87.5v-151h-42v155q0 35 -14 53t-46 18t-46 -18t-14 -53v-496zM152 821h44l-65 -91h-26z" />
    <glyph glyph-name="cacute" unicode="&#x107;" horiz-adv-x="247" 
d="M181 344v105q0 32 -12.5 48.5t-42.5 16.5q-29 0 -42 -16.5t-13 -48.5v-357q0 -32 13 -48.5t42 -16.5q30 0 42.5 16.5t12.5 48.5v114h39v-110q0 -55 -25 -79.5t-70 -24.5t-69.5 24.5t-24.5 79.5v349q0 55 24.5 79.5t69.5 24.5t70 -24.5t25 -79.5v-101h-39zM144 673h44
l-65 -91h-26z" />
    <glyph glyph-name="Ccircumflex" unicode="&#x108;" horiz-adv-x="266" 
d="M75 102q0 -35 14 -53t46 -18t46 18t14 53v174h42v-170q0 -61 -27.5 -87.5t-75.5 -26.5t-75.5 26.5t-27.5 87.5v488q0 61 27.5 87.5t75.5 26.5t75.5 -26.5t27.5 -87.5v-151h-42v155q0 35 -14 53t-46 18t-46 -18t-14 -53v-496zM134 790l-47 -60h-26l57 91h32l58 -91h-27z
" />
    <glyph glyph-name="ccircumflex" unicode="&#x109;" horiz-adv-x="247" 
d="M181 344v105q0 32 -12.5 48.5t-42.5 16.5q-29 0 -42 -16.5t-13 -48.5v-357q0 -32 13 -48.5t42 -16.5q30 0 42.5 16.5t12.5 48.5v114h39v-110q0 -55 -25 -79.5t-70 -24.5t-69.5 24.5t-24.5 79.5v349q0 55 24.5 79.5t69.5 24.5t70 -24.5t25 -79.5v-101h-39zM126 642
l-47 -60h-26l57 91h32l58 -91h-27z" />
    <glyph glyph-name="Cdotaccent" unicode="&#x10a;" horiz-adv-x="266" 
d="M75 102q0 -35 14 -53t46 -18t46 18t14 53v174h42v-170q0 -61 -27.5 -87.5t-75.5 -26.5t-75.5 26.5t-27.5 87.5v488q0 61 27.5 87.5t75.5 26.5t75.5 -26.5t27.5 -87.5v-151h-42v155q0 35 -14 53t-46 18t-46 -18t-14 -53v-496zM115 740v58h39v-58h-39z" />
    <glyph glyph-name="cdotaccent" unicode="&#x10b;" horiz-adv-x="247" 
d="M181 344v105q0 32 -12.5 48.5t-42.5 16.5q-29 0 -42 -16.5t-13 -48.5v-357q0 -32 13 -48.5t42 -16.5q30 0 42.5 16.5t12.5 48.5v114h39v-110q0 -55 -25 -79.5t-70 -24.5t-69.5 24.5t-24.5 79.5v349q0 55 24.5 79.5t69.5 24.5t70 -24.5t25 -79.5v-101h-39zM107 592v58h39
v-58h-39z" />
    <glyph glyph-name="Ccaron" unicode="&#x10c;" horiz-adv-x="266" 
d="M75 102q0 -35 14 -53t46 -18t46 18t14 53v174h42v-170q0 -61 -27.5 -87.5t-75.5 -26.5t-75.5 26.5t-27.5 87.5v488q0 61 27.5 87.5t75.5 26.5t75.5 -26.5t27.5 -87.5v-151h-42v155q0 35 -14 53t-46 18t-46 -18t-14 -53v-496zM181 821h27l-58 -91h-32l-57 91h26l47 -59z
" />
    <glyph glyph-name="ccaron" unicode="&#x10d;" horiz-adv-x="247" 
d="M181 344v105q0 32 -12.5 48.5t-42.5 16.5q-29 0 -42 -16.5t-13 -48.5v-357q0 -32 13 -48.5t42 -16.5q30 0 42.5 16.5t12.5 48.5v114h39v-110q0 -55 -25 -79.5t-70 -24.5t-69.5 24.5t-24.5 79.5v349q0 55 24.5 79.5t69.5 24.5t70 -24.5t25 -79.5v-101h-39zM173 673h27
l-58 -91h-32l-57 91h26l47 -59z" />
    <glyph glyph-name="Dcaron" unicode="&#x10e;" horiz-adv-x="282" 
d="M42 700h89q21 0 41.5 -4.5t36.5 -17t25.5 -34.5t9.5 -56v-476q0 -35 -9.5 -56.5t-25.5 -34t-36.5 -17t-41.5 -4.5h-89v700zM86 661v-622h40q41 0 57.5 16t16.5 56v478q0 40 -16.5 56t-57.5 16h-40zM178 821h27l-58 -91h-32l-57 91h26l47 -59z" />
    <glyph glyph-name="dcaron" unicode="&#x10f;" horiz-adv-x="323" 
d="M272 700h40v-79l-43 -70l-7 3l29 67h-19v79zM182 442q0 29 -18 50.5t-44 21.5q-24 0 -36 -13t-12 -52v-357q0 -39 12 -52t36 -13q26 0 44 21.5t18 50.5v343zM190 0q-3 10 -4.5 21.5t-2.5 24.5q-8 -23 -28 -38.5t-48 -15.5q-16 0 -30 4.5t-24 15.5t-16 30t-6 48v361
q0 29 6 48t16 30t24 15.5t30 4.5q26 0 46 -14.5t29 -36.5v202h40v-577q0 -50 1.5 -75t6.5 -48h-40z" />
    <glyph glyph-name="Dcroat" unicode="&#x110;" horiz-adv-x="282" 
d="M42 348h-27v34h27v318h89q21 0 41.5 -4.5t36.5 -17t25.5 -34.5t9.5 -56v-476q0 -35 -9.5 -56.5t-25.5 -34t-36.5 -17t-41.5 -4.5h-89v348zM86 661v-279h62v-34h-62v-309h40q41 0 57.5 16t16.5 56v478q0 40 -16.5 56t-57.5 16h-40z" />
    <glyph glyph-name="dcroat" unicode="&#x111;" horiz-adv-x="261" 
d="M190 0q-3 10 -4.5 21.5t-2.5 24.5q-8 -23 -28 -38.5t-48 -15.5q-16 0 -30 4.5t-24 15.5t-16 30t-6 48v361q0 29 6 48t16 30t24 15.5t30 4.5q26 0 46 -14.5t29 -36.5v101h-67v30h67v71h40v-71h31v-30h-31v-476q0 -50 1.5 -75t6.5 -48h-40zM182 442q0 29 -18 50.5t-44 21.5
q-24 0 -36 -13t-12 -52v-357q0 -39 12 -52t36 -13q26 0 44 21.5t18 50.5v343z" />
    <glyph glyph-name="Emacron" unicode="&#x112;" horiz-adv-x="230" 
d="M86 39h124v-39h-168v700h165v-39h-121v-277h109v-39h-109v-306zM50 750v28h149v-28h-149z" />
    <glyph glyph-name="emacron" unicode="&#x113;" horiz-adv-x="249" 
d="M71 266v-174q0 -32 13 -48.5t42 -16.5q30 0 42.5 16.5t12.5 48.5v108h39v-104q0 -55 -25 -79.5t-70 -24.5t-69.5 24.5t-24.5 79.5v349q0 55 24.5 79.5t69.5 24.5t70 -24.5t25 -79.5v-179h-149zM71 301h110v148q0 32 -12.5 48.5t-42.5 16.5q-29 0 -42 -16.5t-13 -48.5
v-148zM52 602v28h149v-28h-149z" />
    <glyph glyph-name="Ebreve" unicode="&#x114;" horiz-adv-x="230" 
d="M86 39h124v-39h-168v700h165v-39h-121v-277h109v-39h-109v-306zM124 770q24 0 37.5 12t13.5 36h23q0 -31 -17 -54t-57 -23q-39 0 -56 23t-17 54h23q0 -24 13.5 -36t36.5 -12z" />
    <glyph glyph-name="ebreve" unicode="&#x115;" horiz-adv-x="249" 
d="M71 266v-174q0 -32 13 -48.5t42 -16.5q30 0 42.5 16.5t12.5 48.5v108h39v-104q0 -55 -25 -79.5t-70 -24.5t-69.5 24.5t-24.5 79.5v349q0 55 24.5 79.5t69.5 24.5t70 -24.5t25 -79.5v-179h-149zM71 301h110v148q0 32 -12.5 48.5t-42.5 16.5q-29 0 -42 -16.5t-13 -48.5
v-148zM126 622q24 0 37.5 12t13.5 36h23q0 -31 -17 -54t-57 -23q-39 0 -56 23t-17 54h23q0 -24 13.5 -36t36.5 -12z" />
    <glyph glyph-name="Edotaccent" unicode="&#x116;" horiz-adv-x="230" 
d="M86 39h124v-39h-168v700h165v-39h-121v-277h109v-39h-109v-306zM105 740v58h39v-58h-39z" />
    <glyph glyph-name="edotaccent" unicode="&#x117;" horiz-adv-x="249" 
d="M71 266v-174q0 -32 13 -48.5t42 -16.5q30 0 42.5 16.5t12.5 48.5v108h39v-104q0 -55 -25 -79.5t-70 -24.5t-69.5 24.5t-24.5 79.5v349q0 55 24.5 79.5t69.5 24.5t70 -24.5t25 -79.5v-179h-149zM71 301h110v148q0 32 -12.5 48.5t-42.5 16.5q-29 0 -42 -16.5t-13 -48.5
v-148zM107 592v58h39v-58h-39z" />
    <glyph glyph-name="Eogonek" unicode="&#x118;" horiz-adv-x="230" 
d="M210 -111q-10 -4 -20 -6t-22 -2q-23 0 -40 10t-17 34q0 28 18 45t45 30h-132v700h165v-39h-121v-277h109v-39h-109v-306h124v-39h-11q-32 -17 -44.5 -33t-12.5 -33q0 -31 36 -31q15 0 32 7v-21z" />
    <glyph glyph-name="eogonek" unicode="&#x119;" horiz-adv-x="249" 
d="M218 -111q-21 -8 -43 -8q-24 0 -41.5 11.5t-17.5 37.5q0 23 11 39t23 25q-6 -1 -12 -1.5t-13 -0.5q-45 0 -69.5 24.5t-24.5 79.5v349q0 55 24.5 79.5t69.5 24.5t70 -24.5t25 -79.5v-179h-149v-174q0 -32 13 -48.5t42 -16.5q30 0 42.5 16.5t12.5 48.5v108h39v-104
q0 -36 -11.5 -59t-31.5 -34q-16 -14 -23 -30t-7 -33q0 -37 38 -37q15 0 33 7v-21zM71 301h110v148q0 32 -12.5 48.5t-42.5 16.5q-29 0 -42 -16.5t-13 -48.5v-148z" />
    <glyph glyph-name="Ecaron" unicode="&#x11a;" horiz-adv-x="230" 
d="M86 39h124v-39h-168v700h165v-39h-121v-277h109v-39h-109v-306zM171 821h27l-58 -91h-32l-57 91h26l47 -59z" />
    <glyph glyph-name="ecaron" unicode="&#x11b;" horiz-adv-x="249" 
d="M71 266v-174q0 -32 13 -48.5t42 -16.5q30 0 42.5 16.5t12.5 48.5v108h39v-104q0 -55 -25 -79.5t-70 -24.5t-69.5 24.5t-24.5 79.5v349q0 55 24.5 79.5t69.5 24.5t70 -24.5t25 -79.5v-179h-149zM71 301h110v148q0 32 -12.5 48.5t-42.5 16.5q-29 0 -42 -16.5t-13 -48.5
v-148zM173 673h27l-58 -91h-32l-57 91h26l47 -59z" />
    <glyph glyph-name="Gcircumflex" unicode="&#x11c;" horiz-adv-x="269" 
d="M195 340h-60v38h103v-378h-23l-4 43q-11 -27 -33 -39t-52 -12q-43 0 -69 25.5t-26 88.5v488q0 61 27.5 87.5t75.5 26.5t75.5 -26.5t27.5 -87.5v-145h-42v149q0 35 -14 53t-46 18t-46 -18t-14 -53v-496q0 -35 14 -53t46 -18t46 18t14 53v238zM134 790l-47 -60h-26l57 91
h32l58 -91h-27z" />
    <glyph glyph-name="gcircumflex" unicode="&#x11d;" horiz-adv-x="258" 
d="M30 -46q0 44 31 61q-22 15 -22 47q0 19 8 32t19 19q-38 23 -38 90v244q0 55 24.5 78.5t69.5 23.5q59 0 80 -40q2 14 9 23t22 9q11 0 16 -2v-34q-10 2 -16 2q-14 0 -14 -25v-279q0 -56 -25 -79.5t-70 -23.5q-19 0 -32 3q-9 -3 -13.5 -11.5t-4.5 -17.5q0 -11 7 -20t22 -9
h59q43 0 65 -18t22 -64q0 -43 -23.5 -62.5t-65.5 -19.5h-48q-45 0 -63.5 20t-18.5 53zM179 450q0 32 -13 48.5t-42 16.5q-30 0 -42.5 -16.5t-12.5 -48.5v-251q0 -32 12.5 -48.5t42.5 -16.5q29 0 42 16.5t13 48.5v251zM158 -88q24 0 38 10.5t14 36.5q0 29 -12.5 37.5
t-36.5 8.5h-56q-24 0 -33 -14t-9 -31q0 -23 11.5 -35.5t43.5 -12.5h40zM128 642l-47 -60h-26l57 91h32l58 -91h-27z" />
    <glyph glyph-name="Gbreve" unicode="&#x11e;" horiz-adv-x="269" 
d="M195 340h-60v38h103v-378h-23l-4 43q-11 -27 -33 -39t-52 -12q-43 0 -69 25.5t-26 88.5v488q0 61 27.5 87.5t75.5 26.5t75.5 -26.5t27.5 -87.5v-145h-42v149q0 35 -14 53t-46 18t-46 -18t-14 -53v-496q0 -35 14 -53t46 -18t46 18t14 53v238zM134 770q24 0 37.5 12
t13.5 36h23q0 -31 -17 -54t-57 -23q-39 0 -56 23t-17 54h23q0 -24 13.5 -36t36.5 -12z" />
    <glyph glyph-name="gbreve" unicode="&#x11f;" horiz-adv-x="258" 
d="M30 -46q0 44 31 61q-22 15 -22 47q0 19 8 32t19 19q-38 23 -38 90v244q0 55 24.5 78.5t69.5 23.5q59 0 80 -40q2 14 9 23t22 9q11 0 16 -2v-34q-10 2 -16 2q-14 0 -14 -25v-279q0 -56 -25 -79.5t-70 -23.5q-19 0 -32 3q-9 -3 -13.5 -11.5t-4.5 -17.5q0 -11 7 -20t22 -9
h59q43 0 65 -18t22 -64q0 -43 -23.5 -62.5t-65.5 -19.5h-48q-45 0 -63.5 20t-18.5 53zM179 450q0 32 -13 48.5t-42 16.5q-30 0 -42.5 -16.5t-12.5 -48.5v-251q0 -32 12.5 -48.5t42.5 -16.5q29 0 42 16.5t13 48.5v251zM158 -88q24 0 38 10.5t14 36.5q0 29 -12.5 37.5
t-36.5 8.5h-56q-24 0 -33 -14t-9 -31q0 -23 11.5 -35.5t43.5 -12.5h40zM128 622q24 0 37.5 12t13.5 36h23q0 -31 -17 -54t-57 -23q-39 0 -56 23t-17 54h23q0 -24 13.5 -36t36.5 -12z" />
    <glyph glyph-name="Gdotaccent" unicode="&#x120;" horiz-adv-x="269" 
d="M195 340h-60v38h103v-378h-23l-4 43q-11 -27 -33 -39t-52 -12q-43 0 -69 25.5t-26 88.5v488q0 61 27.5 87.5t75.5 26.5t75.5 -26.5t27.5 -87.5v-145h-42v149q0 35 -14 53t-46 18t-46 -18t-14 -53v-496q0 -35 14 -53t46 -18t46 18t14 53v238zM115 740v58h39v-58h-39z" />
    <glyph glyph-name="gdotaccent" unicode="&#x121;" horiz-adv-x="258" 
d="M30 -46q0 44 31 61q-22 15 -22 47q0 19 8 32t19 19q-38 23 -38 90v244q0 55 24.5 78.5t69.5 23.5q59 0 80 -40q2 14 9 23t22 9q11 0 16 -2v-34q-10 2 -16 2q-14 0 -14 -25v-279q0 -56 -25 -79.5t-70 -23.5q-19 0 -32 3q-9 -3 -13.5 -11.5t-4.5 -17.5q0 -11 7 -20t22 -9
h59q43 0 65 -18t22 -64q0 -43 -23.5 -62.5t-65.5 -19.5h-48q-45 0 -63.5 20t-18.5 53zM179 450q0 32 -13 48.5t-42 16.5q-30 0 -42.5 -16.5t-12.5 -48.5v-251q0 -32 12.5 -48.5t42.5 -16.5q29 0 42 16.5t13 48.5v251zM158 -88q24 0 38 10.5t14 36.5q0 29 -12.5 37.5
t-36.5 8.5h-56q-24 0 -33 -14t-9 -31q0 -23 11.5 -35.5t43.5 -12.5h40zM109 592v58h39v-58h-39z" />
    <glyph glyph-name="Gcommaaccent" unicode="&#x122;" horiz-adv-x="269" 
d="M195 340h-60v38h103v-378h-23l-4 43q-11 -27 -33 -39t-52 -12q-43 0 -69 25.5t-26 88.5v488q0 61 27.5 87.5t75.5 26.5t75.5 -26.5t27.5 -87.5v-145h-42v149q0 35 -14 53t-46 18t-46 -18t-14 -53v-496q0 -35 14 -53t46 -18t46 18t14 53v238zM119 -41h39v-59l-42 -67l-6 3
l27 64h-18v59z" />
    <glyph glyph-name="gcommaaccent" unicode="&#x123;" horiz-adv-x="258" 
d="M148 592h-39v58l42 68l6 -3l-27 -65h18v-58zM30 -46q0 44 31 61q-22 15 -22 47q0 19 8 32t19 19q-38 23 -38 90v244q0 55 24.5 78.5t69.5 23.5q59 0 80 -40q2 14 9 23t22 9q11 0 16 -2v-34q-10 2 -16 2q-14 0 -14 -25v-279q0 -56 -25 -79.5t-70 -23.5q-19 0 -32 3
q-9 -3 -13.5 -11.5t-4.5 -17.5q0 -11 7 -20t22 -9h59q43 0 65 -18t22 -64q0 -43 -23.5 -62.5t-65.5 -19.5h-48q-45 0 -63.5 20t-18.5 53zM179 450q0 32 -13 48.5t-42 16.5q-30 0 -42.5 -16.5t-12.5 -48.5v-251q0 -32 12.5 -48.5t42.5 -16.5q29 0 42 16.5t13 48.5v251z
M158 -88q24 0 38 10.5t14 36.5q0 29 -12.5 37.5t-36.5 8.5h-56q-24 0 -33 -14t-9 -31q0 -23 11.5 -35.5t43.5 -12.5h40z" />
    <glyph glyph-name="Hcircumflex" unicode="&#x124;" horiz-adv-x="293" 
d="M86 0h-44v700h44v-316h120v316h45v-700h-45v345h-120v-345zM146 790l-47 -60h-26l57 91h32l58 -91h-27z" />
    <glyph glyph-name="hcircumflex" unicode="&#x125;" horiz-adv-x="265" 
d="M189 0v449q0 39 -12 52t-36 13q-26 0 -44 -21.5t-18 -50.5v-442h-40v700h40v-202q9 22 28.5 36.5t46.5 14.5q16 0 30 -4.5t24 -15.5t16 -30t6 -48v-451h-41zM59 790l-47 -60h-26l57 91h32l58 -91h-27z" />
    <glyph glyph-name="Hbar" unicode="&#x126;" horiz-adv-x="293" 
d="M86 0h-44v524h-27v34h27v142h44v-142h120v142h45v-142h27v-34h-27v-524h-45v345h-120v-345zM206 384v140h-120v-140h120z" />
    <glyph glyph-name="hbar" unicode="&#x127;" horiz-adv-x="266" 
d="M189 0v449q0 39 -12 52t-36 13q-26 0 -44 -21.5t-18 -50.5v-442h-40v599h-31v30h31v71h40v-71h67v-30h-67v-101q9 22 28.5 36.5t46.5 14.5q16 0 30 -4.5t24 -15.5t16 -30t6 -48v-451h-41z" />
    <glyph glyph-name="Itilde" unicode="&#x128;" horiz-adv-x="126" 
d="M41 700h44v-700h-44v700zM142 799q-3 -56 -47 -56q-11 0 -19.5 3.5t-16.5 8t-15.5 8.5t-16.5 4q-11 0 -14.5 -8t-4.5 -18h-23q3 56 46 56q11 0 20 -4t17 -8.5t15.5 -8.5t15.5 -4q11 0 14.5 8.5t5.5 18.5h23z" />
    <glyph glyph-name="itilde" unicode="&#x129;" horiz-adv-x="118" 
d="M137 651q-3 -56 -47 -56q-11 0 -19.5 3.5t-16.5 8t-15.5 8.5t-16.5 4q-11 0 -14.5 -8t-4.5 -18h-23q3 56 46 56q11 0 20 -4t17 -8.5t15.5 -8.5t15.5 -4q11 0 14.5 8.5t5.5 18.5h23zM39 0v541h40v-541h-40z" />
    <glyph glyph-name="Imacron" unicode="&#x12a;" horiz-adv-x="126" 
d="M41 700h44v-700h-44v700zM-11 750v28h149v-28h-149z" />
    <glyph glyph-name="imacron" unicode="&#x12b;" horiz-adv-x="118" 
d="M-16 602v28h149v-28h-149zM39 0v541h40v-541h-40z" />
    <glyph glyph-name="Ibreve" unicode="&#x12c;" horiz-adv-x="126" 
d="M41 700h44v-700h-44v700zM63 770q24 0 37.5 12t13.5 36h23q0 -31 -17 -54t-57 -23q-39 0 -56 23t-17 54h23q0 -24 13.5 -36t36.5 -12z" />
    <glyph glyph-name="ibreve" unicode="&#x12d;" horiz-adv-x="118" 
d="M59 622q24 0 37.5 12t13.5 36h23q0 -31 -17 -54t-57 -23q-39 0 -56 23t-17 54h23q0 -24 13.5 -36t36.5 -12zM39 0v541h40v-541h-40z" />
    <glyph glyph-name="Iogonek" unicode="&#x12e;" horiz-adv-x="126" 
d="M41 700h44v-700h-17q-15 -16 -21.5 -30t-6.5 -30q0 -37 38 -37q16 0 33 7v-21q-21 -8 -43 -8q-24 0 -41.5 11.5t-17.5 37.5q0 25 14 42.5t25 27.5h-7v700z" />
    <glyph glyph-name="iogonek" unicode="&#x12f;" horiz-adv-x="118" 
d="M105 -111q-21 -8 -43 -8q-24 0 -41.5 11.5t-17.5 37.5q0 25 14 42.5t25 27.5h-3v541h40v-541h-17q-15 -16 -21.5 -30t-6.5 -30q0 -37 38 -37q16 0 33 7v-21zM39 612v68h40v-68h-40z" />
    <glyph glyph-name="Idotaccent" unicode="&#x130;" horiz-adv-x="126" 
d="M41 700h44v-700h-44v700zM44 740v58h39v-58h-39z" />
    <glyph glyph-name="dotlessi" unicode="&#x131;" horiz-adv-x="118" 
d="M39 0v541h40v-541h-40z" />
    <glyph glyph-name="IJ" unicode="&#x132;" horiz-adv-x="377" 
d="M41 700h44v-700h-44v700zM341 101q0 -58 -27.5 -83.5t-76.5 -25.5q-48 0 -75 25.5t-27 83.5v173h41v-176q0 -34 14 -50.5t46 -16.5t46 16.5t14 50.5v602h45v-599z" />
    <glyph glyph-name="ij" unicode="&#x133;" horiz-adv-x="236" 
d="M39 0v541h40v-541h-40zM39 612v68h40v-68h-40zM157 612v68h40v-68h-40zM137 -119q-19 0 -29 5v34q8 -4 23 -4q26 0 26 35v590h40v-592q0 -36 -14 -52t-46 -16z" />
    <glyph glyph-name="Jcircumflex" unicode="&#x134;" horiz-adv-x="252" 
d="M215 101q0 -58 -27.5 -83.5t-76.5 -25.5q-48 0 -75 25.5t-27 83.5v173h41v-176q0 -34 14 -50.5t46 -16.5t46 16.5t14 50.5v602h45v-599zM192 790l-47 -60h-26l57 91h32l58 -91h-27z" />
    <glyph glyph-name="jcircumflex" unicode="&#x135;" horiz-adv-x="118" 
d="M19 -119q-19 0 -29 5v34q8 -4 23 -4q26 0 26 35v590h40v-592q0 -36 -14 -52t-46 -16zM59 642l-47 -60h-26l57 91h32l58 -91h-27z" />
    <glyph glyph-name="Kcommaaccent" unicode="&#x136;" horiz-adv-x="273" 
d="M86 318q8 29 22.5 67t34.5 95l78 220h42l-100 -281l104 -419h-46l-87 358l-48 -129v-229h-45v700h45v-382zM130 -41h39v-59l-42 -67l-6 3l27 64h-18v59z" />
    <glyph glyph-name="kcommaaccent" unicode="&#x137;" horiz-adv-x="258" 
d="M79 247q9 27 22 54.5t30 67.5l74 172h38l-95 -217l103 -324h-42l-86 274l-44 -95v-179h-40v700h40v-453zM125 -41h39v-59l-42 -67l-6 3l27 64h-18v59z" />
    <glyph glyph-name="kgreenlandic" unicode="&#x138;" horiz-adv-x="258" 
d="M79 247q9 27 21.5 55t30.5 67l74 172h38l-95 -217l103 -324h-42l-86 274l-44 -95v-179h-40v541h40v-294z" />
    <glyph glyph-name="Lacute" unicode="&#x139;" horiz-adv-x="204" 
d="M42 700h44v-661h117v-39h-161v700zM104 821h44l-65 -91h-26z" />
    <glyph glyph-name="lacute" unicode="&#x13a;" horiz-adv-x="118" 
d="M39 0v700h40v-700h-40zM77 821h44l-65 -91h-26z" />
    <glyph glyph-name="Lcommaaccent" unicode="&#x13b;" horiz-adv-x="204" 
d="M42 700h44v-661h117v-39h-161v700zM103 -41h39v-59l-42 -67l-6 3l27 64h-18v59z" />
    <glyph glyph-name="lcommaaccent" unicode="&#x13c;" horiz-adv-x="118" 
d="M39 0v700h40v-700h-40zM40 -41h39v-59l-42 -67l-6 3l27 64h-18v59z" />
    <glyph glyph-name="Lcaron" unicode="&#x13d;" horiz-adv-x="209" 
d="M149 700h39v-79l-43 -70l-6 3l29 67h-19v79zM42 700h44v-661h117v-39h-161v700z" />
    <glyph glyph-name="lcaron" unicode="&#x13e;" horiz-adv-x="185" 
d="M130 700h39v-79l-43 -70l-6 3l28 67h-18v79zM39 0v700h40v-700h-40z" />
    <glyph glyph-name="Ldot" unicode="&#x13f;" horiz-adv-x="209" 
d="M149 404h39v-78h-39v78zM42 700h44v-661h117v-39h-161v700z" />
    <glyph glyph-name="ldot" unicode="&#x140;" horiz-adv-x="185" 
d="M130 389h39v-78h-39v78zM39 0v700h40v-700h-40z" />
    <glyph glyph-name="Lslash" unicode="&#x141;" horiz-adv-x="204" 
d="M42 204l-27 -27v44l27 27v452h45v-408l85 85v-43l-85 -85v-210h117v-39h-162v204z" />
    <glyph glyph-name="lslash" unicode="&#x142;" horiz-adv-x="118" 
d="M39 0v275l-34 -34v41l34 34v384h41v-343l33 33v-41l-33 -33v-316h-41z" />
    <glyph glyph-name="Nacute" unicode="&#x143;" horiz-adv-x="293" 
d="M252 700v-700h-44l-104 478q-3 16 -7 35.5t-7.5 40.5t-7.5 42.5t-8 40.5q1 -19 2 -41t1.5 -44t1 -42t0.5 -35v-475h-38v700h59l89 -408q3 -15 7 -35.5t7.5 -42.5t7.5 -44t8 -41q-1 19 -2 41.5t-1.5 45t-1 43t-0.5 35.5v406h38zM164 821h44l-65 -91h-26z" />
    <glyph glyph-name="nacute" unicode="&#x144;" horiz-adv-x="265" 
d="M39 0v541h38v-49q8 24 28 40.5t49 16.5q16 0 30 -4.5t24 -15.5t16 -30t6 -48v-451h-41v449q0 39 -12 52t-36 13q-26 0 -44 -21.5t-18 -50.5v-442h-40zM150 673h44l-65 -91h-26z" />
    <glyph glyph-name="Ncommaaccent" unicode="&#x145;" horiz-adv-x="293" 
d="M252 700v-700h-44l-104 478q-3 16 -7 35.5t-7.5 40.5t-7.5 42.5t-8 40.5q1 -19 2 -41t1.5 -44t1 -42t0.5 -35v-475h-38v700h59l89 -408q3 -15 7 -35.5t7.5 -42.5t7.5 -44t8 -41q-1 19 -2 41.5t-1.5 45t-1 43t-0.5 35.5v406h38zM127 -41h39v-59l-42 -67l-6 3l27 64h-18v59
z" />
    <glyph glyph-name="ncommaaccent" unicode="&#x146;" horiz-adv-x="265" 
d="M39 0v541h38v-49q8 24 28 40.5t49 16.5q16 0 30 -4.5t24 -15.5t16 -30t6 -48v-451h-41v449q0 39 -12 52t-36 13q-26 0 -44 -21.5t-18 -50.5v-442h-40zM116 -41h39v-59l-42 -67l-6 3l27 64h-18v59z" />
    <glyph glyph-name="Ncaron" unicode="&#x147;" horiz-adv-x="293" 
d="M252 700v-700h-44l-104 478q-3 16 -7 35.5t-7.5 40.5t-7.5 42.5t-8 40.5q1 -19 2 -41t1.5 -44t1 -42t0.5 -35v-475h-38v700h59l89 -408q3 -15 7 -35.5t7.5 -42.5t7.5 -44t8 -41q-1 19 -2 41.5t-1.5 45t-1 43t-0.5 35.5v406h38zM193 821h27l-58 -91h-32l-57 91h26l47 -59z
" />
    <glyph glyph-name="ncaron" unicode="&#x148;" horiz-adv-x="265" 
d="M39 0v541h38v-49q8 24 28 40.5t49 16.5q16 0 30 -4.5t24 -15.5t16 -30t6 -48v-451h-41v449q0 39 -12 52t-36 13q-26 0 -44 -21.5t-18 -50.5v-442h-40zM179 673h27l-58 -91h-32l-57 91h26l47 -59z" />
    <glyph glyph-name="napostrophe" unicode="&#x149;" horiz-adv-x="305" 
d="M17 700h39v-79l-43 -70l-6 3l28 67h-18v79zM78 0v541h38v-49q8 24 28 40.5t49 16.5q16 0 30 -4.5t24 -15.5t16 -30t6 -48v-451h-41v449q0 39 -12 52t-36 13q-26 0 -44 -21.5t-18 -50.5v-442h-40z" />
    <glyph glyph-name="Omacron" unicode="&#x14c;" horiz-adv-x="270" 
d="M31 594q0 61 27.5 87.5t76.5 26.5t77 -26.5t28 -87.5v-488q0 -61 -28 -87.5t-77 -26.5t-76.5 26.5t-27.5 87.5v488zM75 102q0 -35 14 -53t46 -18t46 18t14 53v496q0 35 -14 53t-46 18t-46 -18t-14 -53v-496zM60 750v28h149v-28h-149z" />
    <glyph glyph-name="omacron" unicode="&#x14d;" 
d="M222 96q0 -55 -25 -79.5t-71 -24.5q-45 0 -70 24.5t-25 79.5v349q0 55 25 79.5t70 24.5q46 0 71 -24.5t25 -79.5v-349zM181 449q0 32 -12.5 48.5t-42.5 16.5q-29 0 -42 -16.5t-13 -48.5v-357q0 -32 13 -48.5t42 -16.5q30 0 42.5 16.5t12.5 48.5v357zM52 602v28h149v-28
h-149z" />
    <glyph glyph-name="Obreve" unicode="&#x14e;" horiz-adv-x="270" 
d="M31 594q0 61 27.5 87.5t76.5 26.5t77 -26.5t28 -87.5v-488q0 -61 -28 -87.5t-77 -26.5t-76.5 26.5t-27.5 87.5v488zM75 102q0 -35 14 -53t46 -18t46 18t14 53v496q0 35 -14 53t-46 18t-46 -18t-14 -53v-496zM135 770q24 0 37.5 12t13.5 36h23q0 -31 -17 -54t-57 -23
q-39 0 -56 23t-17 54h23q0 -24 13.5 -36t36.5 -12z" />
    <glyph glyph-name="obreve" unicode="&#x14f;" 
d="M222 96q0 -55 -25 -79.5t-71 -24.5q-45 0 -70 24.5t-25 79.5v349q0 55 25 79.5t70 24.5q46 0 71 -24.5t25 -79.5v-349zM181 449q0 32 -12.5 48.5t-42.5 16.5q-29 0 -42 -16.5t-13 -48.5v-357q0 -32 13 -48.5t42 -16.5q30 0 42.5 16.5t12.5 48.5v357zM126 622
q24 0 37.5 12t13.5 36h23q0 -31 -17 -54t-57 -23q-39 0 -56 23t-17 54h23q0 -24 13.5 -36t36.5 -12z" />
    <glyph glyph-name="Ohungarumlaut" unicode="&#x150;" horiz-adv-x="270" 
d="M31 594q0 61 27.5 87.5t76.5 26.5t77 -26.5t28 -87.5v-488q0 -61 -28 -87.5t-77 -26.5t-76.5 26.5t-27.5 87.5v488zM75 102q0 -35 14 -53t46 -18t46 18t14 53v496q0 35 -14 53t-46 18t-46 -18t-14 -53v-496zM193 821h39l-58 -91h-24zM112 821h39l-58 -91h-24z" />
    <glyph glyph-name="ohungarumlaut" unicode="&#x151;" 
d="M222 96q0 -55 -25 -79.5t-71 -24.5q-45 0 -70 24.5t-25 79.5v349q0 55 25 79.5t70 24.5q46 0 71 -24.5t25 -79.5v-349zM181 449q0 32 -12.5 48.5t-42.5 16.5q-29 0 -42 -16.5t-13 -48.5v-357q0 -32 13 -48.5t42 -16.5q30 0 42.5 16.5t12.5 48.5v357zM185 673h39l-58 -91
h-24zM104 673h39l-58 -91h-24z" />
    <glyph glyph-name="OE" unicode="&#x152;" horiz-adv-x="383" 
d="M240 39h123v-39h-212q-21 0 -41.5 4.5t-36.5 17t-26 34t-10 56.5v476q0 34 10 56t26 34.5t36.5 17t41.5 4.5h209v-39h-120v-277h108v-39h-108v-306zM195 661h-39q-41 0 -57.5 -16t-16.5 -56v-478q0 -40 16.5 -56t57.5 -16h39v622z" />
    <glyph glyph-name="oe" unicode="&#x153;" horiz-adv-x="400" 
d="M222 266v-174q0 -32 13 -48.5t42 -16.5q30 0 42.5 16.5t12.5 48.5v108h39v-104q0 -55 -23 -79.5t-67 -24.5q-30 0 -49.5 10.5t-29.5 35.5q-10 -25 -30 -35.5t-49 -10.5q-45 0 -68.5 24.5t-23.5 79.5v349q0 55 23.5 79.5t68.5 24.5q60 0 79 -46q19 46 79 46q44 0 67 -24.5
t23 -79.5v-179h-149zM182 449q0 32 -13 48.5t-42 16.5q-30 0 -43 -16.5t-13 -48.5v-357q0 -32 13 -48.5t43 -16.5q29 0 42 16.5t13 48.5v357zM222 301h110v148q0 32 -12.5 48.5t-42.5 16.5q-29 0 -42 -16.5t-13 -48.5v-148z" />
    <glyph glyph-name="Racute" unicode="&#x154;" horiz-adv-x="279" 
d="M86 329v-329h-44v700h93q21 0 41 -4t35.5 -16t25 -33.5t9.5 -55.5v-148q0 -44 -15.5 -65.5t-40.5 -29.5q25 -8 40.5 -29.5t15.5 -65.5v-116q0 -35 1 -57.5t3 -37.5t5 -24l6 -18h-49q-3 12 -7 33.5t-4 68.5v142q0 48 -17.5 66.5t-66.5 18.5h-31zM129 368q41 0 56.5 14
t15.5 55v154q0 40 -15.5 55t-56.5 15h-43v-293h43zM153 821h44l-65 -91h-26z" />
    <glyph glyph-name="racute" unicode="&#x155;" horiz-adv-x="239" 
d="M39 0v541h38v-47q8 23 27 39t47 16q32 0 52 -20t20 -78v-186h-38v184q0 39 -11 52t-35 13q-26 0 -43 -21.5t-17 -50.5v-442h-40zM148 673h44l-65 -91h-26z" />
    <glyph glyph-name="Rcommaaccent" unicode="&#x156;" horiz-adv-x="279" 
d="M86 329v-329h-44v700h93q21 0 41 -4t35.5 -16t25 -33.5t9.5 -55.5v-148q0 -44 -15.5 -65.5t-40.5 -29.5q25 -8 40.5 -29.5t15.5 -65.5v-116q0 -35 1 -57.5t3 -37.5t5 -24l6 -18h-49q-3 12 -7 33.5t-4 68.5v142q0 48 -17.5 66.5t-66.5 18.5h-31zM129 368q41 0 56.5 14
t15.5 55v154q0 40 -15.5 55t-56.5 15h-43v-293h43zM127 -41h39v-59l-42 -67l-6 3l27 64h-18v59z" />
    <glyph glyph-name="rcommaaccent" unicode="&#x157;" horiz-adv-x="239" 
d="M39 0v541h38v-47q8 23 27 39t47 16q32 0 52 -20t20 -78v-186h-38v184q0 39 -11 52t-35 13q-26 0 -43 -21.5t-17 -50.5v-442h-40zM40 -41h39v-59l-42 -67l-6 3l27 64h-18v59z" />
    <glyph glyph-name="Rcaron" unicode="&#x158;" horiz-adv-x="279" 
d="M86 329v-329h-44v700h93q21 0 41 -4t35.5 -16t25 -33.5t9.5 -55.5v-148q0 -44 -15.5 -65.5t-40.5 -29.5q25 -8 40.5 -29.5t15.5 -65.5v-116q0 -35 1 -57.5t3 -37.5t5 -24l6 -18h-49q-3 12 -7 33.5t-4 68.5v142q0 48 -17.5 66.5t-66.5 18.5h-31zM129 368q41 0 56.5 14
t15.5 55v154q0 40 -15.5 55t-56.5 15h-43v-293h43zM181 821h27l-58 -91h-32l-57 91h26l47 -59z" />
    <glyph glyph-name="rcaron" unicode="&#x159;" horiz-adv-x="239" 
d="M39 0v541h38v-47q8 23 27 39t47 16q32 0 52 -20t20 -78v-186h-38v184q0 39 -11 52t-35 13q-26 0 -43 -21.5t-17 -50.5v-442h-40zM177 673h27l-58 -91h-32l-57 91h26l47 -59z" />
    <glyph glyph-name="Sacute" unicode="&#x15a;" horiz-adv-x="254" 
d="M69 102q0 -35 12.5 -53t44.5 -18t44.5 18t12.5 53v60q0 46 -11.5 78.5t-29 59t-37.5 50t-37.5 52t-29 66t-11.5 91.5v37q0 60 26 86t74 26t74 -26.5t26 -87.5v-120h-42v124q0 35 -12.5 53t-44.5 18t-44 -18t-12 -53v-44q0 -46 11.5 -78.5t28.5 -59t37.5 -50t37.5 -52
t28.5 -66t11.5 -91.5v-53q0 -60 -26 -86t-74 -26t-74 26.5t-26 87.5v140h42v-144zM145 821h44l-65 -91h-26z" />
    <glyph glyph-name="sacute" unicode="&#x15b;" horiz-adv-x="238" 
d="M170 130q0 32 -10.5 55t-26.5 41.5t-34.5 35.5t-34.5 38t-26.5 49t-10.5 68v33q0 52 24 75.5t69 23.5t68 -24t23 -79v-82h-38v85q0 32 -11.5 49t-41.5 17q-29 0 -40.5 -16t-11.5 -47v-38q0 -32 10.5 -55t26.5 -41.5t34.5 -35.5t34.5 -38.5t26.5 -49t10.5 -67.5v-35
q0 -53 -24 -76.5t-69 -23.5t-68 24t-23 79v93h38v-96q0 -32 11.5 -49t41.5 -17q29 0 40.5 16t11.5 47v41zM136 673h44l-65 -91h-26z" />
    <glyph glyph-name="Scircumflex" unicode="&#x15c;" horiz-adv-x="254" 
d="M69 102q0 -35 12.5 -53t44.5 -18t44.5 18t12.5 53v60q0 46 -11.5 78.5t-29 59t-37.5 50t-37.5 52t-29 66t-11.5 91.5v37q0 60 26 86t74 26t74 -26.5t26 -87.5v-120h-42v124q0 35 -12.5 53t-44.5 18t-44 -18t-12 -53v-44q0 -46 11.5 -78.5t28.5 -59t37.5 -50t37.5 -52
t28.5 -66t11.5 -91.5v-53q0 -60 -26 -86t-74 -26t-74 26.5t-26 87.5v140h42v-144zM126 790l-47 -60h-26l57 91h32l58 -91h-27z" />
    <glyph glyph-name="scircumflex" unicode="&#x15d;" horiz-adv-x="238" 
d="M170 130q0 32 -10.5 55t-26.5 41.5t-34.5 35.5t-34.5 38t-26.5 49t-10.5 68v33q0 52 24 75.5t69 23.5t68 -24t23 -79v-82h-38v85q0 32 -11.5 49t-41.5 17q-29 0 -40.5 -16t-11.5 -47v-38q0 -32 10.5 -55t26.5 -41.5t34.5 -35.5t34.5 -38.5t26.5 -49t10.5 -67.5v-35
q0 -53 -24 -76.5t-69 -23.5t-68 24t-23 79v93h38v-96q0 -32 11.5 -49t41.5 -17q29 0 40.5 16t11.5 47v41zM118 642l-47 -60h-26l57 91h32l58 -91h-27z" />
    <glyph glyph-name="Scedilla" unicode="&#x15e;" horiz-adv-x="254" 
d="M158 -75q0 14 -9.5 21t-34.5 6v41q-42 3 -64.5 29.5t-22.5 83.5v140h42v-144q0 -35 12.5 -53t44.5 -18t44.5 18t12.5 53v60q0 46 -11.5 78.5t-29 59t-37.5 50t-37.5 52t-29 66t-11.5 91.5v37q0 60 26 86t74 26t74 -26.5t26 -87.5v-120h-42v124q0 35 -12.5 53t-44.5 18
t-44 -18t-12 -53v-44q0 -46 11.5 -78.5t28.5 -59t37.5 -50t37.5 -52t28.5 -66t11.5 -91.5v-53q0 -59 -25 -84.5t-71 -27.5v-26q28 0 44 -9t16 -32q0 -20 -18 -32t-50 -12q-27 0 -44.5 10.5t-15.5 37.5h27q-2 -17 7 -24t27 -7q34 0 34 27z" />
    <glyph glyph-name="scedilla" unicode="&#x15f;" horiz-adv-x="238" 
d="M148 -75q0 14 -9.5 21t-34.5 6v41q-38 3 -57.5 27t-19.5 75v93h38v-96q0 -32 11.5 -49t41.5 -17q29 0 40.5 16t11.5 47v41q0 32 -10.5 55t-26.5 41.5t-34.5 35.5t-34.5 38t-26.5 49t-10.5 68v33q0 52 24 75.5t69 23.5t68 -24t23 -79v-82h-38v85q0 32 -11.5 49t-41.5 17
q-29 0 -40.5 -16t-11.5 -47v-38q0 -32 10.5 -55t26.5 -41.5t34.5 -35.5t34.5 -38.5t26.5 -49t10.5 -67.5v-35q0 -52 -23 -75.5t-67 -24.5v-26q28 0 44 -9t16 -32q0 -20 -18 -32t-50 -12q-27 0 -44.5 10.5t-15.5 37.5h27q-2 -17 7 -24t27 -7q34 0 34 27z" />
    <glyph glyph-name="Scaron" unicode="&#x160;" horiz-adv-x="254" 
d="M69 102q0 -35 12.5 -53t44.5 -18t44.5 18t12.5 53v60q0 46 -11.5 78.5t-29 59t-37.5 50t-37.5 52t-29 66t-11.5 91.5v37q0 60 26 86t74 26t74 -26.5t26 -87.5v-120h-42v124q0 35 -12.5 53t-44.5 18t-44 -18t-12 -53v-44q0 -46 11.5 -78.5t28.5 -59t37.5 -50t37.5 -52
t28.5 -66t11.5 -91.5v-53q0 -60 -26 -86t-74 -26t-74 26.5t-26 87.5v140h42v-144zM173 821h27l-58 -91h-32l-57 91h26l47 -59z" />
    <glyph glyph-name="scaron" unicode="&#x161;" horiz-adv-x="238" 
d="M170 130q0 32 -10.5 55t-26.5 41.5t-34.5 35.5t-34.5 38t-26.5 49t-10.5 68v33q0 52 24 75.5t69 23.5t68 -24t23 -79v-82h-38v85q0 32 -11.5 49t-41.5 17q-29 0 -40.5 -16t-11.5 -47v-38q0 -32 10.5 -55t26.5 -41.5t34.5 -35.5t34.5 -38.5t26.5 -49t10.5 -67.5v-35
q0 -53 -24 -76.5t-69 -23.5t-68 24t-23 79v93h38v-96q0 -32 11.5 -49t41.5 -17q29 0 40.5 16t11.5 47v41zM165 673h27l-58 -91h-32l-57 91h26l47 -59z" />
    <glyph glyph-name="Tcommaaccent" unicode="&#x162;" horiz-adv-x="203" 
d="M136 -75q0 14 -9.5 21t-34.5 6v48h-13v661h-78v39h202v-39h-79v-661h-15v-34q28 0 44 -9t16 -32q0 -20 -18 -32t-50 -12q-27 0 -44.5 10.5t-15.5 37.5h27q-2 -17 7 -24t27 -7q34 0 34 27z" />
    <glyph glyph-name="tcommaaccent" unicode="&#x163;" horiz-adv-x="160" 
d="M122 -75q0 14 -9.5 21t-34.5 6v49q-28 13 -28 62v444h-33v34h33v99h40v-99h59v-34h-59v-442q0 -20 7 -27.5t24 -7.5t28 3v-33q-7 -3 -17 -4t-18 -1q-5 0 -9.5 0.5t-9.5 1.5v-31q28 0 44 -9t16 -32q0 -20 -18 -32t-50 -12q-27 0 -44.5 10.5t-15.5 37.5h27q-2 -17 7 -24
t27 -7q34 0 34 27z" />
    <glyph glyph-name="Tcaron" unicode="&#x164;" horiz-adv-x="203" 
d="M203 661h-79v-661h-45v661h-78v39h202v-39zM148 821h27l-58 -91h-32l-57 91h26l47 -59z" />
    <glyph glyph-name="tcaron" unicode="&#x165;" horiz-adv-x="232" 
d="M176 700h39v-79l-43 -70l-6 3l29 67h-19v79zM114 -5q-33 0 -48.5 15t-15.5 53v444h-33v34h33v99h40v-99h59v-34h-59v-442q0 -20 7 -27.5t24 -7.5t28 3v-33q-7 -3 -17 -4t-18 -1z" />
    <glyph glyph-name="Tbar" unicode="&#x166;" horiz-adv-x="203" 
d="M203 661h-79v-122h52v-35h-52v-504h-45v504h-51v35h51v122h-78v39h202v-39z" />
    <glyph glyph-name="tbar" unicode="&#x167;" horiz-adv-x="160" 
d="M114 -5q-33 0 -48.5 15t-15.5 53v318h-33v32h33v94h-33v34h33v99h40v-99h59v-34h-59v-94h59v-32h-59v-316q0 -20 7 -27.5t24 -7.5t28 3v-33q-7 -3 -17 -4t-18 -1z" />
    <glyph glyph-name="Utilde" unicode="&#x168;" horiz-adv-x="279" 
d="M81 98q0 -34 14 -50.5t46 -16.5t46 16.5t14 50.5v602h42v-599q0 -58 -27.5 -83.5t-75.5 -25.5t-75.5 25.5t-27.5 83.5v599h44v-602zM217 799q-3 -56 -47 -56q-11 0 -19.5 3.5t-16.5 8t-15.5 8.5t-16.5 4q-11 0 -14.5 -8t-4.5 -18h-23q3 56 46 56q11 0 20 -4t17 -8.5
t15.5 -8.5t15.5 -4q11 0 14.5 8.5t5.5 18.5h23z" />
    <glyph glyph-name="utilde" unicode="&#x169;" horiz-adv-x="265" 
d="M186 541h41v-418v-43t1 -32t2.5 -25t3.5 -23h-39q-3 10 -4.5 21.5t-2.5 24.5q-8 -23 -28 -38.5t-48 -15.5q-16 0 -30 4.5t-24.5 15.5t-16.5 30t-6 48v451h41v-449q0 -39 12.5 -52t36.5 -13q26 0 43.5 21.5t17.5 50.5v442zM211 651q-3 -56 -47 -56q-11 0 -19.5 3.5
t-16.5 8t-15.5 8.5t-16.5 4q-11 0 -14.5 -8t-4.5 -18h-23q3 56 46 56q11 0 20 -4t17 -8.5t15.5 -8.5t15.5 -4q11 0 14.5 8.5t5.5 18.5h23z" />
    <glyph glyph-name="Umacron" unicode="&#x16a;" horiz-adv-x="279" 
d="M81 98q0 -34 14 -50.5t46 -16.5t46 16.5t14 50.5v602h42v-599q0 -58 -27.5 -83.5t-75.5 -25.5t-75.5 25.5t-27.5 83.5v599h44v-602zM64 750v28h149v-28h-149z" />
    <glyph glyph-name="umacron" unicode="&#x16b;" horiz-adv-x="265" 
d="M186 541h41v-418v-43t1 -32t2.5 -25t3.5 -23h-39q-3 10 -4.5 21.5t-2.5 24.5q-8 -23 -28 -38.5t-48 -15.5q-16 0 -30 4.5t-24.5 15.5t-16.5 30t-6 48v451h41v-449q0 -39 12.5 -52t36.5 -13q26 0 43.5 21.5t17.5 50.5v442zM58 602v28h149v-28h-149z" />
    <glyph glyph-name="Ubreve" unicode="&#x16c;" horiz-adv-x="279" 
d="M81 98q0 -34 14 -50.5t46 -16.5t46 16.5t14 50.5v602h42v-599q0 -58 -27.5 -83.5t-75.5 -25.5t-75.5 25.5t-27.5 83.5v599h44v-602zM139 770q24 0 37.5 12t13.5 36h23q0 -31 -17 -54t-57 -23q-39 0 -56 23t-17 54h23q0 -24 13.5 -36t36.5 -12z" />
    <glyph glyph-name="ubreve" unicode="&#x16d;" horiz-adv-x="265" 
d="M186 541h41v-418v-43t1 -32t2.5 -25t3.5 -23h-39q-3 10 -4.5 21.5t-2.5 24.5q-8 -23 -28 -38.5t-48 -15.5q-16 0 -30 4.5t-24.5 15.5t-16.5 30t-6 48v451h41v-449q0 -39 12.5 -52t36.5 -13q26 0 43.5 21.5t17.5 50.5v442zM132 622q24 0 37.5 12t13.5 36h23q0 -31 -17 -54
t-57 -23q-39 0 -56 23t-17 54h23q0 -24 13.5 -36t36.5 -12z" />
    <glyph glyph-name="Uring" unicode="&#x16e;" horiz-adv-x="279" 
d="M81 98q0 -34 14 -50.5t46 -16.5t46 16.5t14 50.5v602h42v-599q0 -58 -27.5 -83.5t-75.5 -25.5t-75.5 25.5t-27.5 83.5v599h44v-602zM90 780q0 21 14.5 35.5t34.5 14.5q21 0 35.5 -14.5t14.5 -35.5t-14.5 -35.5t-35.5 -14.5q-20 0 -34.5 14.5t-14.5 35.5zM112 780
q0 -13 7.5 -20.5t19.5 -7.5t19.5 7.5t7.5 20.5t-7.5 20.5t-19.5 7.5t-19.5 -7.5t-7.5 -20.5z" />
    <glyph glyph-name="uring" unicode="&#x16f;" horiz-adv-x="265" 
d="M186 541h41v-418v-43t1 -32t2.5 -25t3.5 -23h-39q-3 10 -4.5 21.5t-2.5 24.5q-8 -23 -28 -38.5t-48 -15.5q-16 0 -30 4.5t-24.5 15.5t-16.5 30t-6 48v451h41v-449q0 -39 12.5 -52t36.5 -13q26 0 43.5 21.5t17.5 50.5v442zM83 632q0 21 14.5 35.5t34.5 14.5
q21 0 35.5 -14.5t14.5 -35.5t-14.5 -35.5t-35.5 -14.5q-20 0 -34.5 14.5t-14.5 35.5zM105 632q0 -13 7.5 -20.5t19.5 -7.5t19.5 7.5t7.5 20.5t-7.5 20.5t-19.5 7.5t-19.5 -7.5t-7.5 -20.5z" />
    <glyph glyph-name="Uhungarumlaut" unicode="&#x170;" horiz-adv-x="279" 
d="M81 98q0 -34 14 -50.5t46 -16.5t46 16.5t14 50.5v602h42v-599q0 -58 -27.5 -83.5t-75.5 -25.5t-75.5 25.5t-27.5 83.5v599h44v-602zM199 821h39l-58 -91h-24zM118 821h39l-58 -91h-24z" />
    <glyph glyph-name="uhungarumlaut" unicode="&#x171;" horiz-adv-x="265" 
d="M186 541h41v-418v-43t1 -32t2.5 -25t3.5 -23h-39q-3 10 -4.5 21.5t-2.5 24.5q-8 -23 -28 -38.5t-48 -15.5q-16 0 -30 4.5t-24.5 15.5t-16.5 30t-6 48v451h41v-449q0 -39 12.5 -52t36.5 -13q26 0 43.5 21.5t17.5 50.5v442zM191 673h39l-58 -91h-24zM110 673h39l-58 -91
h-24z" />
    <glyph glyph-name="Uogonek" unicode="&#x172;" horiz-adv-x="279" 
d="M236 -111q-21 -8 -43 -8q-24 0 -41.5 11.5t-17.5 37.5q0 23 11.5 39t23.5 26q-14 -3 -29 -3q-48 0 -75.5 25.5t-27.5 83.5v599h44v-602q0 -34 14 -50.5t46 -16.5t46 16.5t14 50.5v602h42v-599q0 -39 -12.5 -63t-35.5 -35q-16 -14 -23 -30t-7 -33q0 -37 38 -37q15 0 33 7
v-21z" />
    <glyph glyph-name="uogonek" unicode="&#x173;" horiz-adv-x="265" 
d="M236 -111q-21 -8 -43 -8t-39 10.5t-17 34.5q0 13 5.5 24.5t14 20.5t19 16.5t19.5 12.5q-3 10 -4.5 21.5t-2.5 24.5q-8 -23 -28 -38.5t-48 -15.5q-16 0 -30 4.5t-24.5 15.5t-16.5 30t-6 48v451h41v-449q0 -39 12.5 -52t36.5 -13q26 0 43.5 21.5t17.5 50.5v442h41v-418v-43
t1 -32t2.5 -25t3.5 -23h-13q-29 -16 -41 -32.5t-12 -33.5q0 -31 35 -31q16 0 33 7v-21z" />
    <glyph glyph-name="Wcircumflex" unicode="&#x174;" horiz-adv-x="400" 
d="M200 790l-47 -60h-26l57 91h32l58 -91h-27zM261 0l-43 385q-5 47 -9.5 104t-8.5 120q-4 -63 -8 -120t-9 -104l-42 -385h-53l-77 700h45l43 -388q5 -49 10 -107.5t9 -123.5q4 65 9 123.5t10 107.5l43 388h47l43 -388q5 -49 9.5 -107.5t8.5 -123.5q4 65 8.5 123.5
t9.5 107.5l44 388h40l-77 -700h-52z" />
    <glyph glyph-name="wcircumflex" unicode="&#x175;" horiz-adv-x="378" 
d="M259 209q5 -41 8 -80.5t5 -72.5q2 33 5 72.5t9 80.5l46 332h37l-76 -541h-45l-46 328q-5 34 -7.5 73t-5.5 71q-2 -32 -5 -71t-8 -73l-45 -328h-46l-75 541h41l46 -332q5 -41 8 -80.5t5 -72.5q2 33 5.5 72.5t8.5 80.5l45 332h43zM189 642l-47 -60h-26l57 91h32l58 -91h-27
z" />
    <glyph glyph-name="Ycircumflex" unicode="&#x176;" horiz-adv-x="255" 
d="M205 700h40l-94 -455v-245h-45v241l-95 459h45l48 -241q7 -35 14.5 -77.5t12.5 -85.5q5 43 12 85.5t14 77.5zM127 790l-47 -60h-26l57 91h32l58 -91h-27z" />
    <glyph glyph-name="ycircumflex" unicode="&#x177;" horiz-adv-x="241" 
d="M36 -80q12 -5 26 -5q17 0 25.5 7.5t11.5 25.5q2 12 1 25.5t-3 27.5l-87 540h41l52 -332q7 -40 11.5 -81.5t7.5 -77.5q4 35 9 77t11 82l52 332h37l-93 -590q-5 -32 -20 -51t-50 -19q-11 0 -19 1.5t-13 3.5v34zM122 642l-47 -60h-26l57 91h32l58 -91h-27z" />
    <glyph glyph-name="Ydieresis" unicode="&#x178;" horiz-adv-x="255" 
d="M205 700h40l-94 -455v-245h-45v241l-95 459h45l48 -241q7 -35 14.5 -77.5t12.5 -85.5q5 43 12 85.5t14 77.5zM64 740v58h39v-58h-39zM152 740v58h39v-58h-39z" />
    <glyph glyph-name="Zacute" unicode="&#x179;" horiz-adv-x="219" 
d="M20 700h183v-30l-139 -631h139v-39h-186v30l138 631h-135v39zM132 821h44l-65 -91h-26z" />
    <glyph glyph-name="zacute" unicode="&#x17a;" horiz-adv-x="211" 
d="M21 541h174v-30l-138 -477h138v-34h-180v30l137 477h-131v34zM131 673h44l-65 -91h-26z" />
    <glyph glyph-name="Zdotaccent" unicode="&#x17b;" horiz-adv-x="219" 
d="M20 700h183v-30l-139 -631h139v-39h-186v30l138 631h-135v39zM90 740v58h39v-58h-39z" />
    <glyph glyph-name="zdotaccent" unicode="&#x17c;" horiz-adv-x="211" 
d="M21 541h174v-30l-138 -477h138v-34h-180v30l137 477h-131v34zM86 592v58h39v-58h-39z" />
    <glyph glyph-name="Zcaron" unicode="&#x17d;" horiz-adv-x="219" 
d="M20 700h183v-30l-139 -631h139v-39h-186v30l138 631h-135v39zM156 821h27l-58 -91h-32l-57 91h26l47 -59z" />
    <glyph glyph-name="zcaron" unicode="&#x17e;" horiz-adv-x="211" 
d="M21 541h174v-30l-138 -477h138v-34h-180v30l137 477h-131v34zM152 673h27l-58 -91h-32l-57 91h26l47 -59z" />
    <glyph glyph-name="florin" unicode="&#x192;" 
d="M61 430h33l17 196q4 44 24.5 63t58.5 19q11 0 23.5 -2t20.5 -6l-4 -33q-8 3 -16 5t-20 2q-22 0 -33 -11.5t-14 -42.5l-17 -190h80l-3 -34h-80l-44 -507h-40l44 507h-33z" />
    <glyph glyph-name="AEacute" unicode="&#x1fc;" horiz-adv-x="337" 
d="M149 106h-84l-19 -106h-40l129 700h179v-39h-120v-277h108v-39h-108v-306h123v-39h-168v106zM72 144h77v208q0 63 1.5 132.5t3.5 136.5q-9 -66 -18.5 -125.5t-19.5 -113.5zM185 821h44l-65 -91h-26z" />
    <glyph glyph-name="aeacute" unicode="&#x1fd;" horiz-adv-x="395" 
d="M116 27q26 0 43.5 21.5t17.5 50.5v216q-14 -17 -33 -29.5t-36 -28t-29 -37.5t-12 -59v-72q0 -38 12.5 -50t36.5 -12zM218 266v-173q0 -32 12.5 -49t42.5 -17t42.5 17t12.5 49v107h38v-103q0 -56 -24.5 -80.5t-69.5 -24.5q-35 0 -58.5 15t-31.5 47q-7 -26 -28 -44t-51 -18
q-16 0 -30 4t-24 15t-16 29t-6 47v70q0 40 11 66.5t28 44.5t36 31t36 26t28 28.5t11 40.5v55q0 32 -11.5 48.5t-40.5 16.5q-30 0 -41 -16.5t-11 -48.5v-97h-38v92q0 56 21.5 80.5t66.5 24.5q56 0 75 -43q19 43 78 43q45 0 67.5 -24.5t22.5 -80.5v-178h-148zM218 301h110v149
q0 32 -12.5 48t-42.5 16q-29 0 -42 -16t-13 -48v-149zM215 673h44l-65 -91h-26z" />
    <glyph glyph-name="Oslashacute" unicode="&#x1fe;" horiz-adv-x="270" 
d="M31 594q0 61 27.5 87.5t76.5 26.5q18 0 33.5 -3t27.5 -11l10 42l32 -8l-14 -63q16 -27 16 -71v-488q0 -61 -28 -87.5t-77 -26.5q-37 0 -60 13l-9 -41l-33 8l14 62q-16 26 -16 72v488zM75 153l110 492q-14 24 -50 24q-32 0 -46 -18t-14 -53v-445zM135 31q32 0 46 18t14 53
v440l-109 -489q13 -22 49 -22zM152 821h44l-65 -91h-26z" />
    <glyph glyph-name="oslashacute" unicode="&#x1ff;" 
d="M222 96q0 -55 -25 -79.5t-71 -24.5q-34 0 -55 12l-11 -41l-29 9l15 57q-15 24 -15 67v349q0 55 25 79.5t70 24.5q33 0 55 -13l11 42l30 -10l-16 -56q16 -27 16 -67v-349zM71 118l99 377q-14 19 -44 19q-29 0 -42 -16.5t-13 -48.5v-331zM126 27q30 0 42.5 16.5t12.5 48.5
v329l-99 -375q13 -19 44 -19zM143 673h44l-65 -91h-26z" />
    <glyph glyph-name="Scommaaccent" unicode="&#x218;" horiz-adv-x="254" 
d="M69 102q0 -35 12.5 -53t44.5 -18t44.5 18t12.5 53v60q0 46 -11.5 78.5t-29 59t-37.5 50t-37.5 52t-29 66t-11.5 91.5v37q0 60 26 86t74 26t74 -26.5t26 -87.5v-120h-42v124q0 35 -12.5 53t-44.5 18t-44 -18t-12 -53v-44q0 -46 11.5 -78.5t28.5 -59t37.5 -50t37.5 -52
t28.5 -66t11.5 -91.5v-53q0 -60 -26 -86t-74 -26t-74 26.5t-26 87.5v140h42v-144zM107 -41h39v-59l-42 -67l-6 3l27 64h-18v59z" />
    <glyph glyph-name="scommaaccent" unicode="&#x219;" horiz-adv-x="238" 
d="M170 130q0 32 -10.5 55t-26.5 41.5t-34.5 35.5t-34.5 38t-26.5 49t-10.5 68v33q0 52 24 75.5t69 23.5t68 -24t23 -79v-82h-38v85q0 32 -11.5 49t-41.5 17q-29 0 -40.5 -16t-11.5 -47v-38q0 -32 10.5 -55t26.5 -41.5t34.5 -35.5t34.5 -38.5t26.5 -49t10.5 -67.5v-35
q0 -53 -24 -76.5t-69 -23.5t-68 24t-23 79v93h38v-96q0 -32 11.5 -49t41.5 -17q29 0 40.5 16t11.5 47v41zM99 -41h39v-59l-42 -67l-6 3l27 64h-18v59z" />
    <glyph glyph-name="uni021A" unicode="&#x21a;" horiz-adv-x="203" 
d="M203 661h-79v-661h-45v661h-78v39h202v-39zM82 -41h39v-59l-42 -67l-6 3l27 64h-18v59z" />
    <glyph glyph-name="uni021B" unicode="&#x21b;" horiz-adv-x="160" 
d="M67 -41h40v-65l-43 -70l-6 3l28 67h-19v65zM114 -5q-33 0 -48.5 15t-15.5 53v444h-33v34h33v99h40v-99h59v-34h-59v-442q0 -20 7 -27.5t24 -7.5t28 3v-33q-7 -3 -17 -4t-18 -1z" />
    <glyph glyph-name="uni0237" unicode="&#x237;" horiz-adv-x="118" 
d="M19 -119q-19 0 -29 5v34q8 -4 23 -4q26 0 26 35v590h40v-592q0 -36 -14 -52t-46 -16z" />
    <glyph glyph-name="circumflex" unicode="&#x2c6;" horiz-adv-x="205" 
d="M102 642l-47 -60h-26l57 91h32l58 -91h-27z" />
    <glyph glyph-name="caron" unicode="&#x2c7;" horiz-adv-x="205" 
d="M149 673h27l-58 -91h-32l-57 91h26l47 -59z" />
    <glyph glyph-name="breve" unicode="&#x2d8;" horiz-adv-x="205" 
d="M102 622q24 0 37.5 12t13.5 36h23q0 -31 -17 -54t-57 -23q-39 0 -56 23t-17 54h23q0 -24 13.5 -36t36.5 -12z" />
    <glyph glyph-name="dotaccent" unicode="&#x2d9;" horiz-adv-x="205" 
d="M83 592v58h39v-58h-39z" />
    <glyph glyph-name="ring" unicode="&#x2da;" horiz-adv-x="205" 
d="M53 632q0 21 14.5 35.5t34.5 14.5q21 0 35.5 -14.5t14.5 -35.5t-14.5 -35.5t-35.5 -14.5q-20 0 -34.5 14.5t-14.5 35.5zM75 632q0 -13 7.5 -20.5t19.5 -7.5t19.5 7.5t7.5 20.5t-7.5 20.5t-19.5 7.5t-19.5 -7.5t-7.5 -20.5z" />
    <glyph glyph-name="ogonek" unicode="&#x2db;" horiz-adv-x="205" 
d="M152 -111q-10 -4 -20 -6t-22 -2q-23 0 -40 10t-17 34q0 28 18 45t45 30h25q-32 -17 -44.5 -33t-12.5 -33q0 -31 36 -31q15 0 32 7v-21z" />
    <glyph glyph-name="tilde" unicode="&#x2dc;" horiz-adv-x="205" 
d="M181 651q-3 -56 -47 -56q-11 0 -19.5 3.5t-16.5 8t-15.5 8.5t-16.5 4q-11 0 -14.5 -8t-4.5 -18h-23q3 56 46 56q11 0 20 -4t17 -8.5t15.5 -8.5t15.5 -4q11 0 14.5 8.5t5.5 18.5h23z" />
    <glyph glyph-name="hungarumlaut" unicode="&#x2dd;" horiz-adv-x="205" 
d="M145 673h39l-58 -91h-24zM64 673h39l-58 -91h-24z" />
    <glyph glyph-name="pi" unicode="&#x3c0;" horiz-adv-x="269" 
d="M79 0h-40v541h191v-541h-41v507h-110v-507z" />
    <glyph glyph-name="uni1E02" unicode="&#x1e02;" horiz-adv-x="276" 
d="M135 700q21 0 41 -4t35 -16t24 -33.5t9 -55.5v-133q0 -43 -14.5 -64.5t-39.5 -29.5q25 -8 40.5 -29t15.5 -64v-162q0 -35 -9.5 -56t-25 -33t-35.5 -16t-41 -4h-93v700h93zM86 346v-307h43q41 0 56.5 15t15.5 55v168q0 40 -15.5 54.5t-56.5 14.5h-43zM129 384
q40 0 56 14.5t16 54.5v138q0 40 -15.5 55t-56.5 15h-43v-277h43zM115 740v58h39v-58h-39z" />
    <glyph glyph-name="uni1E03" unicode="&#x1e03;" horiz-adv-x="261" 
d="M79 99q0 -29 18 -50.5t44 -21.5q24 0 36 13t12 52v357q0 39 -12 52t-36 13q-26 0 -44 -21.5t-18 -50.5v-343zM79 700v-202q9 22 28.5 36.5t46.5 14.5q16 0 30 -4.5t24 -15.5t16 -30t6 -48v-361q0 -29 -6 -48t-16 -30t-24 -15.5t-30 -4.5q-29 0 -49 16.5t-28 39.5l-11 -48
h-27v700h40zM40 740v58h39v-58h-39z" />
    <glyph glyph-name="uni1E0A" unicode="&#x1e0a;" horiz-adv-x="282" 
d="M42 700h89q21 0 41.5 -4.5t36.5 -17t25.5 -34.5t9.5 -56v-476q0 -35 -9.5 -56.5t-25.5 -34t-36.5 -17t-41.5 -4.5h-89v700zM86 661v-622h40q41 0 57.5 16t16.5 56v478q0 40 -16.5 56t-57.5 16h-40zM115 740v58h39v-58h-39z" />
    <glyph glyph-name="uni1E0B" unicode="&#x1e0b;" horiz-adv-x="261" 
d="M182 442q0 29 -18 50.5t-44 21.5q-24 0 -36 -13t-12 -52v-357q0 -39 12 -52t36 -13q26 0 44 21.5t18 50.5v343zM190 0q-3 10 -4.5 21.5t-2.5 24.5q-8 -23 -28 -38.5t-48 -15.5q-16 0 -30 4.5t-24 15.5t-16 30t-6 48v361q0 29 6 48t16 30t24 15.5t30 4.5q26 0 46 -14.5
t29 -36.5v202h40v-577q0 -50 1.5 -75t6.5 -48h-40zM183 740v58h39v-58h-39z" />
    <glyph glyph-name="uni1E1E" unicode="&#x1e1e;" horiz-adv-x="211" 
d="M86 0h-44v700h161v-39h-117v-288h106v-38h-106v-335zM104 740v58h39v-58h-39z" />
    <glyph glyph-name="uni1E1F" unicode="&#x1e1f;" horiz-adv-x="164" 
d="M90 541h80v-34h-80v-507h-40v507h-33v34h33v86q0 43 18.5 62t58.5 19q25 0 43 -8v-34q-9 4 -17.5 6t-20.5 2q-23 0 -32.5 -11t-9.5 -41v-81zM91 740v58h39v-58h-39z" />
    <glyph glyph-name="uni1E40" unicode="&#x1e40;" horiz-adv-x="387" 
d="M192 90q4 50 11 102t15 101l64 407h63v-700h-43v440q0 21 0.5 47t1 52.5t1 52.5t1.5 48q-3 -22 -6 -48t-6.5 -52t-7 -51.5t-6.5 -46.5l-70 -442h-40l-70 442q-3 21 -7 46.5t-7.5 51.5t-6.5 52t-5 48q1 -22 1.5 -48t1 -52.5t1 -52.5t0.5 -47v-440h-37v700h62l64 -407
q8 -49 14.5 -101t10.5 -102zM174 740v58h39v-58h-39z" />
    <glyph glyph-name="uni1E41" unicode="&#x1e41;" horiz-adv-x="400" 
d="M39 0v541h38v-47q8 23 26 39t47 16q25 0 42 -11t25 -41q9 22 29 37t47 15q32 0 52 -20t20 -78v-451h-41v449q0 39 -10 52t-34 13q-26 0 -42 -21.5t-16 -50.5v-442h-41v449q0 39 -10 52t-34 13q-26 0 -42 -21.5t-16 -50.5v-442h-40zM181 592v58h39v-58h-39z" />
    <glyph glyph-name="uni1E56" unicode="&#x1e56;" horiz-adv-x="258" 
d="M86 0h-44v700h86q22 0 42.5 -4.5t36.5 -17t25.5 -34.5t9.5 -56v-190q0 -35 -9.5 -57t-25.5 -34.5t-36.5 -17t-42.5 -4.5h-42v-285zM86 661v-337h38q40 0 57 16t17 56v193q0 40 -17 56t-57 16h-38zM112 740v58h39v-58h-39z" />
    <glyph glyph-name="uni1E57" unicode="&#x1e57;" horiz-adv-x="261" 
d="M79 99q0 -29 18 -50.5t44 -21.5q24 0 36 13t12 52v357q0 39 -12 52t-36 13q-26 0 -44 -21.5t-18 -50.5v-343zM39 -111v652h38v-49q8 24 28 40.5t49 16.5q16 0 30 -4.5t24 -15.5t16 -30t6 -48v-361q0 -29 -6 -48t-16 -30t-24 -15.5t-30 -4.5q-27 0 -46.5 14.5t-28.5 35.5
v-153h-40zM111 592v58h39v-58h-39z" />
    <glyph glyph-name="uni1E60" unicode="&#x1e60;" horiz-adv-x="254" 
d="M69 102q0 -35 12.5 -53t44.5 -18t44.5 18t12.5 53v60q0 46 -11.5 78.5t-29 59t-37.5 50t-37.5 52t-29 66t-11.5 91.5v37q0 60 26 86t74 26t74 -26.5t26 -87.5v-120h-42v124q0 35 -12.5 53t-44.5 18t-44 -18t-12 -53v-44q0 -46 11.5 -78.5t28.5 -59t37.5 -50t37.5 -52
t28.5 -66t11.5 -91.5v-53q0 -60 -26 -86t-74 -26t-74 26.5t-26 87.5v140h42v-144zM107 740v58h39v-58h-39z" />
    <glyph glyph-name="uni1E61" unicode="&#x1e61;" horiz-adv-x="238" 
d="M170 130q0 32 -10.5 55t-26.5 41.5t-34.5 35.5t-34.5 38t-26.5 49t-10.5 68v33q0 52 24 75.5t69 23.5t68 -24t23 -79v-82h-38v85q0 32 -11.5 49t-41.5 17q-29 0 -40.5 -16t-11.5 -47v-38q0 -32 10.5 -55t26.5 -41.5t34.5 -35.5t34.5 -38.5t26.5 -49t10.5 -67.5v-35
q0 -53 -24 -76.5t-69 -23.5t-68 24t-23 79v93h38v-96q0 -32 11.5 -49t41.5 -17q29 0 40.5 16t11.5 47v41zM99 592v58h39v-58h-39z" />
    <glyph glyph-name="uni1E6A" unicode="&#x1e6a;" horiz-adv-x="203" 
d="M203 661h-79v-661h-45v661h-78v39h202v-39zM82 740v58h39v-58h-39z" />
    <glyph glyph-name="uni1E6B" unicode="&#x1e6b;" horiz-adv-x="160" 
d="M114 -5q-33 0 -48.5 15t-15.5 53v444h-33v34h33v99h40v-99h59v-34h-59v-442q0 -20 7 -27.5t24 -7.5t28 3v-33q-7 -3 -17 -4t-18 -1zM51 681v58h39v-58h-39z" />
    <glyph glyph-name="Wgrave" unicode="&#x1e80;" horiz-adv-x="400" 
d="M261 0l-43 385q-5 47 -9.5 104t-8.5 120q-4 -63 -8 -120t-9 -104l-42 -385h-53l-77 700h45l43 -388q5 -49 10 -107.5t9 -123.5q4 65 9 123.5t10 107.5l43 388h47l43 -388q5 -49 9.5 -107.5t8.5 -123.5q4 65 8.5 123.5t9.5 107.5l44 388h40l-77 -700h-52zM229 730h-26
l-65 91h43z" />
    <glyph glyph-name="wgrave" unicode="&#x1e81;" horiz-adv-x="378" 
d="M259 209q5 -41 8 -80.5t5 -72.5q2 33 5 72.5t9 80.5l46 332h37l-76 -541h-45l-46 328q-5 34 -7.5 73t-5.5 71q-2 -32 -5 -71t-8 -73l-45 -328h-46l-75 541h41l46 -332q5 -41 8 -80.5t5 -72.5q2 33 5.5 72.5t8.5 80.5l45 332h43zM218 582h-26l-65 91h43z" />
    <glyph glyph-name="Wacute" unicode="&#x1e82;" horiz-adv-x="400" 
d="M261 0l-43 385q-5 47 -9.5 104t-8.5 120q-4 -63 -8 -120t-9 -104l-42 -385h-53l-77 700h45l43 -388q5 -49 10 -107.5t9 -123.5q4 65 9 123.5t10 107.5l43 388h47l43 -388q5 -49 9.5 -107.5t8.5 -123.5q4 65 8.5 123.5t9.5 107.5l44 388h40l-77 -700h-52zM217 821h44
l-65 -91h-26z" />
    <glyph glyph-name="wacute" unicode="&#x1e83;" horiz-adv-x="378" 
d="M259 209q5 -41 8 -80.5t5 -72.5q2 33 5 72.5t9 80.5l46 332h37l-76 -541h-45l-46 328q-5 34 -7.5 73t-5.5 71q-2 -32 -5 -71t-8 -73l-45 -328h-46l-75 541h41l46 -332q5 -41 8 -80.5t5 -72.5q2 33 5.5 72.5t8.5 80.5l45 332h43zM206 673h44l-65 -91h-26z" />
    <glyph glyph-name="Wdieresis" unicode="&#x1e84;" horiz-adv-x="400" 
d="M261 0l-43 385q-5 47 -9.5 104t-8.5 120q-4 -63 -8 -120t-9 -104l-42 -385h-53l-77 700h45l43 -388q5 -49 10 -107.5t9 -123.5q4 65 9 123.5t10 107.5l43 388h47l43 -388q5 -49 9.5 -107.5t8.5 -123.5q4 65 8.5 123.5t9.5 107.5l44 388h40l-77 -700h-52zM137 740v58h39
v-58h-39zM225 740v58h39v-58h-39z" />
    <glyph glyph-name="wdieresis" unicode="&#x1e85;" horiz-adv-x="378" 
d="M259 209q5 -41 8 -80.5t5 -72.5q2 33 5 72.5t9 80.5l46 332h37l-76 -541h-45l-46 328q-5 34 -7.5 73t-5.5 71q-2 -32 -5 -71t-8 -73l-45 -328h-46l-75 541h41l46 -332q5 -41 8 -80.5t5 -72.5q2 33 5.5 72.5t8.5 80.5l45 332h43zM126 592v58h39v-58h-39zM214 592v58h39
v-58h-39z" />
    <glyph glyph-name="Ygrave" unicode="&#x1ef2;" horiz-adv-x="255" 
d="M205 700h40l-94 -455v-245h-45v241l-95 459h45l48 -241q7 -35 14.5 -77.5t12.5 -85.5q5 43 12 85.5t14 77.5zM157 730h-26l-65 91h43z" />
    <glyph glyph-name="ygrave" unicode="&#x1ef3;" horiz-adv-x="241" 
d="M36 -80q12 -5 26 -5q17 0 25.5 7.5t11.5 25.5q2 12 1 25.5t-3 27.5l-87 540h41l52 -332q7 -40 11.5 -81.5t7.5 -77.5q4 35 9 77t11 82l52 332h37l-93 -590q-5 -32 -20 -51t-50 -19q-11 0 -19 1.5t-13 3.5v34zM153 582h-26l-65 91h43z" />
    <glyph glyph-name="figuredash" unicode="&#x2012;" 
d="M253 252h-253v37h253v-37z" />
    <glyph glyph-name="endash" unicode="&#x2013;" horiz-adv-x="500" 
d="M500 252h-500v37h500v-37z" />
    <glyph glyph-name="emdash" unicode="&#x2014;" horiz-adv-x="1000" 
d="M1000 252h-1000v37h1000v-37z" />
    <glyph glyph-name="quoteleft" unicode="&#x2018;" horiz-adv-x="127" 
d="M84 548h-40v81l44 71l6 -3l-29 -68h19v-81z" />
    <glyph glyph-name="quoteright" unicode="&#x2019;" horiz-adv-x="127" 
d="M43 700h40v-81l-44 -71l-6 3l29 68h-19v81z" />
    <glyph glyph-name="quotesinglbase" unicode="&#x201a;" horiz-adv-x="127" 
d="M43 81h40v-81l-44 -71l-6 3l29 68h-19v81z" />
    <glyph glyph-name="quotedblleft" unicode="&#x201c;" horiz-adv-x="228" 
d="M185 548h-40v81l44 71l6 -3l-29 -68h19v-81zM84 548h-40v81l44 71l6 -3l-29 -68h19v-81z" />
    <glyph glyph-name="quotedblright" unicode="&#x201d;" horiz-adv-x="228" 
d="M145 700h40v-81l-44 -71l-6 3l29 68h-19v81zM43 700h40v-81l-44 -71l-6 3l29 68h-19v81z" />
    <glyph glyph-name="quotedblbase" unicode="&#x201e;" horiz-adv-x="228" 
d="M145 81h40v-81l-44 -71l-6 3l29 68h-19v81zM43 81h40v-81l-44 -71l-6 3l29 68h-19v81z" />
    <glyph glyph-name="dagger" unicode="&#x2020;" horiz-adv-x="269" 
d="M155 -58h-41v565h-97v34h97v159h41v-159h97v-34h-97v-565z" />
    <glyph glyph-name="daggerdbl" unicode="&#x2021;" horiz-adv-x="269" 
d="M155 -58h-41v160h-97v34h97v371h-97v34h97v159h41v-159h97v-34h-97v-371h97v-34h-97v-160z" />
    <glyph glyph-name="bullet" unicode="&#x2022;" horiz-adv-x="221" 
d="M32 350q0 32 23 55.5t55 23.5q33 0 56 -23.5t23 -55.5t-23 -55t-56 -23q-32 0 -55 23t-23 55z" />
    <glyph glyph-name="ellipsis" unicode="&#x2026;" horiz-adv-x="330" 
d="M43 81h40v-81h-40v81zM145 81h40v-81h-40v81zM246 81h40v-81h-40v81z" />
    <glyph glyph-name="perthousand" unicode="&#x2030;" horiz-adv-x="616" 
d="M299 700h32l-200 -700h-32zM162 353q0 -40 -18 -57.5t-50 -17.5t-50.5 17.5t-18.5 57.5v281q0 40 18.5 57t50.5 17t50 -17t18 -57v-281zM128 635q0 42 -34 42q-19 0 -26.5 -10.5t-7.5 -31.5v-284q0 -20 7.5 -30.5t26.5 -10.5q34 0 34 41v284zM403 67q0 -40 -18 -57.5
t-50 -17.5t-50.5 17.5t-18.5 57.5v281q0 40 18.5 57t50.5 17t50 -17t18 -57v-281zM369 349q0 42 -34 42q-19 0 -26.5 -10.5t-7.5 -31.5v-284q0 -20 7.5 -30.5t26.5 -10.5q34 0 34 41v284zM590 67q0 -40 -18 -57.5t-50 -17.5t-50.5 17.5t-18.5 57.5v281q0 40 18.5 57t50.5 17
t50 -17t18 -57v-281zM556 349q0 42 -34 42q-19 0 -26.5 -10.5t-7.5 -31.5v-284q0 -20 7.5 -30.5t26.5 -10.5q34 0 34 41v284z" />
    <glyph glyph-name="guilsinglleft" unicode="&#x2039;" horiz-adv-x="154" 
d="M101 541h40l-88 -271l88 -270h-40l-88 270z" />
    <glyph glyph-name="guilsinglright" unicode="&#x203a;" horiz-adv-x="154" 
d="M141 270l-88 -270h-40l88 270l-88 271h40z" />
    <glyph glyph-name="fraction" unicode="&#x2044;" 
d="M211 700h32l-200 -700h-32z" />
    <glyph glyph-name="uni2070" unicode="&#x2070;" horiz-adv-x="188" 
d="M162 423q0 -40 -18 -57.5t-50 -17.5t-50.5 17.5t-18.5 57.5v281q0 40 18.5 57t50.5 17t50 -17t18 -57v-281zM128 705q0 42 -34 42q-19 0 -26.5 -10.5t-7.5 -31.5v-284q0 -20 7.5 -30.5t26.5 -10.5q34 0 34 41v284z" />
    <glyph glyph-name="uni2074" unicode="&#x2074;" horiz-adv-x="188" 
d="M149 488h20v-32h-20v-100h-34v100h-95v27l88 287h41v-282zM52 488h63v95q0 22 1 44.5t2 42.5t2 36.5t2 27.5q-2 -10 -6 -26t-9 -35t-11 -40t-12 -40z" />
    <glyph glyph-name="uni2080" unicode="&#x2080;" horiz-adv-x="188" 
d="M162 12q0 -40 -18 -57.5t-50 -17.5t-50.5 17.5t-18.5 57.5v281q0 40 18.5 57t50.5 17t50 -17t18 -57v-281zM128 294q0 42 -34 42q-19 0 -26.5 -10.5t-7.5 -31.5v-284q0 -20 7.5 -30.5t26.5 -10.5q34 0 34 41v284z" />
    <glyph glyph-name="uni2081" unicode="&#x2081;" horiz-adv-x="188" 
d="M80 335q25 0 28 24h19v-414h-35v358h-32v32h20z" />
    <glyph glyph-name="uni2082" unicode="&#x2082;" horiz-adv-x="188" 
d="M60 219h-32v74q0 40 17 57t49 17t49.5 -17t17.5 -57v-37q0 -45 -15.5 -77t-33.5 -61t-33.5 -59.5t-15.5 -71.5v-10h98v-32h-133v41q0 45 15.5 77.5t34 61.5t34 59.5t15.5 71.5v37q0 43 -34 43q-19 0 -26 -10.5t-7 -32.5v-74z" />
    <glyph glyph-name="uni2083" unicode="&#x2083;" horiz-adv-x="188" 
d="M69 175h24q19 0 26 9t7 30v79q0 22 -7.5 32.5t-25.5 10.5q-19 0 -26.5 -10.5t-7.5 -32.5v-63h-32v63q0 40 17.5 57t49.5 17t49.5 -17t17.5 -57v-73q0 -29 -10.5 -42.5t-25.5 -18.5q15 -5 25.5 -19.5t10.5 -43.5v-84q0 -41 -17.5 -58t-49.5 -17t-49.5 17t-17.5 58v71h32
v-71q0 -23 7.5 -33.5t26.5 -10.5q18 0 25.5 10.5t7.5 33.5v91q0 22 -7 31.5t-26 9.5h-24v31z" />
    <glyph glyph-name="uni2084" unicode="&#x2084;" horiz-adv-x="188" 
d="M149 77h20v-32h-20v-100h-34v100h-95v27l88 287h41v-282zM52 77h63v95q0 22 1 44.5t2 42.5t2 36.5t2 27.5q-2 -10 -6 -26t-9 -35t-11 -40t-12 -40z" />
    <glyph glyph-name="Euro" unicode="&#x20ac;" 
d="M1 323h29v54h-29v26h30v201q0 55 25 79.5t71 24.5q45 0 70 -24.5t25 -79.5v-135h-41v139q0 32 -12.5 48.5t-41.5 16.5q-30 0 -43 -16.5t-13 -48.5v-205h151v-26h-151v-54h151v-26h-151v-205q0 -32 13 -48.5t43 -16.5q29 0 41.5 16.5t12.5 48.5v139h41v-135
q0 -55 -25 -79.5t-70 -24.5q-46 0 -71 24.5t-25 79.5v201h-30v26z" />
    <glyph glyph-name="afii61352" unicode="&#x2116;" horiz-adv-x="475" 
d="M254 700v-700h-44l-104 478q-3 16 -7 35.5t-7.5 40.5t-7.5 42.5t-8 40.5q1 -19 2 -41t1.5 -44t1 -42t0.5 -35v-475h-38v700h59l89 -408q3 -15 7 -35.5t7.5 -42.5t7.5 -44t8 -41q-1 19 -2 41.5t-1.5 45t-1 43t-0.5 35.5v406h38zM450 390q0 -40 -17 -58t-51 -18t-51 18
t-17 58v243q0 40 17 57.5t51 17.5t51 -17.5t17 -57.5v-243zM314 269h136v-36h-136v36zM416 633q0 23 -7.5 33.5t-26.5 10.5t-26.5 -10.5t-7.5 -33.5v-244q0 -22 7.5 -32.5t26.5 -10.5t26.5 10.5t7.5 32.5v244z" />
    <glyph glyph-name="uni2117" unicode="&#x2117;" horiz-adv-x="439" 
d="M31 350q0 87 7 153.5t27.5 112t57.5 69t97 23.5q59 0 96 -23.5t57.5 -69t27.5 -112t7 -153.5t-7 -153.5t-27.5 -112t-57.5 -69t-96 -23.5q-60 0 -97 23.5t-57.5 69t-27.5 112t-7 153.5zM62 350q0 -78 5.5 -139t22 -103t47.5 -64.5t83 -22.5q51 0 82 22.5t47.5 64.5
t22 103t5.5 139t-5.5 139t-22 103t-47.5 64.5t-82 22.5q-52 0 -83 -22.5t-47.5 -64.5t-22 -103t-5.5 -139zM229 572q27 0 47.5 -15.5t20.5 -53.5v-138q0 -38 -20.5 -53.5t-47.5 -15.5h-36v-179h-35v455h71zM193 327h33q36 0 36 37v141q0 36 -36 36h-33v-214z" />
    <glyph glyph-name="trademark" unicode="&#x2122;" horiz-adv-x="328" 
d="M269 519q0 34 1 73t2 71q-3 -33 -8 -71t-10 -73l-24 -184h-28l-24 184q-5 34 -9.5 73t-7.5 71q0 -32 1 -71t1 -73v-184h-28v365h50l20 -155q5 -33 8 -64.5t5 -65.5q2 34 5 65.5t8 64.5l21 155h49v-365h-32v184zM0 700h108v-29h-38v-336h-32v336h-38v29z" />
    <glyph glyph-name="uni2126" unicode="&#x2126;" horiz-adv-x="270" 
d="M240 0h-82v40q20 5 28.5 26t8.5 50v482q0 35 -14 53t-46 18t-46 -18t-14 -53v-483q0 -29 9 -50t31 -26v-39h-84v39h44q-44 30 -44 106v449q0 61 27.5 87.5t76.5 26.5t77 -26.5t28 -87.5v-449q0 -77 -43 -106h43v-39z" />
    <glyph glyph-name="onethird" unicode="&#x2153;" horiz-adv-x="398" 
d="M269 700h32l-200 -700h-32zM50 676q25 0 28 24h19v-414h-35v358h-32v32h20zM280 230h24q19 0 26 9t7 30v79q0 22 -7.5 32.5t-25.5 10.5q-19 0 -26.5 -10.5t-7.5 -32.5v-63h-32v63q0 40 17.5 57t49.5 17t49.5 -17t17.5 -57v-73q0 -29 -10.5 -42.5t-25.5 -18.5
q15 -5 25.5 -19.5t10.5 -43.5v-84q0 -41 -17.5 -58t-49.5 -17t-49.5 17t-17.5 58v71h32v-71q0 -23 7.5 -33.5t26.5 -10.5q18 0 25.5 10.5t7.5 33.5v91q0 22 -7 31.5t-26 9.5h-24v31z" />
    <glyph glyph-name="twothirds" unicode="&#x2154;" horiz-adv-x="428" 
d="M299 700h32l-200 -700h-32zM60 560h-32v74q0 40 17 57t49 17t49.5 -17t17.5 -57v-37q0 -45 -15.5 -77t-33.5 -61t-33.5 -59.5t-15.5 -71.5v-10h98v-32h-133v41q0 45 15.5 77.5t34 61.5t34 59.5t15.5 71.5v37q0 43 -34 43q-19 0 -26 -10.5t-7 -32.5v-74zM310 230h24
q19 0 26 9t7 30v79q0 22 -7.5 32.5t-25.5 10.5q-19 0 -26.5 -10.5t-7.5 -32.5v-63h-32v63q0 40 17.5 57t49.5 17t49.5 -17t17.5 -57v-73q0 -29 -10.5 -42.5t-25.5 -18.5q15 -5 25.5 -19.5t10.5 -43.5v-84q0 -41 -17.5 -58t-49.5 -17t-49.5 17t-17.5 58v71h32v-71
q0 -23 7.5 -33.5t26.5 -10.5q18 0 25.5 10.5t7.5 33.5v91q0 22 -7 31.5t-26 9.5h-24v31z" />
    <glyph glyph-name="partialdiff" unicode="&#x2202;" 
d="M107 534q26 0 45 -14t29 -35v77q0 46 -15.5 75t-56.5 29h-19l7 34h17q57 0 82.5 -38.5t25.5 -98.5v-467q0 -55 -25 -79.5t-71 -24.5q-45 0 -70 24.5t-25 79.5v340q0 29 6 48t16 30t24 15.5t30 4.5zM181 426q0 29 -17.5 51t-43.5 22q-24 0 -36.5 -13t-12.5 -52v-342
q0 -32 13 -48.5t42 -16.5q30 0 42.5 16.5t12.5 48.5v334z" />
    <glyph glyph-name="uni2206" unicode="&#x2206;" 
d="M105 700h42l87 -700h-216zM59 36h131l-43 354q-6 52 -12 110.5t-11 129.5q-5 -71 -10.5 -129.5t-11.5 -110.5z" />
    <glyph glyph-name="product" unicode="&#x220f;" horiz-adv-x="286" 
d="M203 661h-120v-772h-44v811h209v-811h-45v772z" />
    <glyph glyph-name="summation" unicode="&#x2211;" horiz-adv-x="228" 
d="M213 -111h-185v35l110 371l-110 370v35h185v-39h-139l106 -366l-106 -367h139v-39z" />
    <glyph glyph-name="minus" unicode="&#x2212;" 
d="M222 331h-191v37h191v-37z" />
    <glyph glyph-name="radical" unicode="&#x221a;" 
d="M91 368l9 -75q5 -47 11 -102.5t11 -123.5q5 76 11.5 134.5t11.5 105.5l50 393h41l-89 -700h-49l-41 331h-40v37h74z" />
    <glyph glyph-name="infinity" unicode="&#x221e;" horiz-adv-x="733" 
d="M345 317q-8 0 -13.5 4t-10 8.5t-8 8.5t-6.5 4q-5 0 -11 -2t-14 -2t-14.5 8.5t-6.5 16.5q0 9 2 19t6 16q-7 -7 -10 -17t-6 -21t-8.5 -22t-17.5 -18q-14 -9 -16 -19t-2 -21q0 -14 11 -21.5t11 -12.5q0 -4 -3 -4q-7 0 -12 5q6 -31 18 -58t30 -46h-55q-6 18 -12 43.5
t-11 55.5t-8.5 62.5t-3.5 64.5q0 46 8 89t28 76t54 53t86 20q57 0 94 -21.5t58.5 -57.5t29.5 -81.5t8 -93.5q0 -59 -8.5 -114t-16.5 -96h-73q28 25 42.5 54t19.5 63q-1 -2 -5.5 -5t-7.5 -3t-3 2q0 1 3 3t6 5.5t6 10.5t3 18q-2 -3 -7.5 -4.5t-7.5 -1.5q-3 0 -10.5 -4.5
t-15.5 -4.5q-14 0 -22 1t-18 2.5t-25.5 2.5t-44.5 1t-52.5 -6t-38.5 -6q-7 0 -13 2t-11 2t-16.5 2.5t-11.5 9.5q0 5 10.5 10t26.5 8.5t36 6t38 2.5q8 0 12 -0.5t12 -0.5t15.5 2t14.5 2q51 0 85.5 -5.5t41.5 -14.5q-1 15 -14 28.5t-30 13.5q-6 0 -6 7q0 27 -3 42t-13 16
q4 -7 4 -17q0 -17 -10.5 -31.5t-27.5 -14.5q-5 0 -10 2t-7 2t-5.5 -4.5t-9 -9.5t-12 -9.5t-15.5 -4.5zM733 143q-9 21 -27.5 51t-39 58t-39.5 48t-30 20q3 -45 0 -87.5t-12 -89.5h-42q6 39 11 90.5t5 108.5q0 58 -9 115t-32.5 102.5t-65 73.5t-106.5 28q-56 0 -92.5 -27
t-58 -71t-30.5 -99t-9 -111q0 -64 9 -120t20 -90h-47q-13 45 -16 90.5t-3 93.5q-14 -8 -31 -32t-33.5 -53t-31 -56.5t-23.5 -42.5v148q9 23 25 44t33 38.5t32 31t23 22.5q2 51 16.5 102t42.5 92t68.5 67t95.5 26q70 0 116.5 -23.5t75 -62t43.5 -89t22 -104.5
q9 -2 26.5 -13.5t38 -30.5t41 -44.5t34.5 -55.5v-148zM345 503q-3 3 -3 6q0 2 2 2t12 -8.5t31 -8.5q27 0 40 8.5t15 8.5q4 0 4 -2t-3.5 -4.5t-4.5 -3.5q9 0 23.5 -3t28.5 -8q-14 37 -45 58.5t-94 21.5q-58 0 -94 -34.5t-48 -83.5q13 7 26 17.5t15 21.5q-6 4 -6 7q0 4 3 4
q1 0 13 -8t36 -8q12 0 25 4.5t24 12.5zM371 416q0 9 -1 19.5t-3 19.5t-4.5 15t-5.5 6q-7 0 -11.5 -12t-8 -27t-6.5 -27t-7 -12q-5 0 -9.5 3t-11.5 3q-14 0 -21.5 -10.5t-7.5 -24.5q0 -5 3 -9.5t8 -4.5q14 0 18 6.5t9 6.5q2 0 5 -4t6.5 -9.5t8.5 -9.5t12 -4q9 0 15 3.5t10 7
t6.5 7t5.5 3.5q5 0 10 -3.5t9 -3.5q11 0 18.5 11t7.5 24q0 9 -5.5 17.5t-16.5 8.5q-10 0 -14.5 -6.5t-11.5 -6.5q-5 0 -6 4.5t-1 8.5zM510 318q0 36 -2 73.5t-10 73.5l-5 3q0 -23 -19.5 -33t-39.5 -10q-21 0 -37 12.5t-16 29.5q0 6 2 9q-4 1 -8 1.5t-7 2.5q6 -8 8.5 -18
t4.5 -18.5t3 -14.5t4 -6q5 2 8.5 2h6.5q19 0 31 -14q11 0 18 -6t10.5 -14.5t4.5 -17t1 -13.5q0 -3 5 -5.5t12 -7t14 -11.5t11 -18zM383 310q-1 0 -5 -0.5t-10 -1.5t-12 -1.5t-10 -0.5q-7 0 -13 1.5t-11 1.5q-12 0 -27 -2.5t-28 -6t-21.5 -7t-8.5 -5.5q0 -8 7.5 -9t12.5 -1
q17 0 30 2t24 4.5t21.5 4.5t22.5 2q27 0 57 -3.5t53 -3.5q8 0 14 3.5t6 5.5q0 3 -10.5 6t-25.5 5.5t-33 4t-33 1.5zM267 413q-20 0 -32 10t-14 21q-4 -2 -8 -3t-7 -2q-2 -12 -3 -22.5t-1 -20.5q0 -20 0.5 -38.5t2.5 -39.5q5 8 12 13.5t13 11t10.5 12t6.5 16.5q2 17 11 28
t27 13q12 5 23 5q4 0 6.5 5.5t5.5 14t8 19.5t14 22l-13 -4q-1 -23 -18 -42t-44 -19zM419 465q-8 0 -11.5 4.5t-4.5 8.5q-6 0 -9 -6t-3 -9q0 -11 16 -17.5t30 -6.5q13 0 28.5 8t15.5 22q0 8 -15.5 12.5t-27.5 4.5q-2 -7 -6 -14t-13 -7zM267 427q14 0 30 10.5t16 24.5
q0 6 -1 9h-16.5t-10.5 1q-5 -14 -18 -14q-4 0 -7.5 0.5t-7.5 4.5q-4 -4 -8.5 -6.5t-9.5 -5.5q2 -12 12 -18t21 -6zM266 288q-2 0 -2 3t13.5 5.5t31 4t35.5 2t27 0.5q7 0 22.5 -0.5t31.5 -1.5t27.5 -2.5t11.5 -3.5q0 -3 -3 -3q-2 0 -21 2.5t-67 2.5q-30 0 -50 -1.5t-32 -3
t-17.5 -3t-7.5 -1.5zM305 262q0 3 8 5t18.5 3t21 1.5t15.5 0.5h5t11 -1t10.5 -2.5t4.5 -4.5t-2 -3q-6 0 -10 2t-10 2q-14 0 -26 -0.5t-20 -0.5q-6 0 -11.5 -3t-10.5 -3q-4 0 -4 4zM417 473q9 0 9 13q-4 0 -8 -2l-8 -4q0 -7 7 -7zM266 466q7 0 10 9q-6 1 -11 4q0 -4 -6 -10
q1 -3 7 -3zM322 82l-10 -82h-21l15 125h25l4 -60l21 60h26l-15 -125h-22l10 82l-16 -48h-14zM56 125q9 0 15.5 -5t4.5 -16l-10 -82q-3 -22 -22 -22h-38l15 125h35zM282 44q-1 -12 -10 -17l8 -27h-21l-7 23h-7l-3 -23h-22l15 125h36q9 0 14.5 -5.5t3.5 -18.5zM186 23h-14
l-3 -23h-21l12 104q1 11 7 16t15 5h17q19 0 18 -21l-12 -104h-22zM609 125h35q23 0 20 -21l-8 -62q-3 -19 -22 -19h-15l-3 -23h-22zM114 23h-13l-3 -23h-22l15 125h22l-10 -83h13l10 83h22l-15 -125h-22zM561 125l-10 -79q0 -4 4 -4h5q5 0 5 4l9 79h22l-10 -81
q-3 -21 -19 -21l-9 -23h-23l9 23q-18 0 -15 21l10 81h22zM480 125h50l-3 -19h-13l-12 -106h-23l12 106h-14zM30 18h11q3 0 3 4l9 80q0 4 -4 4h-8zM621 42h8q5 0 5 4l7 56q0 4 -4 4h-8zM188 42l7 60q0 4 -4 4h-5q-5 0 -5 -4l-7 -60h14zM247 42h8q5 0 5 4l7 56q0 4 -3 4h-9z
M708 39h-19l-3 -21h27l-2 -18h-49l15 125h47l-3 -19h-24l-6 -49h20zM420 23h-14l-3 -23h-21l12 104q1 11 7 16t15 5h17q19 0 18 -21l-12 -104h-22zM422 42l7 60q0 4 -4 4h-5q-5 0 -5 -4l-7 -60h14z" />
    <glyph glyph-name="integral" unicode="&#x222b;" 
d="M47 -111v35h26q17 0 24.5 7.5t7.5 27.5v674q0 36 16 51.5t53 15.5h32v-35h-28q-18 0 -25 -7.5t-7 -27.5v-674q0 -36 -16 -51.5t-53 -15.5h-30z" />
    <glyph glyph-name="approxequal" unicode="&#x2248;" 
d="M222 285q-13 -14 -25 -19t-24 -5q-13 0 -25.5 4t-24.5 9.5t-23.5 9.5t-23.5 4q-11 0 -22.5 -5t-22.5 -19v37q13 13 25 18t24 5t24.5 -4t24.5 -9.5t23.5 -9.5t23.5 -4q11 0 22.5 5.5t23.5 19.5v-37zM222 399q-13 -14 -25 -19t-24 -5q-13 0 -25.5 4t-24.5 9.5t-23.5 9.5
t-23.5 4q-11 0 -22.5 -5t-22.5 -19v37q13 13 25 18t24 5t24.5 -4t24.5 -9.5t23.5 -9.5t23.5 -4q11 0 22.5 5.5t23.5 19.5v-37z" />
    <glyph glyph-name="notequal" unicode="&#x2260;" 
d="M222 274h-119l-37 -68h-35l37 68h-37v36h56l43 79h-99v36h119l37 68h35l-37 -68h37v-36h-57l-43 -79h100v-36z" />
    <glyph glyph-name="lessequal" unicode="&#x2264;" 
d="M222 289v-59h-191v37h158l-158 76v35l191 92v-36l-150 -73z" />
    <glyph glyph-name="greaterequal" unicode="&#x2265;" 
d="M181 361l-150 73v36l191 -92v-35l-158 -76h158v-37h-191v59z" />
    <glyph glyph-name="lozenge" unicode="&#x25ca;" 
d="M234 350l-89 -350h-39l-88 350l88 350h39zM195 350l-44 179q-7 26 -14.5 60t-10.5 60q-3 -26 -10.5 -60t-14.5 -60l-43 -179l43 -180q7 -26 14.5 -60t10.5 -60q3 26 10 60t15 60z" />
    <glyph glyph-name="glyph335" horiz-adv-x="205" 
d="M88 -41h39v-59l-42 -67l-6 3l27 64h-18v59z" />
    <glyph glyph-name="ampersand.aalt" horiz-adv-x="264" 
d="M69 452q0 -38 15 -53.5t54 -15.5h117v-36h-28v-246q0 -59 -26.5 -84t-73.5 -25t-73.5 25t-26.5 84v173q0 41 14.5 61.5t37.5 28.5q-23 8 -37.5 28.5t-14.5 62.5v144q0 59 26 84t72 25q48 0 73.5 -25t25.5 -84v-125h-40v129q0 33 -13.5 50.5t-43.5 17.5q-58 0 -58 -68
v-151zM184 347h-46q-39 0 -54 -15.5t-15 -53.5v-181q0 -68 58 -68q30 0 43.5 17.5t13.5 50.5v250z" />
    <glyph glyph-name="i.locl" horiz-adv-x="118" 
d="M39 0v541h40v-541h-40zM39 612v68h40v-68h-40z" />
    <glyph glyph-name="r.aalt" horiz-adv-x="154" 
d="M79 0h-40v541h38v-52q6 26 20.5 42.5t43.5 16.5h6v-38h-6q-38 0 -50 -26.5t-12 -70.5v-413z" />
    <glyph glyph-name="zero.tnum" 
d="M222 96q0 -55 -25 -79.5t-71 -24.5q-45 0 -70 24.5t-25 79.5v508q0 55 25 79.5t70 24.5q46 0 71 -24.5t25 -79.5v-508zM181 608q0 32 -12.5 48.5t-42.5 16.5q-29 0 -42 -16.5t-13 -48.5v-516q0 -32 13 -48.5t42 -16.5q30 0 42.5 16.5t12.5 48.5v516z" />
    <glyph glyph-name="one.tnum" 
d="M60 674h62q16 0 22.5 7.5t6.5 18.5h26v-700h-41v640h-76v34z" />
    <glyph glyph-name="two.tnum" 
d="M36 440v161q0 56 24.5 81.5t69.5 25.5t70 -25.5t25 -81.5v-81q0 -47 -11 -84.5t-28 -70t-36.5 -63.5t-36.5 -64.5t-28 -72t-11 -86.5v-38h149v-41h-190v75q0 53 11 94.5t28 76.5t36.5 66t36.5 62.5t28 66t11 77.5v87q0 32 -12.5 50t-42.5 18t-42.5 -18t-12.5 -50v-165
h-38z" />
    <glyph glyph-name="three.tnum" 
d="M70 268v-173q0 -32 12.5 -50t42.5 -18q29 0 42 18t13 50v185q0 33 -12 50t-43 17h-32v36h32q31 0 43 17t12 50v155q0 32 -13 50t-42 18q-30 0 -42.5 -18t-12.5 -50v-143h-39v140q0 56 25 81t70 25t69.5 -25t24.5 -81v-142q0 -45 -12.5 -66t-34.5 -29q22 -8 34.5 -29.5
t12.5 -65.5v-171q0 -56 -24.5 -81.5t-69.5 -25.5t-70 25.5t-25 81.5v169h39z" />
    <glyph glyph-name="four.tnum" 
d="M231 165h-33v-165h-41v165h-135v34l129 501h47v-496h33v-39zM60 204h97v241q0 54 1.5 102.5t4.5 86.5q-7 -37 -17 -85.5t-23 -97.5z" />
    <glyph glyph-name="five.tnum" 
d="M73 258v-163q0 -32 12.5 -50t42.5 -18q29 0 42 18t13 50v334q0 38 -12.5 51.5t-36.5 13.5q-26 0 -43.5 -22t-17.5 -51v-71h-39v350h187v-41h-148v-179q9 21 28.5 35t45.5 14q16 0 30 -4.5t24 -16t16 -30.5t6 -48v-331q0 -56 -24.5 -81.5t-69.5 -25.5t-70 25.5t-25 81.5
v159h39z" />
    <glyph glyph-name="six.tnum" 
d="M72 428q9 22 28.5 36.5t46.5 14.5q32 0 54 -20.5t22 -78.5v-284q0 -55 -25 -79.5t-71 -24.5q-45 0 -70 24.5t-25 79.5v505q0 56 24.5 81.5t69.5 25.5t70 -25.5t25 -81.5v-59h-39v63q0 32 -12.5 50t-42.5 18q-29 0 -42 -18t-13 -50v-177zM72 92q0 -32 13 -48.5t42 -16.5
q30 0 42.5 16.5t12.5 48.5v287q0 38 -12 51t-36 13q-26 0 -44 -21.5t-18 -50.5v-279z" />
    <glyph glyph-name="seven.tnum" 
d="M38 700h189v-35l-144 -665h-45l150 659h-150v41z" />
    <glyph glyph-name="eight.tnum" 
d="M221 460q0 -37 -10.5 -60.5t-36.5 -34.5q26 -11 36.5 -35t10.5 -60v-174q0 -56 -25 -80t-70 -24t-70.5 24t-25.5 80v174q0 36 10.5 60t36.5 35q-26 11 -36.5 34.5t-10.5 60.5v144q0 56 25.5 80t70.5 24q46 0 70.5 -24t24.5 -80v-144zM126 347q-35 0 -45 -17.5t-10 -54.5
v-183q0 -32 12.5 -48.5t42.5 -16.5t42.5 16.5t12.5 48.5v183q0 37 -11 54.5t-44 17.5zM126 383q33 0 44 17.5t11 54.5v152q0 32 -12.5 49t-42.5 17t-42.5 -17t-12.5 -49v-152q0 -37 10.5 -54.5t44.5 -17.5z" />
    <glyph glyph-name="nine.tnum" 
d="M29 604q0 55 25.5 79.5t70.5 24.5t70.5 -24.5t25.5 -79.5v-505q0 -56 -25 -81.5t-70 -25.5t-69.5 25.5t-24.5 81.5v74h38v-78q0 -32 12.5 -50t42.5 -18t42.5 18t12.5 50v189q-10 -20 -29 -34t-45 -14q-16 0 -30 4.5t-24.5 16t-16.5 30.5t-6 48v269zM119 272
q26 0 43.5 21.5t17.5 50.5v264q0 32 -12.5 48.5t-42.5 16.5t-42.5 -16.5t-12.5 -48.5v-272q0 -38 12.5 -51t36.5 -13z" />
    </font>
</defs>
</svg>
