<svg width="44" height="46" viewBox="0 0 44 46" fill="none" xmlns="http://www.w3.org/2000/svg">
<g clip-path="url(#clip0_1137_20)">
<path d="M44 18.8702C44 19.7379 43.6003 20.52 42.8766 21.0699C42.5617 21.3052 42.2498 21.5343 41.9379 21.7482C41.947 21.8093 41.9561 21.8704 41.9682 21.9254C42.0439 22.2828 42.0833 22.7014 42.0833 23.2055C42.0833 24.2107 41.7835 25.1181 41.2052 25.888L41.5897 26.5571L41.6048 26.5815C41.8289 27.0031 41.941 27.4706 41.941 27.9655C41.941 28.6988 41.6775 29.3495 41.1961 29.8414C41.2142 30.04 41.2233 30.2416 41.2233 30.4463C41.2233 30.7641 41.193 31.0818 41.1325 31.3965C41.2294 31.7326 41.302 32.0717 41.3535 32.4078C41.4262 32.8752 41.4625 33.3274 41.4625 33.7521C41.4625 35.5088 40.9054 37.1464 39.8092 38.622C38.7858 39.9999 37.3535 41.2067 35.5519 42.2088C33.8168 43.1743 31.7638 43.935 29.4534 44.4666C27.1673 44.9952 24.6541 45.261 21.9803 45.261C19.3066 45.261 16.7933 44.9952 14.5072 44.4666C12.1968 43.935 10.1438 43.1743 8.40878 42.2088C6.60712 41.2067 5.17487 39.9999 4.1514 38.622C3.05526 37.1464 2.49811 35.5088 2.49811 33.7521C2.49811 33.4252 2.5193 33.0799 2.5617 32.7286C2.25284 31.9862 2.09841 31.2193 2.09841 30.4463V30.3638C1.31416 29.8384 0.878123 29.0318 0.878123 28.0847C0.878123 27.4186 1.10522 26.7801 1.53217 26.2424L2.65556 24.8339C2.37093 24.6934 2.10447 24.5437 1.8592 24.3787C0.320969 23.3552 0 22.0354 0 21.1066C0 19.9731 0.469341 18.913 1.39288 17.9628C1.70477 17.6389 2.05905 17.3426 2.44663 17.0768C2.20136 16.2916 2.07721 15.4545 2.07721 14.5746C2.07721 12.882 2.52536 11.1558 3.40954 9.44185C4.27252 7.76455 5.57154 6.20946 7.26419 4.81934C8.93566 3.4445 11.031 2.3263 13.4868 1.49834C15.9213 0.676493 18.7797 0.260986 21.9803 0.260986C25.1809 0.260986 28.0424 0.676493 30.483 1.49834C32.9447 2.3263 35.0432 3.4445 36.7176 4.81934C38.4103 6.20946 39.7063 7.76455 40.5723 9.44185C41.4534 11.1558 41.9016 12.882 41.9016 14.5746C41.9016 14.6937 41.8986 14.8129 41.8955 14.9351C42.0712 15.0573 42.2407 15.1917 42.4042 15.3384C43.4489 16.2763 44 17.4984 44 18.8702Z" fill="white"/>
<path d="M3.0625 19.511C3.6875 19.1776 5.0125 18.4485 5.3125 18.1985C10.0625 22.7985 20.9583 23.1151 25.8125 22.6985C34.5125 22.4485 38.3958 18.4693 39.25 16.511C40.9 16.161 41.6458 17.9485 41.8125 18.886C40.3625 19.436 39.8333 20.6985 39.75 21.261C40.15 23.061 39.5833 24.511 39.25 25.011L35.25 26.136C33.55 28.786 30.5833 28.7818 29.3125 28.4485C28.6667 27.5735 26.225 26.3485 21.625 28.4485C17.025 30.5485 15.25 28.2818 14.9375 26.886C11.5875 28.386 8.41667 26.8026 7.25 25.8235L5.875 23.5735L2.4375 21.8235L3.0625 19.511Z" fill="#FF7171"/>
<path d="M18.8006 29.8414C17.7075 29.8414 16.8354 29.6734 16.1813 29.3373C15.5273 29.0012 14.9611 28.3841 14.4826 27.4828C13.2442 27.7119 12.1904 27.825 11.3244 27.825C9.79225 27.825 8.59619 27.5531 7.73623 27.0092C6.87628 26.4654 6.2737 25.5397 5.92851 24.2351C4.55682 24.006 3.47582 23.6302 2.69157 23.1047C1.90731 22.5792 1.51367 21.9162 1.51367 21.1096C1.51367 20.3825 1.83464 19.692 2.47355 19.0321C3.11246 18.3722 3.9603 17.862 5.01102 17.4984L5.53184 19.0107C4.52049 19.3865 3.86341 19.7348 3.56363 20.0495C3.26386 20.3642 3.11246 20.685 3.11246 21.0088C3.11246 21.3846 3.41829 21.7421 4.03298 22.0781C4.64766 22.4142 5.63782 22.7564 7.00951 23.1077C7.19725 24.2107 7.68778 25.0203 8.48718 25.5366C9.28657 26.053 10.4645 26.3126 12.0239 26.3126C12.5023 26.3126 13.0322 26.2851 13.6136 26.2332C14.195 26.1813 14.8218 26.0988 15.5031 25.9918C15.7817 26.5693 16.0451 27.0184 16.2934 27.3331C16.5417 27.6478 16.8536 27.8647 17.2321 27.9777C17.6106 28.0908 18.1344 28.1488 18.8006 28.1488C19.6 28.1488 20.4084 27.9747 21.229 27.6233C22.0496 27.272 22.8823 26.9267 23.7271 26.5846C24.572 26.2424 25.4107 26.0713 26.2343 26.0713C27.058 26.0713 27.9694 26.2149 28.8838 26.5051C29.7983 26.7954 30.6128 26.939 31.3335 26.939C32.0542 26.939 32.6779 26.7159 33.1715 26.2729C33.6651 25.8299 34.0587 25.3044 34.3494 24.6995C34.5765 24.7545 34.8278 24.8034 35.1094 24.8523C35.391 24.9011 35.6757 24.9225 35.9694 24.9225C36.6749 24.9225 37.3532 24.7789 37.9982 24.4887C38.6431 24.1984 38.9671 23.7738 38.9671 23.2086C38.9671 22.9672 38.9368 22.6831 38.8763 22.3623C38.8157 22.0415 38.7854 21.7024 38.7854 21.3541C38.7854 20.7369 39.0277 20.1992 39.5152 19.7409C40.0027 19.2826 40.5508 18.8549 41.1655 18.4516L40.9262 18.9954C40.9262 18.3905 40.7234 17.9231 40.3176 17.5931C39.9119 17.2631 39.3941 17.0982 38.7673 17.0982V15.5064C39.7938 15.5064 40.6689 15.8333 41.3956 16.4841C42.1223 17.1348 42.4857 17.9322 42.4857 18.8732C42.4857 19.2643 42.3131 19.5882 41.9648 19.8509C41.6166 20.1136 41.2714 20.3611 40.9262 20.5964C40.581 20.8316 40.4054 21.1096 40.4054 21.4335C40.4054 21.7298 40.4327 22.0018 40.4841 22.2492C40.5356 22.4967 40.5629 22.8175 40.5629 23.2086C40.5629 24.1893 40.1541 24.9959 39.3335 25.6283C38.5129 26.2607 37.5924 26.5754 36.5659 26.5754C36.0875 26.5754 35.5546 26.4868 34.9671 26.3126C34.301 27.8311 33.1019 28.5918 31.3698 28.5918C30.4372 28.5918 29.5258 28.4513 28.6325 28.1671C27.7393 27.883 26.9611 27.7425 26.2949 27.7425C25.3744 27.7425 24.5175 27.9166 23.7181 28.268C22.9187 28.6193 22.1253 28.9676 21.3411 29.3159C20.5568 29.6642 19.709 29.8414 18.8036 29.8414H18.8006ZM22.8581 38.4937C20.248 37.1891 17.874 36.0312 15.7423 35.0138C13.6106 33.9995 11.5455 33.031 9.54698 32.1114C7.54849 31.1918 5.42889 30.2325 3.19119 29.2365C2.65826 28.9951 2.39179 28.6102 2.39179 28.0877C2.39179 27.7639 2.49777 27.4706 2.71276 27.2017L5.45008 23.7738L6.57045 24.5803L4.07234 27.605C3.97847 27.7394 3.93911 27.8769 3.95122 28.0174C3.96333 28.158 4.0572 28.2619 4.2298 28.3291C6.93381 29.4442 9.74683 30.6816 12.6628 32.0411C15.5788 33.4007 18.5856 34.8916 21.6772 36.517C22.1435 36.7584 22.5826 36.7584 22.9974 36.517C25.3411 35.2002 27.8119 33.8529 30.4039 32.475C32.9959 31.0971 35.7907 29.655 38.7885 28.1488C39.0428 28.0144 39.1004 27.8189 38.9671 27.5653L37.3683 24.8217L38.5462 24.3176L40.2661 27.3025C40.3721 27.5042 40.4266 27.7272 40.4266 27.9686C40.4266 28.4666 40.1874 28.8301 39.706 29.0562C36.7355 30.5074 33.877 31.9923 31.1306 33.5137C28.3873 35.0322 25.6287 36.6942 22.8551 38.4937H22.8581ZM21.98 23.5294C18.1556 23.5294 14.8702 23.1963 12.1268 22.5303C9.38347 21.8643 7.27295 20.8652 5.80133 19.5362C4.32972 18.2041 3.59391 16.5513 3.59391 14.5746C3.59391 13.1234 3.9815 11.6477 4.75364 10.1476C5.52578 8.64749 6.68248 7.26654 8.22071 6.00475C9.75894 4.73989 11.6757 3.72251 13.9679 2.94955C16.2601 2.17658 18.9308 1.78857 21.983 1.78857C25.0352 1.78857 27.709 2.17658 30.0072 2.94955C32.3055 3.72251 34.2253 4.73989 35.7635 6.00475C37.3017 7.2696 38.4584 8.65055 39.2306 10.1476C40.0027 11.6446 40.3903 13.1234 40.3903 14.5746C40.3903 16.5513 39.6545 18.2041 38.1829 19.5362C36.7113 20.8683 34.5977 21.8643 31.8483 22.5303C29.0988 23.1963 25.8104 23.5294 21.986 23.5294H21.98ZM21.9588 38.8145C20.254 38.8145 18.5947 38.6954 16.9807 38.4601C15.3668 38.2249 13.8982 37.8949 12.575 37.4733C11.2517 37.0517 10.1586 36.5567 9.30777 35.9915C7.17605 35.4263 5.69232 34.635 4.85962 33.6115C4.02692 32.588 3.60905 31.534 3.60905 30.4463C3.60905 29.8689 3.76348 29.3159 4.06931 28.7935L22.5765 37.6047L39.2245 28.2069C39.5455 28.9065 39.7029 29.652 39.7029 30.4463C39.7029 31.5218 39.2154 32.5605 38.2434 33.5626C37.2714 34.5647 35.9482 35.4568 34.2767 36.2451C32.6053 37.0333 30.7097 37.6566 28.5901 38.121C26.4705 38.5854 24.2601 38.8176 21.9558 38.8176L21.9588 38.8145ZM21.98 43.7364C19.4092 43.7364 17.0292 43.4829 14.846 42.9787C12.6598 42.4746 10.7582 41.7719 9.14123 40.8707C7.52427 39.9694 6.26462 38.9153 5.36227 37.7055C4.45992 36.4956 4.01178 35.1788 4.01178 33.752C4.01178 33.4038 4.04206 33.0341 4.10262 32.643C4.16318 32.2519 4.26008 31.8639 4.39331 31.4729L5.91337 32.1389C5.71352 32.7041 5.6136 33.2418 5.6136 33.752C5.6136 34.9497 6.01935 36.0587 6.83388 37.0792C7.64842 38.0996 8.78998 38.9917 10.2616 39.7525C11.7332 40.5132 13.4652 41.1029 15.4577 41.5275C17.4501 41.9522 19.6242 42.163 21.983 42.163C24.3418 42.163 26.5159 41.9522 28.5084 41.5275C30.5008 41.1029 32.2328 40.5132 33.7044 39.7525C35.176 38.9917 36.3206 38.1026 37.1321 37.0792C37.9437 36.0557 38.3524 34.9497 38.3524 33.752C38.3524 33.2418 38.2525 32.7041 38.0527 32.1389L39.5727 31.4729C39.706 31.8639 39.8028 32.2519 39.8634 32.643C39.924 33.0341 39.9542 33.4038 39.9542 33.752C39.9542 35.1758 39.5031 36.4956 38.6038 37.7055C37.7044 38.9153 36.4448 39.9694 34.8248 40.8707C33.2048 41.7719 31.3032 42.4746 29.12 42.9787C26.9338 43.4829 24.5568 43.7364 21.986 43.7364H21.98ZM21.98 21.9559C27.4425 21.9559 31.6091 21.3143 34.4826 20.0312C37.3532 18.748 38.7885 16.9301 38.7885 14.5776C38.7885 13.0195 38.3615 11.5622 37.5106 10.2118C36.6598 8.86136 35.4667 7.66983 33.9315 6.64328C32.3963 5.61674 30.6128 4.81016 28.575 4.23273C26.5371 3.6553 24.3388 3.36506 21.98 3.36506C19.6212 3.36506 17.4259 3.6553 15.3941 4.23273C13.3623 4.81016 11.5788 5.61368 10.0466 6.64328C8.51443 7.67288 7.32139 8.86136 6.4675 10.2118C5.6136 11.5622 5.18967 13.0195 5.18967 14.5776C5.18967 16.9301 6.62495 18.748 9.4955 20.0312C12.3661 21.3143 16.5265 21.9559 21.977 21.9559H21.98ZM21.2805 31.2132C18.8157 31.2132 16.5689 30.9871 14.5462 30.538C12.5205 30.0889 10.8763 29.5878 9.61057 29.0348C8.0784 28.3627 6.99134 27.5928 6.35243 26.7251C5.71352 25.8574 5.39255 24.6903 5.39255 23.2269L8.87173 26.2729L15.2669 27.3025L18.4857 28.7935L25.1412 27.0398L31.5757 27.4645L34.8127 25.5702L37.6318 25.005C37.2987 25.891 36.7748 26.6487 36.0633 27.275C35.3517 27.9013 34.3797 28.4879 33.1564 29.0409C31.8907 29.6061 30.2374 30.1103 28.1995 30.5533C26.1617 30.9963 23.8543 31.2193 21.2835 31.2193L21.2805 31.2132ZM19.3214 8.38475L18.5826 7.37653C18.8218 7.17489 19.0701 7.00685 19.3214 6.87242C19.5727 6.73799 19.815 6.63106 20.0421 6.54857L20.581 7.5965C20.3691 7.67594 20.1511 7.79204 19.93 7.93869C19.709 8.08534 19.5061 8.23504 19.3214 8.38169V8.38475ZM24.2389 12.1365L23.0398 11.9563C23.0792 11.6477 23.1458 11.3575 23.2396 11.0886C23.3335 10.8197 23.4334 10.5784 23.5394 10.3615L24.5599 10.7036C24.4811 10.8931 24.4145 11.1191 24.36 11.388C24.3055 11.6569 24.2661 11.9043 24.2389 12.1335V12.1365ZM25.9376 8.36641C25.7105 8.2992 25.4925 8.25948 25.2775 8.24421C25.0625 8.22893 24.8445 8.22282 24.6174 8.22282V7.01296C24.8566 7.01296 25.1352 7.02213 25.4471 7.04351C25.7589 7.0649 26.0224 7.11378 26.2374 7.19627L25.9376 8.36641V8.36641Z" fill="black"/>
</g>
<defs>
<clipPath id="clip0_1137_20">
<rect width="44" height="45" fill="white" transform="translate(0 0.260986)"/>
</clipPath>
</defs>
</svg>
