<svg width="189" height="186" viewBox="0 0 189 186" fill="none" xmlns="http://www.w3.org/2000/svg">
<g filter="url(#filter0_d_895_838)">
<path d="M115.901 60.1862L63.1422 91.0781C71.7283 74.574 80.3088 58.095 88.9066 41.606C90.8089 37.9418 89.6529 34.4193 85.7818 32.2008C84.9716 31.7298 84.1671 31.2335 83.3625 30.7372C81.8171 29.7953 80.2367 28.8078 78.4787 27.9464C76.9925 27.2116 75.4581 26.9668 74.2411 26.778C73.8661 26.7117 73.4855 26.6707 73.1161 26.5792L71.3444 26.1875L67.6103 28.3739L66.6547 29.9888C66.2735 30.6297 65.8979 31.2454 65.5573 31.9066L31.8837 95.9695C30.2821 99.0179 30.8233 101.251 31.565 102.576C32.3067 103.901 33.9446 105.646 37.6378 106.429L39.5593 106.821C41.1635 107.157 42.7561 107.478 44.3492 107.864C52.7278 118.722 61.0603 129.586 69.4217 140.454L74.9263 147.63C77.987 151.62 82.5157 152.42 87.0069 149.791L154.564 110.234C159.055 107.604 159.913 103.65 156.864 99.675L128.223 62.337C125.07 58.2255 120.581 57.4456 115.918 60.1761L115.901 60.1862Z" fill="white"/>
<path d="M72.1427 30.1177C73.6027 30.4281 75.2049 30.5013 76.4655 31.1044C78.9116 32.3104 81.1645 33.8495 83.5312 35.2119C85.6722 36.4427 86.1912 38.0296 85.1348 40.0333C75.1572 59.1771 65.1967 78.3109 55.248 97.4598C54.6856 98.5146 54.2214 99.5999 53.5182 101.089L54.9465 100.253C76.0431 87.8999 97.1397 75.5471 118.254 63.1843C121.041 61.5521 122.916 61.8833 124.79 64.326C134.344 76.7821 143.887 89.2231 153.442 101.679C155.211 103.985 154.837 105.677 152.256 107.188C129.731 120.377 107.207 133.566 84.6989 146.745C82.1349 148.246 80.1618 147.885 78.3873 145.604C68.1113 132.207 57.8353 118.81 47.5076 105.444C47.1468 104.973 46.4698 104.578 45.8291 104.426C43.4395 103.846 41.0104 103.378 38.5925 102.859C35.1705 102.136 34.1829 100.296 35.6595 97.4747C41.2084 86.9262 46.7457 76.3626 52.2946 65.8142C57.9741 55.0134 63.6364 44.2226 69.3159 33.4218C69.776 32.5588 70.3055 31.7211 70.8117 30.8531C71.2591 30.5911 71.6893 30.3392 72.1367 30.0773L72.1427 30.1177ZM104.877 87.7479C107.579 86.166 109.825 84.543 112.329 83.4508C116.584 81.6188 118.551 78.8184 118.865 74.6769C119.059 72.101 120.18 69.5974 120.887 67.0728C116.196 69.182 112.261 71.4641 108.367 73.7664C108.143 73.8974 107.949 74.1648 107.882 74.4021C106.895 78.7396 105.92 83.0922 104.86 87.7579L104.877 87.7479ZM97.8927 79.8772C94.4856 81.8722 90.4074 84.2601 86.3119 86.6581C86.1915 86.7287 86.0887 86.8548 86.0609 86.981C85.0978 91.4145 84.123 95.8328 83.1325 100.458C87.2968 98.0199 91.2546 95.7025 95.2295 93.375C95.4532 93.2441 95.6355 92.9615 95.6856 92.7343C96.4645 88.3207 97.2318 83.8919 97.9216 79.8823L97.8927 79.8772ZM61.1927 113.305C65.4258 110.826 69.418 108.489 73.4102 106.151C73.5478 106.07 73.6906 105.899 73.7184 105.773C74.6876 101.38 75.6452 96.9713 76.6756 92.3005C72.4425 94.7791 68.4504 97.1167 64.4582 99.4542C64.3205 99.5348 64.1778 99.7063 64.1616 99.8477C63.1752 104.251 62.2176 108.659 61.1927 113.305V113.305ZM72.8145 32.0988C70.7209 36.3588 68.7123 40.4371 66.7153 44.5305C66.653 44.6769 66.5624 44.8839 66.6383 45.0153C68.3231 48.3821 70.0251 51.7388 71.8556 55.328C74.0287 50.9115 76.0829 46.7626 78.0793 42.6035C78.1927 42.3612 78.1381 41.9975 78.0096 41.7649C76.338 38.6103 74.6319 35.4759 72.8145 32.0988V32.0988ZM61.5182 54.3673C59.3041 58.6978 57.215 62.8012 55.1431 66.8945C55.0692 67.0257 55.0363 67.2429 55.1005 67.3592C56.7393 70.7309 58.378 74.1026 60.1164 77.7018C62.3305 73.3713 64.3968 69.3032 66.4343 65.2301C66.5421 65.013 66.5052 64.7049 66.4055 64.4774C64.8483 61.2119 63.2449 57.9513 61.4893 54.3622L61.5182 54.3673ZM49.3826 77.6548C47.2434 81.9854 45.2232 86.0485 43.2201 90.1015C43.1351 90.2833 43.0389 90.5155 43.1092 90.6722C44.7824 94.0237 46.4844 97.3804 48.3093 100.995C50.4768 96.6037 52.5082 92.4901 54.5108 88.3714C54.5903 88.215 54.5711 87.9624 54.4891 87.7905C52.8337 84.4945 51.1666 81.1833 49.3826 77.6548V77.6548Z" fill="black"/>
<path d="M81.0464 118.074L93.2771 134.019L95.4893 132.723L91.2776 127.233C92.6794 127.303 94.2818 127.065 95.8403 126.152C98.7312 124.46 99.8721 121.246 96.4859 116.831C93.3019 112.68 90.1621 112.386 87.4472 113.976C85.6121 115.05 84.6259 116.519 84.1519 118.133L83.0323 116.911L81.0464 118.074ZM90.039 125.475L85.524 119.589C85.7728 118.489 86.616 116.881 88.0488 116.042C90.1101 114.835 91.958 115.345 94.1312 118.178C96.2034 120.879 96.6798 123.21 94.2163 124.653C92.7332 125.521 90.8784 125.525 90.039 125.475Z" fill="white"/>
<path d="M106.6 119.471L93.8803 102.889L91.5928 104.228L104.312 120.81L106.6 119.471Z" fill="white"/>
<path d="M118.39 109.48L114.161 103.967C112.005 101.156 109.746 100.919 106.554 102.788C103.563 104.54 102.762 106.44 103.977 108.784L106.241 107.936C105.557 106.523 105.764 105.51 107.549 104.465C109.661 103.229 110.787 103.842 111.882 105.27L112.724 106.368C112.355 106.552 111.962 106.751 111.559 106.986C107.914 109.121 105.513 111.736 107.821 114.745C108.663 115.843 110.699 117.452 113.967 115.539C115.777 114.479 116.721 113.194 117.053 111.727C117.735 112.378 118.785 112.654 120.067 111.903C120.695 111.536 121.248 111.021 121.582 110.507L120.521 109.314C120.262 109.593 120.069 109.77 119.843 109.902C119.189 110.285 118.861 110.095 118.39 109.48ZM113.861 107.803L115.816 110.351C115.617 111.422 114.807 112.787 113.474 113.567C111.715 114.598 110.672 113.999 109.931 113.032C108.449 111.099 110.719 109.547 112.504 108.502C112.981 108.223 113.476 107.965 113.861 107.803Z" fill="white"/>
<path d="M113.113 99.2975L126.675 107.907L127.133 109.644C127.582 111.322 127.098 112.21 126.168 112.755C125.489 113.152 124.433 113.485 123.837 113.611L124.757 115.332C125.411 115.235 126.61 114.851 127.565 114.292C129.601 113.1 130.126 111.551 129.32 108.554L124.978 92.3501L122.64 93.719L125.969 104.755L125.944 104.77L115.652 97.8109L113.113 99.2975Z" fill="white"/>
</g>
<defs>
<filter id="filter0_d_895_838" x="0.84375" y="0.1875" width="187.821" height="185.129" filterUnits="userSpaceOnUse" color-interpolation-filters="sRGB">
<feFlood flood-opacity="0" result="BackgroundImageFix"/>
<feColorMatrix in="SourceAlpha" type="matrix" values="0 0 0 0 0 0 0 0 0 0 0 0 0 0 0 0 0 0 127 0" result="hardAlpha"/>
<feOffset dy="4"/>
<feGaussianBlur stdDeviation="15"/>
<feComposite in2="hardAlpha" operator="out"/>
<feColorMatrix type="matrix" values="0 0 0 0 0 0 0 0 0 0 0 0 0 0 0 0 0 0 0.3 0"/>
<feBlend mode="normal" in2="BackgroundImageFix" result="effect1_dropShadow_895_838"/>
<feBlend mode="normal" in="SourceGraphic" in2="effect1_dropShadow_895_838" result="shape"/>
</filter>
</defs>
</svg>
